UbuntuMono-Thin.ufo
<glyph name="exclam" format="2">
  <advance width="560"/>
  <unicode hex="0021"/>
  <outline>
    <contour>
      <point x="270" y="189" type="curve"/>
      <point x="290" y="189" type="line"/>
      <point x="297" y="335"/>
      <point x="298" y="348"/>
      <point x="298" y="494" type="curve" smooth="yes"/>
      <point x="298" y="693" type="line"/>
      <point x="262" y="693" type="line"/>
      <point x="262" y="494" type="line" smooth="yes"/>
      <point x="262" y="348"/>
      <point x="264" y="335"/>
    </contour>
    <contour>
      <point x="280" y="-13" type="curve" smooth="yes"/>
      <point x="309" y="-13"/>
      <point x="328" y="9"/>
      <point x="328" y="36" type="curve" smooth="yes"/>
      <point x="328" y="65"/>
      <point x="309" y="86"/>
      <point x="280" y="86" type="curve" smooth="yes"/>
      <point x="251" y="86"/>
      <point x="232" y="65"/>
      <point x="232" y="36" type="curve" smooth="yes"/>
      <point x="232" y="9"/>
      <point x="251" y="-13"/>
    </contour>
  </outline>
</glyph>
<glyph name="quotedbl" format="2">
  <advance width="560"/>
  <unicode hex="0022"/>
  <outline>
    <contour>
      <point x="188" y="491" type="curve"/>
      <point x="204" y="491" type="line"/>
      <point x="213" y="580"/>
      <point x="214" y="627"/>
      <point x="214" y="725" type="curve" smooth="yes"/>
      <point x="214" y="760" type="line"/>
      <point x="178" y="760" type="line"/>
      <point x="178" y="726" type="line" smooth="yes"/>
      <point x="178" y="645"/>
      <point x="178" y="587"/>
    </contour>
    <contour>
      <point x="356" y="491" type="curve"/>
      <point x="372" y="491" type="line"/>
      <point x="381" y="580"/>
      <point x="382" y="627"/>
      <point x="382" y="725" type="curve" smooth="yes"/>
      <point x="382" y="760" type="line"/>
      <point x="346" y="760" type="line"/>
      <point x="346" y="726" type="line" smooth="yes"/>
      <point x="346" y="645"/>
      <point x="346" y="587"/>
    </contour>
  </outline>
</glyph>
<glyph name="numbersign" format="2">
  <advance width="560"/>
  <unicode hex="0023"/>
  <outline>
    <contour>
      <point x="91" y="0" type="line"/>
      <point x="126" y="0" type="line"/>
      <point x="164" y="195" type="line"/>
      <point x="335" y="195" type="line"/>
      <point x="298" y="0" type="line"/>
      <point x="333" y="0" type="line"/>
      <point x="370" y="195" type="line"/>
      <point x="511" y="195" type="line"/>
      <point x="511" y="226" type="line"/>
      <point x="376" y="226" type="line"/>
      <point x="422" y="466" type="line"/>
      <point x="511" y="466" type="line"/>
      <point x="511" y="497" type="line"/>
      <point x="428" y="497" type="line"/>
      <point x="466" y="693" type="line"/>
      <point x="431" y="693" type="line"/>
      <point x="392" y="497" type="line"/>
      <point x="222" y="497" type="line"/>
      <point x="259" y="693" type="line"/>
      <point x="224" y="693" type="line"/>
      <point x="186" y="497" type="line"/>
      <point x="46" y="497" type="line"/>
      <point x="46" y="466" type="line"/>
      <point x="180" y="466" type="line"/>
      <point x="134" y="226" type="line"/>
      <point x="46" y="226" type="line"/>
      <point x="46" y="195" type="line"/>
      <point x="128" y="195" type="line"/>
    </contour>
    <contour>
      <point x="170" y="226" type="line"/>
      <point x="216" y="466" type="line"/>
      <point x="386" y="466" type="line"/>
      <point x="341" y="226" type="line"/>
    </contour>
  </outline>
</glyph>
<glyph name="dollar" format="2">
  <advance width="560"/>
  <unicode hex="0024"/>
  <outline>
    <contour>
      <point x="266" y="-109" type="line"/>
      <point x="300" y="-109" type="line"/>
      <point x="300" y="26" type="line"/>
      <point x="405" y="31"/>
      <point x="469" y="89"/>
      <point x="469" y="181" type="curve" smooth="yes"/>
      <point x="469" y="266"/>
      <point x="422" y="311"/>
      <point x="296" y="357" type="curve" smooth="yes"/>
      <point x="167" y="405"/>
      <point x="138" y="429"/>
      <point x="138" y="502" type="curve" smooth="yes"/>
      <point x="138" y="582"/>
      <point x="195" y="624"/>
      <point x="300" y="624" type="curve" smooth="yes"/>
      <point x="348" y="624"/>
      <point x="398" y="615"/>
      <point x="435" y="599" type="curve"/>
      <point x="445" y="630" type="line"/>
      <point x="402" y="647"/>
      <point x="354" y="656"/>
      <point x="300" y="656" type="curve"/>
      <point x="300" y="776" type="line"/>
      <point x="266" y="776" type="line"/>
      <point x="266" y="653" type="line"/>
      <point x="150" y="640"/>
      <point x="102" y="593"/>
      <point x="102" y="493" type="curve" smooth="yes"/>
      <point x="102" y="424"/>
      <point x="145" y="378"/>
      <point x="248" y="341" type="curve" smooth="yes"/>
      <point x="406" y="284"/>
      <point x="433" y="257"/>
      <point x="433" y="175" type="curve" smooth="yes"/>
      <point x="433" y="101"/>
      <point x="377" y="55"/>
      <point x="281" y="55" type="curve" smooth="yes"/>
      <point x="204" y="55"/>
      <point x="147" y="66"/>
      <point x="94" y="91" type="curve"/>
      <point x="83" y="61" type="line"/>
      <point x="134" y="36"/>
      <point x="203" y="23"/>
      <point x="266" y="23" type="curve"/>
    </contour>
  </outline>
</glyph>
<glyph name="percent" format="2">
  <advance width="560"/>
  <unicode hex="0025"/>
  <outline>
    <contour>
      <point x="66" y="0" type="line"/>
      <point x="103" y="0" type="line"/>
      <point x="484" y="693" type="line"/>
      <point x="447" y="693" type="line"/>
    </contour>
    <contour>
      <point x="408" y="-15" type="curve" smooth="yes"/>
      <point x="480" y="-15"/>
      <point x="522" y="49"/>
      <point x="522" y="158" type="curve" smooth="yes"/>
      <point x="522" y="267"/>
      <point x="480" y="332"/>
      <point x="408" y="332" type="curve" smooth="yes"/>
      <point x="341" y="332"/>
      <point x="302" y="267"/>
      <point x="302" y="158" type="curve" smooth="yes"/>
      <point x="302" y="49"/>
      <point x="341" y="-15"/>
    </contour>
    <contour>
      <point x="408" y="15" type="curve" smooth="yes"/>
      <point x="363" y="15"/>
      <point x="336" y="68"/>
      <point x="336" y="158" type="curve" smooth="yes"/>
      <point x="336" y="249"/>
      <point x="363" y="302"/>
      <point x="408" y="302" type="curve" smooth="yes"/>
      <point x="458" y="302"/>
      <point x="488" y="249"/>
      <point x="488" y="158" type="curve" smooth="yes"/>
      <point x="488" y="68"/>
      <point x="458" y="15"/>
    </contour>
    <contour>
      <point x="142" y="361" type="curve" smooth="yes"/>
      <point x="214" y="361"/>
      <point x="256" y="425"/>
      <point x="256" y="534" type="curve" smooth="yes"/>
      <point x="256" y="643"/>
      <point x="214" y="708"/>
      <point x="142" y="708" type="curve" smooth="yes"/>
      <point x="75" y="708"/>
      <point x="36" y="643"/>
      <point x="36" y="534" type="curve" smooth="yes"/>
      <point x="36" y="425"/>
      <point x="75" y="361"/>
    </contour>
    <contour>
      <point x="142" y="391" type="curve" smooth="yes"/>
      <point x="97" y="391"/>
      <point x="70" y="444"/>
      <point x="70" y="534" type="curve" smooth="yes"/>
      <point x="70" y="625"/>
      <point x="97" y="678"/>
      <point x="142" y="678" type="curve" smooth="yes"/>
      <point x="192" y="678"/>
      <point x="222" y="625"/>
      <point x="222" y="534" type="curve" smooth="yes"/>
      <point x="222" y="444"/>
      <point x="192" y="391"/>
    </contour>
  </outline>
</glyph>
<glyph name="ampersand" format="2">
  <advance width="560"/>
  <unicode hex="0026"/>
  <outline>
    <contour>
      <point x="226" y="-9" type="curve" smooth="yes"/>
      <point x="299" y="-9"/>
      <point x="359" y="36"/>
      <point x="402" y="105" type="curve"/>
      <point x="443" y="52"/>
      <point x="471" y="14"/>
      <point x="484" y="0" type="curve"/>
      <point x="526" y="0" type="line"/>
      <point x="512" y="21"/>
      <point x="474" y="71"/>
      <point x="420" y="139" type="curve"/>
      <point x="451" y="200"/>
      <point x="471" y="275"/>
      <point x="479" y="355" type="curve"/>
      <point x="447" y="359" type="line"/>
      <point x="440" y="289"/>
      <point x="424" y="222"/>
      <point x="398" y="166" type="curve"/>
      <point x="352" y="224"/>
      <point x="297" y="291"/>
      <point x="238" y="361" type="curve"/>
      <point x="321" y="407"/>
      <point x="399" y="466"/>
      <point x="399" y="564" type="curve" smooth="yes"/>
      <point x="399" y="647"/>
      <point x="341" y="706"/>
      <point x="255" y="706" type="curve" smooth="yes"/>
      <point x="162" y="706"/>
      <point x="103" y="646"/>
      <point x="103" y="548" type="curve" smooth="yes"/>
      <point x="103" y="490"/>
      <point x="134" y="431"/>
      <point x="189" y="366" type="curve"/>
      <point x="116" y="324"/>
      <point x="51" y="275"/>
      <point x="51" y="168" type="curve" smooth="yes"/>
      <point x="51" y="58"/>
      <point x="118" y="-9"/>
    </contour>
    <contour>
      <point x="223" y="23" type="curve" smooth="yes"/>
      <point x="140" y="23"/>
      <point x="87" y="76"/>
      <point x="87" y="165" type="curve" smooth="yes"/>
      <point x="87" y="261"/>
      <point x="135" y="304"/>
      <point x="208" y="344" type="curve"/>
      <point x="275" y="268"/>
      <point x="334" y="193"/>
      <point x="381" y="133" type="curve"/>
      <point x="343" y="66"/>
      <point x="290" y="23"/>
    </contour>
    <contour>
      <point x="219" y="383" type="curve"/>
      <point x="161" y="454"/>
      <point x="139" y="493"/>
      <point x="139" y="551" type="curve" smooth="yes"/>
      <point x="139" y="626"/>
      <point x="184" y="674"/>
      <point x="258" y="674" type="curve" smooth="yes"/>
      <point x="313" y="674"/>
      <point x="363" y="627"/>
      <point x="363" y="564" type="curve" smooth="yes"/>
      <point x="363" y="481"/>
      <point x="293" y="423"/>
    </contour>
  </outline>
</glyph>
<glyph name="quotesingle" format="2">
  <advance width="560"/>
  <unicode hex="0027"/>
  <outline>
    <contour>
      <point x="272" y="491" type="curve"/>
      <point x="288" y="491" type="line"/>
      <point x="297" y="580"/>
      <point x="298" y="627"/>
      <point x="298" y="725" type="curve" smooth="yes"/>
      <point x="298" y="760" type="line"/>
      <point x="262" y="760" type="line"/>
      <point x="262" y="726" type="line" smooth="yes"/>
      <point x="262" y="645"/>
      <point x="262" y="587"/>
    </contour>
  </outline>
</glyph>
<glyph name="parenleft" format="2">
  <advance width="560"/>
  <unicode hex="0028"/>
  <outline>
    <contour>
      <point x="386" y="-185" type="curve"/>
      <point x="410" y="-160" type="line"/>
      <point x="258" y="-17"/>
      <point x="196" y="114"/>
      <point x="196" y="299" type="curve" smooth="yes"/>
      <point x="196" y="481"/>
      <point x="258" y="612"/>
      <point x="410" y="758" type="curve"/>
      <point x="386" y="783" type="line"/>
      <point x="225" y="632"/>
      <point x="160" y="494"/>
      <point x="160" y="299" type="curve" smooth="yes"/>
      <point x="160" y="104"/>
      <point x="225" y="-34"/>
    </contour>
  </outline>
</glyph>
<glyph name="parenright" format="2">
  <advance width="560"/>
  <unicode hex="0029"/>
  <outline>
    <contour>
      <point x="174" y="-185" type="line"/>
      <point x="335" y="-34"/>
      <point x="400" y="104"/>
      <point x="400" y="299" type="curve" smooth="yes"/>
      <point x="400" y="494"/>
      <point x="335" y="632"/>
      <point x="174" y="783" type="curve"/>
      <point x="150" y="758" type="line"/>
      <point x="302" y="612"/>
      <point x="364" y="481"/>
      <point x="364" y="299" type="curve" smooth="yes"/>
      <point x="364" y="114"/>
      <point x="302" y="-17"/>
      <point x="150" y="-160" type="curve"/>
    </contour>
  </outline>
</glyph>
<glyph name="asterisk" format="2">
  <advance width="560"/>
  <unicode hex="002A"/>
  <outline>
    <contour>
      <point x="172" y="290" type="line"/>
      <point x="185" y="308" type="line"/>
      <point x="229" y="368"/>
      <point x="258" y="412"/>
      <point x="280" y="458" type="curve"/>
      <point x="304" y="411"/>
      <point x="331" y="369"/>
      <point x="375" y="308" type="curve"/>
      <point x="388" y="290" type="line"/>
      <point x="420" y="313" type="line"/>
      <point x="409" y="329" type="line"/>
      <point x="364" y="393"/>
      <point x="334" y="427"/>
      <point x="298" y="469" type="curve"/>
      <point x="391" y="493"/>
      <point x="405" y="495"/>
      <point x="466" y="515" type="curve"/>
      <point x="487" y="522" type="line"/>
      <point x="473" y="561" type="line"/>
      <point x="452" y="554" type="line"/>
      <point x="383" y="530"/>
      <point x="339" y="513"/>
      <point x="291" y="493" type="curve"/>
      <point x="299" y="548"/>
      <point x="300" y="589"/>
      <point x="300" y="667" type="curve"/>
      <point x="300" y="693" type="line"/>
      <point x="260" y="693" type="line"/>
      <point x="260" y="666" type="line"/>
      <point x="260" y="588"/>
      <point x="261" y="548"/>
      <point x="269" y="493" type="curve"/>
      <point x="216" y="515"/>
      <point x="187" y="527"/>
      <point x="112" y="553" type="curve"/>
      <point x="87" y="561" type="line"/>
      <point x="73" y="522" type="line"/>
      <point x="98" y="514" type="line"/>
      <point x="162" y="493"/>
      <point x="183" y="489"/>
      <point x="262" y="469" type="curve"/>
      <point x="225" y="426"/>
      <point x="199" y="396"/>
      <point x="155" y="334" type="curve"/>
      <point x="141" y="313" type="line"/>
    </contour>
  </outline>
</glyph>
<glyph name="plus" format="2">
  <advance width="560"/>
  <unicode hex="002B"/>
  <outline>
    <contour>
      <point x="262" y="44" type="line"/>
      <point x="298" y="44" type="line"/>
      <point x="298" y="273" type="line"/>
      <point x="503" y="273" type="line"/>
      <point x="503" y="305" type="line"/>
      <point x="298" y="305" type="line"/>
      <point x="298" y="534" type="line"/>
      <point x="262" y="534" type="line"/>
      <point x="262" y="305" type="line"/>
      <point x="57" y="305" type="line"/>
      <point x="57" y="273" type="line"/>
      <point x="262" y="273" type="line"/>
    </contour>
  </outline>
</glyph>
<glyph name="period" format="2">
  <advance width="560"/>
  <unicode hex="002E"/>
  <outline>
    <contour>
      <point x="281" y="-13" type="curve" smooth="yes"/>
      <point x="316" y="-13"/>
      <point x="340" y="14"/>
      <point x="340" y="51" type="curve" smooth="yes"/>
      <point x="340" y="87"/>
      <point x="316" y="112"/>
      <point x="281" y="112" type="curve" smooth="yes"/>
      <point x="246" y="112"/>
      <point x="221" y="87"/>
      <point x="221" y="51" type="curve" smooth="yes"/>
      <point x="221" y="14"/>
      <point x="246" y="-13"/>
    </contour>
  </outline>
</glyph>
<glyph name="zero" format="2">
  <advance width="560"/>
  <unicode hex="0030"/>
  <outline>
    <contour>
      <point x="280" y="-14" type="curve" smooth="yes"/>
      <point x="417" y="-14"/>
      <point x="493" y="117"/>
      <point x="493" y="346" type="curve" smooth="yes"/>
      <point x="493" y="575"/>
      <point x="419" y="706"/>
      <point x="280" y="706" type="curve" smooth="yes"/>
      <point x="141" y="706"/>
      <point x="67" y="575"/>
      <point x="67" y="346" type="curve" smooth="yes"/>
      <point x="67" y="117"/>
      <point x="143" y="-14"/>
    </contour>
    <contour>
      <point x="280" y="18" type="curve" smooth="yes"/>
      <point x="169" y="18"/>
      <point x="103" y="138"/>
      <point x="103" y="346" type="curve" smooth="yes"/>
      <point x="103" y="557"/>
      <point x="169" y="674"/>
      <point x="280" y="674" type="curve" smooth="yes"/>
      <point x="391" y="674"/>
      <point x="457" y="557"/>
      <point x="457" y="346" type="curve" smooth="yes"/>
      <point x="457" y="138"/>
      <point x="391" y="18"/>
    </contour>
    <contour>
      <point x="282" y="291" type="curve" smooth="yes"/>
      <point x="319" y="291"/>
      <point x="346" y="320"/>
      <point x="346" y="360" type="curve" smooth="yes"/>
      <point x="346" y="401"/>
      <point x="319" y="430"/>
      <point x="282" y="430" type="curve" smooth="yes"/>
      <point x="244" y="430"/>
      <point x="217" y="401"/>
      <point x="217" y="360" type="curve" smooth="yes"/>
      <point x="217" y="320"/>
      <point x="244" y="291"/>
    </contour>
  </outline>
</glyph>
<glyph name="four" format="2">
  <advance width="560"/>
  <unicode hex="0034"/>
  <outline>
    <contour>
      <point x="379" y="0" type="line"/>
      <point x="413" y="0" type="line"/>
      <point x="413" y="194" type="line"/>
      <point x="503" y="194" type="line"/>
      <point x="503" y="225" type="line"/>
      <point x="413" y="225" type="line"/>
      <point x="413" y="693" type="line"/>
      <point x="375" y="693" type="line"/>
      <point x="249" y="567"/>
      <point x="111" y="357"/>
      <point x="59" y="214" type="curve"/>
      <point x="59" y="194" type="line"/>
      <point x="379" y="194" type="line"/>
    </contour>
    <contour>
      <point x="97" y="225" type="line"/>
      <point x="145" y="354"/>
      <point x="277" y="547"/>
      <point x="379" y="654" type="curve"/>
      <point x="379" y="225" type="line"/>
    </contour>
  </outline>
</glyph>
<glyph name="five" format="2">
  <advance width="560"/>
  <unicode hex="0035"/>
  <outline>
    <contour>
      <point x="245" y="-15" type="curve" smooth="yes"/>
      <point x="393" y="-15"/>
      <point x="476" y="61"/>
      <point x="476" y="194" type="curve" smooth="yes"/>
      <point x="476" y="339"/>
      <point x="366" y="404"/>
      <point x="177" y="407" type="curve"/>
      <point x="185" y="492"/>
      <point x="196" y="607"/>
      <point x="196" y="662" type="curve"/>
      <point x="452" y="662" type="line"/>
      <point x="452" y="693" type="line"/>
      <point x="163" y="693" type="line"/>
      <point x="163" y="597"/>
      <point x="156" y="534"/>
      <point x="140" y="376" type="curve"/>
      <point x="351" y="376"/>
      <point x="440" y="319"/>
      <point x="440" y="194" type="curve" smooth="yes"/>
      <point x="440" y="78"/>
      <point x="372" y="17"/>
      <point x="243" y="17" type="curve" smooth="yes"/>
      <point x="192" y="17"/>
      <point x="126" y="35"/>
      <point x="94" y="54" type="curve"/>
      <point x="83" y="21" type="line"/>
      <point x="119" y="-1"/>
      <point x="190" y="-15"/>
    </contour>
  </outline>
</glyph>
<glyph name="six" format="2">
  <advance width="560"/>
  <unicode hex="0036"/>
  <outline>
    <contour>
      <point x="300" y="-15" type="curve" smooth="yes"/>
      <point x="419" y="-15"/>
      <point x="491" y="66"/>
      <point x="491" y="198" type="curve" smooth="yes"/>
      <point x="491" y="335"/>
      <point x="424" y="412"/>
      <point x="301" y="412" type="curve" smooth="yes"/>
      <point x="245" y="412"/>
      <point x="178" y="395"/>
      <point x="130" y="364" type="curve"/>
      <point x="149" y="549"/>
      <point x="250" y="646"/>
      <point x="453" y="666" type="curve"/>
      <point x="450" y="696" type="line"/>
      <point x="212" y="678"/>
      <point x="90" y="543"/>
      <point x="90" y="274" type="curve" smooth="yes"/>
      <point x="90" y="82"/>
      <point x="161" y="-15"/>
    </contour>
    <contour>
      <point x="299" y="17" type="curve" smooth="yes"/>
      <point x="186" y="17"/>
      <point x="126" y="103"/>
      <point x="126" y="270" type="curve" smooth="yes"/>
      <point x="126" y="310"/>
      <point x="126" y="319"/>
      <point x="127" y="328" type="curve"/>
      <point x="178" y="363"/>
      <point x="239" y="380"/>
      <point x="299" y="380" type="curve" smooth="yes"/>
      <point x="400" y="380"/>
      <point x="455" y="316"/>
      <point x="455" y="196" type="curve" smooth="yes"/>
      <point x="455" y="81"/>
      <point x="399" y="17"/>
    </contour>
  </outline>
</glyph>
<glyph name="seven" format="2">
  <advance width="560"/>
  <unicode hex="0037"/>
  <outline>
    <contour>
      <point x="206" y="0" type="curve"/>
      <point x="241" y="0" type="line"/>
      <point x="255" y="229"/>
      <point x="378" y="517"/>
      <point x="492" y="661" type="curve"/>
      <point x="492" y="693" type="line"/>
      <point x="93" y="693" type="line"/>
      <point x="93" y="662" type="line"/>
      <point x="456" y="662" type="line"/>
      <point x="349" y="532"/>
      <point x="219" y="222"/>
    </contour>
  </outline>
</glyph>
<glyph name="nine" format="2">
  <advance width="560"/>
  <unicode hex="0039"/>
  <outline>
    <contour>
      <point x="104" y="-2" type="line"/>
      <point x="336" y="1"/>
      <point x="476" y="139"/>
      <point x="476" y="420" type="curve" smooth="yes"/>
      <point x="476" y="611"/>
      <point x="407" y="706"/>
      <point x="270" y="706" type="curve" smooth="yes"/>
      <point x="150" y="706"/>
      <point x="78" y="626"/>
      <point x="78" y="493" type="curve" smooth="yes"/>
      <point x="78" y="360"/>
      <point x="148" y="283"/>
      <point x="269" y="283" type="curve" smooth="yes"/>
      <point x="325" y="283"/>
      <point x="390" y="301"/>
      <point x="435" y="329" type="curve"/>
      <point x="416" y="142"/>
      <point x="304" y="33"/>
      <point x="103" y="28" type="curve"/>
    </contour>
    <contour>
      <point x="271" y="315" type="curve" smooth="yes"/>
      <point x="170" y="315"/>
      <point x="114" y="379"/>
      <point x="114" y="495" type="curve" smooth="yes"/>
      <point x="114" y="611"/>
      <point x="170" y="674"/>
      <point x="271" y="674" type="curve" smooth="yes"/>
      <point x="384" y="674"/>
      <point x="440" y="590"/>
      <point x="440" y="422" type="curve" smooth="yes"/>
      <point x="440" y="399"/>
      <point x="439" y="380"/>
      <point x="438" y="365" type="curve"/>
      <point x="375" y="329"/>
      <point x="328" y="315"/>
    </contour>
  </outline>
</glyph>
<glyph name="less" format="2">
  <advance width="560"/>
  <unicode hex="003C"/>
  <outline>
    <contour>
      <point x="489" y="83" type="line"/>
      <point x="500" y="113" type="line"/>
      <point x="101" y="285" type="line"/>
      <point x="500" y="457" type="line"/>
      <point x="489" y="487" type="line"/>
      <point x="61" y="302" type="line"/>
      <point x="61" y="269" type="line"/>
    </contour>
  </outline>
</glyph>
<glyph name="equal" format="2">
  <advance width="560"/>
  <unicode hex="003D"/>
  <outline>
    <contour>
      <point x="57" y="377" type="line"/>
      <point x="503" y="377" type="line"/>
      <point x="503" y="409" type="line"/>
      <point x="57" y="409" type="line"/>
    </contour>
    <contour>
      <point x="57" y="169" type="line"/>
      <point x="503" y="169" type="line"/>
      <point x="503" y="201" type="line"/>
      <point x="57" y="201" type="line"/>
    </contour>
  </outline>
</glyph>
<glyph name="greater" format="2">
  <advance width="560"/>
  <unicode hex="003E"/>
  <outline>
    <contour>
      <point x="71" y="83" type="line"/>
      <point x="499" y="269" type="line"/>
      <point x="499" y="302" type="line"/>
      <point x="71" y="487" type="line"/>
      <point x="60" y="457" type="line"/>
      <point x="459" y="285" type="line"/>
      <point x="60" y="113" type="line"/>
    </contour>
  </outline>
</glyph>
<glyph name="at" format="2">
  <advance width="560"/>
  <unicode hex="0040"/>
  <outline>
    <contour>
      <point x="365" y="-151" type="curve" smooth="yes"/>
      <point x="389" y="-151"/>
      <point x="425" y="-144"/>
      <point x="445" y="-136" type="curve"/>
      <point x="442" y="-106" type="line"/>
      <point x="417" y="-115"/>
      <point x="389" y="-119"/>
      <point x="366" y="-119" type="curve" smooth="yes"/>
      <point x="199" y="-119"/>
      <point x="101" y="27"/>
      <point x="101" y="275" type="curve" smooth="yes"/>
      <point x="101" y="528"/>
      <point x="178" y="677"/>
      <point x="308" y="677" type="curve" smooth="yes"/>
      <point x="397" y="677"/>
      <point x="463" y="608"/>
      <point x="463" y="471" type="curve" smooth="yes"/>
      <point x="463" y="468" type="line"/>
      <point x="444" y="472"/>
      <point x="429" y="474"/>
      <point x="409" y="474" type="curve" smooth="yes"/>
      <point x="299" y="474"/>
      <point x="227" y="398"/>
      <point x="227" y="260" type="curve" smooth="yes"/>
      <point x="227" y="126"/>
      <point x="301" y="50"/>
      <point x="387" y="50" type="curve" smooth="yes"/>
      <point x="428" y="50"/>
      <point x="461" y="54"/>
      <point x="498" y="71" type="curve"/>
      <point x="498" y="466" type="line" smooth="yes"/>
      <point x="498" y="614"/>
      <point x="437" y="709"/>
      <point x="311" y="709" type="curve" smooth="yes"/>
      <point x="156" y="709"/>
      <point x="65" y="548"/>
      <point x="65" y="275" type="curve" smooth="yes"/>
      <point x="65" y="7"/>
      <point x="176" y="-151"/>
    </contour>
    <contour>
      <point x="389" y="82" type="curve" smooth="yes"/>
      <point x="310" y="82"/>
      <point x="263" y="148"/>
      <point x="263" y="260" type="curve" smooth="yes"/>
      <point x="263" y="378"/>
      <point x="313" y="442"/>
      <point x="404" y="442" type="curve" smooth="yes"/>
      <point x="424" y="442"/>
      <point x="441" y="441"/>
      <point x="463" y="435" type="curve"/>
      <point x="463" y="90" type="line"/>
      <point x="438" y="83"/>
      <point x="418" y="82"/>
    </contour>
  </outline>
</glyph>
<glyph name="A" format="2">
  <advance width="560"/>
  <unicode hex="0041"/>
  <anchor x="280" y="0" name="bottom"/>
  <anchor x="499" y="11" name="ogonek"/>
  <anchor x="280" y="685" name="top"/>
  <outline>
    <contour>
      <point x="14" y="0" type="curve"/>
      <point x="52" y="0" type="line"/>
      <point x="120" y="207" type="line"/>
      <point x="440" y="207" type="line"/>
      <point x="507" y="0" type="line"/>
      <point x="546" y="0" type="line"/>
      <point x="446" y="305"/>
      <point x="387" y="469"/>
      <point x="294" y="693" type="curve"/>
      <point x="264" y="693" type="line"/>
      <point x="169" y="458"/>
      <point x="94" y="242"/>
    </contour>
    <contour>
      <point x="131" y="238" type="line"/>
      <point x="184" y="392"/>
      <point x="234" y="527"/>
      <point x="278" y="645" type="curve"/>
      <point x="349" y="462"/>
      <point x="388" y="359"/>
      <point x="429" y="238" type="curve"/>
    </contour>
  </outline>
</glyph>
<glyph name="B" format="2">
  <advance width="560"/>
  <unicode hex="0042"/>
  <anchor x="280" y="0" name="bottom"/>
  <anchor x="280" y="389" name="center"/>
  <anchor x="280" y="776" name="top"/>
  <outline>
    <contour>
      <point x="235" y="-4" type="curve" smooth="yes"/>
      <point x="394" y="-4"/>
      <point x="483" y="69"/>
      <point x="483" y="191" type="curve" smooth="yes"/>
      <point x="483" y="285"/>
      <point x="420" y="349"/>
      <point x="335" y="363" type="curve"/>
      <point x="405" y="385"/>
      <point x="452" y="446"/>
      <point x="452" y="523" type="curve" smooth="yes"/>
      <point x="452" y="641"/>
      <point x="378" y="697"/>
      <point x="235" y="697" type="curve" smooth="yes"/>
      <point x="186" y="697"/>
      <point x="112" y="691"/>
      <point x="74" y="680" type="curve"/>
      <point x="74" y="14" type="line"/>
      <point x="106" y="5"/>
      <point x="184" y="-4"/>
    </contour>
    <contour>
      <point x="233" y="28" type="curve" smooth="yes"/>
      <point x="197" y="28"/>
      <point x="141" y="32"/>
      <point x="109" y="39" type="curve"/>
      <point x="109" y="345" type="line"/>
      <point x="248" y="345" type="line" smooth="yes"/>
      <point x="378" y="345"/>
      <point x="447" y="291"/>
      <point x="447" y="189" type="curve" smooth="yes"/>
      <point x="447" y="83"/>
      <point x="369" y="28"/>
    </contour>
    <contour>
      <point x="109" y="376" type="line"/>
      <point x="109" y="655" type="line"/>
      <point x="134" y="659"/>
      <point x="187" y="665"/>
      <point x="228" y="665" type="curve" smooth="yes"/>
      <point x="354" y="665"/>
      <point x="416" y="621"/>
      <point x="416" y="523" type="curve" smooth="yes"/>
      <point x="416" y="431"/>
      <point x="360" y="376"/>
      <point x="242" y="376" type="curve" smooth="yes"/>
    </contour>
  </outline>
</glyph>
<glyph name="C" format="2">
  <advance width="560"/>
  <unicode hex="0043"/>
  <anchor x="280" y="0" name="bottom"/>
  <anchor x="280" y="776" name="top"/>
  <outline>
    <contour>
      <point x="346" y="-12" type="curve" smooth="yes"/>
      <point x="402" y="-12"/>
      <point x="458" y="2"/>
      <point x="495" y="25" type="curve"/>
      <point x="485" y="54" type="line"/>
      <point x="448" y="33"/>
      <point x="398" y="20"/>
      <point x="346" y="20" type="curve" smooth="yes"/>
      <point x="210" y="20"/>
      <point x="117" y="151"/>
      <point x="117" y="347" type="curve" smooth="yes"/>
      <point x="117" y="540"/>
      <point x="210" y="675"/>
      <point x="341" y="675" type="curve" smooth="yes"/>
      <point x="393" y="675"/>
      <point x="440" y="658"/>
      <point x="472" y="637" type="curve"/>
      <point x="486" y="666" type="line"/>
      <point x="450" y="691"/>
      <point x="401" y="707"/>
      <point x="341" y="707" type="curve" smooth="yes"/>
      <point x="186" y="707"/>
      <point x="81" y="558"/>
      <point x="81" y="347" type="curve" smooth="yes"/>
      <point x="81" y="132"/>
      <point x="183" y="-12"/>
    </contour>
  </outline>
</glyph>
<glyph name="D" format="2">
  <advance width="560"/>
  <unicode hex="0044"/>
  <anchor x="280" y="0" name="bottom"/>
  <anchor x="280" y="389" name="center"/>
  <anchor x="280" y="776" name="top"/>
  <outline>
    <contour>
      <point x="222" y="-4" type="curve" smooth="yes"/>
      <point x="395" y="-4"/>
      <point x="500" y="126"/>
      <point x="500" y="347" type="curve" smooth="yes"/>
      <point x="500" y="568"/>
      <point x="396" y="699"/>
      <point x="213" y="699" type="curve" smooth="yes"/>
      <point x="162" y="699"/>
      <point x="102" y="693"/>
      <point x="72" y="682" type="curve"/>
      <point x="72" y="12" type="line"/>
      <point x="109" y="3"/>
      <point x="170" y="-4"/>
    </contour>
    <contour>
      <point x="222" y="28" type="curve" smooth="yes"/>
      <point x="178" y="28"/>
      <point x="136" y="31"/>
      <point x="107" y="36" type="curve"/>
      <point x="107" y="658" type="line"/>
      <point x="136" y="663"/>
      <point x="176" y="667"/>
      <point x="213" y="667" type="curve" smooth="yes"/>
      <point x="374" y="667"/>
      <point x="464" y="553"/>
      <point x="464" y="347" type="curve" smooth="yes"/>
      <point x="464" y="147"/>
      <point x="376" y="28"/>
    </contour>
  </outline>
</glyph>
<glyph name="F" format="2">
  <advance width="560"/>
  <unicode hex="0046"/>
  <anchor x="280" y="0" name="bottom"/>
  <anchor x="280" y="776" name="top"/>
  <outline>
    <contour>
      <point x="143" y="0" type="line"/>
      <point x="178" y="0" type="line"/>
      <point x="178" y="351" type="line"/>
      <point x="455" y="351" type="line"/>
      <point x="455" y="382" type="line"/>
      <point x="178" y="382" type="line"/>
      <point x="178" y="662" type="line"/>
      <point x="490" y="662" type="line"/>
      <point x="490" y="693" type="line"/>
      <point x="143" y="693" type="line"/>
    </contour>
  </outline>
</glyph>
<glyph name="G" format="2">
  <advance width="560"/>
  <unicode hex="0047"/>
  <anchor x="280" y="0" name="bottom"/>
  <anchor x="280" y="776" name="top"/>
  <outline>
    <contour>
      <point x="320" y="-15" type="curve" smooth="yes"/>
      <point x="385" y="-15"/>
      <point x="444" y="1"/>
      <point x="482" y="20" type="curve"/>
      <point x="482" y="318" type="line"/>
      <point x="447" y="318" type="line"/>
      <point x="447" y="38" type="line"/>
      <point x="420" y="27"/>
      <point x="375" y="17"/>
      <point x="320" y="17" type="curve" smooth="yes"/>
      <point x="185" y="17"/>
      <point x="103" y="145"/>
      <point x="103" y="347" type="curve" smooth="yes"/>
      <point x="103" y="538"/>
      <point x="192" y="677"/>
      <point x="320" y="677" type="curve" smooth="yes"/>
      <point x="377" y="677"/>
      <point x="429" y="656"/>
      <point x="457" y="634" type="curve"/>
      <point x="475" y="663" type="line"/>
      <point x="431" y="694"/>
      <point x="384" y="709"/>
      <point x="320" y="709" type="curve" smooth="yes"/>
      <point x="171" y="709"/>
      <point x="67" y="561"/>
      <point x="67" y="347" type="curve" smooth="yes"/>
      <point x="67" y="129"/>
      <point x="161" y="-15"/>
    </contour>
  </outline>
</glyph>
<glyph name="J" format="2">
  <advance width="560"/>
  <unicode hex="004A"/>
  <anchor x="279" y="0" name="bottom"/>
  <anchor x="279" y="776" name="top"/>
  <outline>
    <contour>
      <point x="241" y="-10" type="curve" smooth="yes"/>
      <point x="377" y="-10"/>
      <point x="440" y="64"/>
      <point x="440" y="217" type="curve" smooth="yes"/>
      <point x="440" y="693" type="line"/>
      <point x="172" y="693" type="line"/>
      <point x="172" y="662" type="line"/>
      <point x="405" y="662" type="line"/>
      <point x="405" y="218" type="line" smooth="yes"/>
      <point x="405" y="82"/>
      <point x="354" y="22"/>
      <point x="241" y="22" type="curve" smooth="yes"/>
      <point x="186" y="22"/>
      <point x="132" y="39"/>
      <point x="99" y="66" type="curve"/>
      <point x="80" y="38" type="line"/>
      <point x="115" y="8"/>
      <point x="179" y="-10"/>
    </contour>
  </outline>
</glyph>
<glyph name="M" format="2">
  <advance width="560"/>
  <unicode hex="004D"/>
  <anchor x="280" y="0" name="bottom"/>
  <anchor x="280" y="776" name="top"/>
  <outline>
    <contour>
      <point x="52" y="0" type="curve"/>
      <point x="88" y="0" type="line"/>
      <point x="99" y="242"/>
      <point x="119" y="449"/>
      <point x="139" y="627" type="curve"/>
      <point x="262" y="284" type="line"/>
      <point x="296" y="284" type="line"/>
      <point x="421" y="627" type="line"/>
      <point x="445" y="451"/>
      <point x="460" y="242"/>
      <point x="473" y="0" type="curve"/>
      <point x="508" y="0" type="line"/>
      <point x="493" y="263"/>
      <point x="477" y="476"/>
      <point x="446" y="693" type="curve"/>
      <point x="418" y="693" type="line"/>
      <point x="364" y="563"/>
      <point x="322" y="457"/>
      <point x="281" y="330" type="curve"/>
      <point x="245" y="431"/>
      <point x="196" y="563"/>
      <point x="144" y="693" type="curve"/>
      <point x="114" y="693" type="line"/>
      <point x="84" y="472"/>
      <point x="68" y="260"/>
    </contour>
  </outline>
</glyph>
<glyph name="N" format="2">
  <advance width="560"/>
  <unicode hex="004E"/>
  <anchor x="279" y="0" name="bottom"/>
  <anchor x="279" y="776" name="top"/>
  <outline>
    <contour>
      <point x="78" y="0" type="line"/>
      <point x="113" y="0" type="line"/>
      <point x="113" y="627" type="line"/>
      <point x="227" y="436"/>
      <point x="356" y="200"/>
      <point x="450" y="0" type="curve"/>
      <point x="482" y="0" type="line"/>
      <point x="482" y="693" type="line"/>
      <point x="447" y="693" type="line"/>
      <point x="447" y="82" type="line"/>
      <point x="370" y="246"/>
      <point x="242" y="477"/>
      <point x="112" y="693" type="curve"/>
      <point x="78" y="693" type="line"/>
    </contour>
  </outline>
</glyph>
<glyph name="P" format="2">
  <advance width="560"/>
  <unicode hex="0050"/>
  <anchor x="279" y="0" name="bottom"/>
  <anchor x="279" y="776" name="top"/>
  <outline>
    <contour>
      <point x="113" y="0" type="line"/>
      <point x="148" y="0" type="line"/>
      <point x="148" y="279" type="line"/>
      <point x="234" y="279" type="line" smooth="yes"/>
      <point x="400" y="279"/>
      <point x="481" y="348"/>
      <point x="481" y="488" type="curve" smooth="yes"/>
      <point x="481" y="627"/>
      <point x="403" y="697"/>
      <point x="247" y="697" type="curve" smooth="yes"/>
      <point x="194" y="697"/>
      <point x="143" y="691"/>
      <point x="113" y="682" type="curve"/>
    </contour>
    <contour>
      <point x="148" y="313" type="line"/>
      <point x="148" y="656" type="line"/>
      <point x="171" y="662"/>
      <point x="218" y="665"/>
      <point x="247" y="665" type="curve" smooth="yes"/>
      <point x="379" y="665"/>
      <point x="445" y="606"/>
      <point x="445" y="489" type="curve" smooth="yes"/>
      <point x="445" y="339"/>
      <point x="352" y="313"/>
      <point x="231" y="313" type="curve" smooth="yes"/>
    </contour>
  </outline>
</glyph>
<glyph name="Q" format="2">
  <advance width="560"/>
  <unicode hex="0051"/>
  <anchor x="280" y="0" name="bottom"/>
  <anchor x="280" y="776" name="top"/>
  <outline>
    <contour>
      <point x="458" y="-175" type="curve"/>
      <point x="466" y="-140" type="line"/>
      <point x="373" y="-117"/>
      <point x="311" y="-78"/>
      <point x="301" y="-14" type="curve"/>
      <point x="440" y="-2"/>
      <point x="522" y="130"/>
      <point x="522" y="347" type="curve" smooth="yes"/>
      <point x="522" y="575"/>
      <point x="432" y="709"/>
      <point x="280" y="709" type="curve" smooth="yes"/>
      <point x="128" y="709"/>
      <point x="38" y="575"/>
      <point x="38" y="347" type="curve" smooth="yes"/>
      <point x="38" y="127"/>
      <point x="122" y="-5"/>
      <point x="264" y="-14" type="curve"/>
      <point x="280" y="-93"/>
      <point x="341" y="-145"/>
    </contour>
    <contour>
      <point x="280" y="17" type="curve" smooth="yes"/>
      <point x="151" y="17"/>
      <point x="74" y="140"/>
      <point x="74" y="347" type="curve" smooth="yes"/>
      <point x="74" y="554"/>
      <point x="151" y="677"/>
      <point x="280" y="677" type="curve" smooth="yes"/>
      <point x="409" y="677"/>
      <point x="486" y="554"/>
      <point x="486" y="347" type="curve" smooth="yes"/>
      <point x="486" y="140"/>
      <point x="409" y="17"/>
    </contour>
  </outline>
</glyph>
<glyph name="R" format="2">
  <advance width="560"/>
  <unicode hex="0052"/>
  <anchor x="259" y="0" name="bottom"/>
  <anchor x="279" y="776" name="top"/>
  <outline>
    <contour>
      <point x="81" y="0" type="line"/>
      <point x="116" y="0" type="line"/>
      <point x="116" y="292" type="line"/>
      <point x="226" y="292" type="line" smooth="yes"/>
      <point x="251" y="292"/>
      <point x="274" y="293"/>
      <point x="296" y="296" type="curve"/>
      <point x="355" y="208"/>
      <point x="412" y="93"/>
      <point x="453" y="0" type="curve"/>
      <point x="493" y="0" type="line"/>
      <point x="448" y="102"/>
      <point x="389" y="214"/>
      <point x="332" y="304" type="curve"/>
      <point x="417" y="330"/>
      <point x="467" y="387"/>
      <point x="467" y="488" type="curve" smooth="yes"/>
      <point x="467" y="627"/>
      <point x="390" y="697"/>
      <point x="235" y="697" type="curve" smooth="yes"/>
      <point x="173" y="697"/>
      <point x="115" y="691"/>
      <point x="81" y="682" type="curve"/>
    </contour>
    <contour>
      <point x="116" y="323" type="line"/>
      <point x="116" y="656" type="line"/>
      <point x="143" y="662"/>
      <point x="196" y="665"/>
      <point x="235" y="665" type="curve" smooth="yes"/>
      <point x="364" y="665"/>
      <point x="431" y="607"/>
      <point x="431" y="489" type="curve" smooth="yes"/>
      <point x="431" y="374"/>
      <point x="361" y="323"/>
      <point x="230" y="323" type="curve" smooth="yes"/>
    </contour>
  </outline>
</glyph>
<glyph name="S" format="2">
  <advance width="560"/>
  <unicode hex="0053"/>
  <anchor x="255" y="0" name="bottom"/>
  <anchor x="280" y="776" name="top"/>
  <outline>
    <contour>
      <point x="254" y="-10" type="curve" smooth="yes"/>
      <point x="403" y="-10"/>
      <point x="481" y="55"/>
      <point x="481" y="176" type="curve" smooth="yes"/>
      <point x="481" y="263"/>
      <point x="432" y="316"/>
      <point x="304" y="366" type="curve" smooth="yes"/>
      <point x="175" y="418"/>
      <point x="132" y="456"/>
      <point x="132" y="533" type="curve" smooth="yes"/>
      <point x="132" y="624"/>
      <point x="187" y="671"/>
      <point x="294" y="671" type="curve" smooth="yes"/>
      <point x="348" y="671"/>
      <point x="404" y="657"/>
      <point x="446" y="633" type="curve"/>
      <point x="460" y="662" type="line"/>
      <point x="422" y="686"/>
      <point x="355" y="703"/>
      <point x="298" y="703" type="curve" smooth="yes"/>
      <point x="169" y="703"/>
      <point x="96" y="646"/>
      <point x="96" y="534" type="curve" smooth="yes"/>
      <point x="96" y="442"/>
      <point x="145" y="390"/>
      <point x="279" y="338" type="curve" smooth="yes"/>
      <point x="406" y="290"/>
      <point x="445" y="245"/>
      <point x="445" y="174" type="curve" smooth="yes"/>
      <point x="445" y="72"/>
      <point x="380" y="22"/>
      <point x="251" y="22" type="curve" smooth="yes"/>
      <point x="195" y="22"/>
      <point x="133" y="39"/>
      <point x="85" y="68" type="curve"/>
      <point x="72" y="38" type="line"/>
      <point x="120" y="7"/>
      <point x="183" y="-10"/>
    </contour>
  </outline>
</glyph>
<glyph name="T" format="2">
  <advance width="560"/>
  <unicode hex="0054"/>
  <anchor x="279" y="0" name="bottom"/>
  <anchor x="279" y="389" name="center"/>
  <anchor x="279" y="776" name="top"/>
  <outline>
    <contour>
      <point x="262" y="0" type="line"/>
      <point x="297" y="0" type="line"/>
      <point x="297" y="662" type="line"/>
      <point x="491" y="662" type="line"/>
      <point x="491" y="693" type="line"/>
      <point x="69" y="693" type="line"/>
      <point x="69" y="662" type="line"/>
      <point x="262" y="662" type="line"/>
    </contour>
  </outline>
</glyph>
<glyph name="U" format="2">
  <advance width="560"/>
  <unicode hex="0055"/>
  <anchor x="279" y="0" name="bottom"/>
  <anchor x="499" y="11" name="ogonek"/>
  <anchor x="279" y="776" name="top"/>
  <anchor x="532" y="776" name="topright"/>
  <outline>
    <contour>
      <point x="282" y="-10" type="curve" smooth="yes"/>
      <point x="430" y="-10"/>
      <point x="501" y="74"/>
      <point x="501" y="234" type="curve" smooth="yes"/>
      <point x="501" y="693" type="line"/>
      <point x="466" y="693" type="line"/>
      <point x="466" y="237" type="line" smooth="yes"/>
      <point x="466" y="98"/>
      <point x="410" y="22"/>
      <point x="282" y="22" type="curve" smooth="yes"/>
      <point x="151" y="22"/>
      <point x="94" y="98"/>
      <point x="94" y="237" type="curve" smooth="yes"/>
      <point x="94" y="693" type="line"/>
      <point x="59" y="693" type="line"/>
      <point x="59" y="234" type="line" smooth="yes"/>
      <point x="59" y="72"/>
      <point x="131" y="-10"/>
    </contour>
  </outline>
</glyph>
<glyph name="V" format="2">
  <advance width="560"/>
  <unicode hex="0056"/>
  <anchor x="280" y="0" name="bottom"/>
  <anchor x="280" y="776" name="top"/>
  <outline>
    <contour>
      <point x="267" y="0" type="curve"/>
      <point x="295" y="0" type="line"/>
      <point x="381" y="189"/>
      <point x="449" y="385"/>
      <point x="540" y="693" type="curve"/>
      <point x="504" y="693" type="line"/>
      <point x="423" y="409"/>
      <point x="372" y="271"/>
      <point x="282" y="44" type="curve"/>
      <point x="195" y="259"/>
      <point x="135" y="425"/>
      <point x="58" y="693" type="curve"/>
      <point x="20" y="693" type="line"/>
      <point x="90" y="464"/>
      <point x="170" y="215"/>
    </contour>
  </outline>
</glyph>
<glyph name="W" format="2">
  <advance width="560"/>
  <unicode hex="0057"/>
  <anchor x="280" y="0" name="bottom"/>
  <anchor x="280" y="685" name="top"/>
  <outline>
    <contour>
      <point x="114" y="0" type="curve"/>
      <point x="144" y="0" type="line"/>
      <point x="196" y="130"/>
      <point x="245" y="262"/>
      <point x="281" y="363" type="curve"/>
      <point x="322" y="236"/>
      <point x="364" y="130"/>
      <point x="418" y="0" type="curve"/>
      <point x="446" y="0" type="line"/>
      <point x="477" y="217"/>
      <point x="493" y="430"/>
      <point x="508" y="693" type="curve"/>
      <point x="473" y="693" type="line"/>
      <point x="460" y="451"/>
      <point x="445" y="242"/>
      <point x="421" y="66" type="curve"/>
      <point x="379" y="180"/>
      <point x="338" y="295"/>
      <point x="296" y="409" type="curve"/>
      <point x="262" y="409" type="line"/>
      <point x="221" y="295"/>
      <point x="180" y="180"/>
      <point x="139" y="66" type="curve"/>
      <point x="119" y="244"/>
      <point x="99" y="451"/>
      <point x="88" y="693" type="curve"/>
      <point x="52" y="693" type="line"/>
      <point x="68" y="433"/>
      <point x="84" y="221"/>
    </contour>
  </outline>
</glyph>
<glyph name="Z" format="2">
  <advance width="560"/>
  <unicode hex="005A"/>
  <anchor x="287" y="0" name="bottom"/>
  <anchor x="287" y="347" name="center"/>
  <anchor x="287" y="685" name="top"/>
  <outline>
    <contour>
      <point x="62" y="0" type="line"/>
      <point x="504" y="0" type="line"/>
      <point x="504" y="31" type="line"/>
      <point x="100" y="31" type="line"/>
      <point x="185" y="202"/>
      <point x="380" y="520"/>
      <point x="494" y="661" type="curve"/>
      <point x="494" y="693" type="line"/>
      <point x="80" y="693" type="line"/>
      <point x="80" y="662" type="line"/>
      <point x="453" y="662" type="line"/>
      <point x="334" y="512"/>
      <point x="153" y="215"/>
      <point x="62" y="32" type="curve"/>
    </contour>
  </outline>
</glyph>
<glyph name="bracketleft" format="2">
  <advance width="560"/>
  <unicode hex="005B"/>
  <outline>
    <contour>
      <point x="195" y="-185" type="line"/>
      <point x="410" y="-185" type="line"/>
      <point x="410" y="-155" type="line"/>
      <point x="229" y="-155" type="line"/>
      <point x="229" y="753" type="line"/>
      <point x="410" y="753" type="line"/>
      <point x="410" y="783" type="line"/>
      <point x="195" y="783" type="line"/>
    </contour>
  </outline>
</glyph>
<glyph name="backslash" format="2">
  <advance width="560"/>
  <unicode hex="005C"/>
  <outline>
    <contour>
      <point x="430" y="-185" type="line"/>
      <point x="465" y="-185" type="line"/>
      <point x="130" y="783" type="line"/>
      <point x="95" y="783" type="line"/>
    </contour>
  </outline>
</glyph>
<glyph name="bracketright" format="2">
  <advance width="560"/>
  <unicode hex="005D"/>
  <outline>
    <contour>
      <point x="150" y="-185" type="line"/>
      <point x="365" y="-185" type="line"/>
      <point x="365" y="783" type="line"/>
      <point x="150" y="783" type="line"/>
      <point x="150" y="753" type="line"/>
      <point x="331" y="753" type="line"/>
      <point x="331" y="-155" type="line"/>
      <point x="150" y="-155" type="line"/>
    </contour>
  </outline>
</glyph>
<glyph name="asciicircum" format="2">
  <advance width="560"/>
  <unicode hex="005E"/>
  <outline>
    <contour>
      <point x="109" y="341" type="line"/>
      <point x="280" y="653" type="line"/>
      <point x="451" y="341" type="line"/>
      <point x="479" y="355" type="line"/>
      <point x="296" y="687" type="line"/>
      <point x="264" y="687" type="line"/>
      <point x="81" y="355" type="line"/>
    </contour>
  </outline>
</glyph>
<glyph name="grave" format="2">
  <advance width="560"/>
  <unicode hex="0060"/>
  <outline>
    <contour>
      <point x="335" y="587" type="line"/>
      <point x="359" y="602" type="line"/>
      <point x="236" y="778" type="line"/>
      <point x="207" y="757" type="line"/>
    </contour>
  </outline>
</glyph>
<glyph name="b" format="2">
  <advance width="560"/>
  <unicode hex="0062"/>
  <anchor x="279" y="0" name="bottom"/>
  <anchor x="279" y="291" name="center"/>
  <anchor x="279" y="582" name="top"/>
  <outline>
    <contour>
      <point x="246" y="-7" type="curve" smooth="yes"/>
      <point x="413" y="-7"/>
      <point x="507" y="94"/>
      <point x="507" y="262" type="curve" smooth="yes"/>
      <point x="507" y="427"/>
      <point x="422" y="525"/>
      <point x="281" y="525" type="curve" smooth="yes"/>
      <point x="217" y="525"/>
      <point x="159" y="502"/>
      <point x="123" y="473" type="curve"/>
      <point x="123" y="776" type="line"/>
      <point x="90" y="769" type="line"/>
      <point x="90" y="15" type="line"/>
      <point x="128" y="3"/>
      <point x="200" y="-7"/>
    </contour>
    <contour>
      <point x="248" y="23" type="curve" smooth="yes"/>
      <point x="207" y="23"/>
      <point x="158" y="28"/>
      <point x="123" y="37" type="curve"/>
      <point x="123" y="442" type="line"/>
      <point x="167" y="475"/>
      <point x="221" y="495"/>
      <point x="280" y="495" type="curve" smooth="yes"/>
      <point x="401" y="495"/>
      <point x="472" y="408"/>
      <point x="472" y="262" type="curve" smooth="yes"/>
      <point x="472" y="113"/>
      <point x="398" y="23"/>
    </contour>
  </outline>
</glyph>
<glyph name="e" format="2">
  <advance width="560"/>
  <unicode hex="0065"/>
  <anchor x="279" y="0" name="bottom"/>
  <anchor x="498" y="11" name="ogonek"/>
  <anchor x="279" y="582" name="top"/>
  <outline>
    <contour>
      <point x="321" y="-7" type="curve" smooth="yes"/>
      <point x="373" y="-7"/>
      <point x="432" y="7"/>
      <point x="460" y="24" type="curve"/>
      <point x="452" y="52" type="line"/>
      <point x="425" y="36"/>
      <point x="372" y="23"/>
      <point x="322" y="23" type="curve" smooth="yes"/>
      <point x="174" y="23"/>
      <point x="103" y="97"/>
      <point x="100" y="259" type="curve"/>
      <point x="494" y="259" type="line"/>
      <point x="495" y="271"/>
      <point x="496" y="283"/>
      <point x="496" y="294" type="curve" smooth="yes"/>
      <point x="496" y="422"/>
      <point x="431" y="525"/>
      <point x="293" y="525" type="curve" smooth="yes"/>
      <point x="142" y="525"/>
      <point x="65" y="398"/>
      <point x="65" y="268" type="curve" smooth="yes"/>
      <point x="65" y="81"/>
      <point x="147" y="-7"/>
    </contour>
    <contour>
      <point x="100" y="287" type="line"/>
      <point x="108" y="394"/>
      <point x="169" y="495"/>
      <point x="293" y="495" type="curve" smooth="yes"/>
      <point x="398" y="495"/>
      <point x="461" y="424"/>
      <point x="461" y="287" type="curve"/>
    </contour>
  </outline>
</glyph>
<glyph name="f" format="2">
  <advance width="560"/>
  <unicode hex="0066"/>
  <anchor x="279" y="0" name="bottom"/>
  <anchor x="279" y="869" name="top"/>
  <outline>
    <contour>
      <point x="210" y="0" type="line"/>
      <point x="243" y="0" type="line"/>
      <point x="243" y="485" type="line"/>
      <point x="441" y="485" type="line"/>
      <point x="441" y="513" type="line"/>
      <point x="243" y="513" type="line"/>
      <point x="243" y="580" type="line" smooth="yes"/>
      <point x="243" y="702"/>
      <point x="294" y="746"/>
      <point x="400" y="746" type="curve" smooth="yes"/>
      <point x="435" y="746"/>
      <point x="475" y="737"/>
      <point x="509" y="720" type="curve"/>
      <point x="517" y="749" type="line"/>
      <point x="489" y="763"/>
      <point x="447" y="776"/>
      <point x="400" y="776" type="curve" smooth="yes"/>
      <point x="273" y="776"/>
      <point x="210" y="715"/>
      <point x="210" y="580" type="curve" smooth="yes"/>
      <point x="210" y="513" type="line"/>
      <point x="112" y="513" type="line"/>
      <point x="112" y="485" type="line"/>
      <point x="210" y="485" type="line"/>
    </contour>
  </outline>
</glyph>
<glyph name="k" format="2">
  <advance width="560"/>
  <unicode hex="006B"/>
  <anchor x="279" y="0" name="bottom"/>
  <anchor x="279" y="869" name="top"/>
  <outline>
    <contour>
      <point x="95" y="0" type="line"/>
      <point x="128" y="0" type="line"/>
      <point x="128" y="262" type="line"/>
      <point x="245" y="212"/>
      <point x="377" y="110"/>
      <point x="472" y="0" type="curve"/>
      <point x="516" y="0" type="line"/>
      <point x="425" y="114"/>
      <point x="284" y="220"/>
      <point x="169" y="276" type="curve"/>
      <point x="291" y="349"/>
      <point x="394" y="421"/>
      <point x="498" y="513" type="curve"/>
      <point x="450" y="513" type="line"/>
      <point x="348" y="428"/>
      <point x="269" y="372"/>
      <point x="128" y="279" type="curve"/>
      <point x="128" y="775" type="line"/>
      <point x="95" y="768" type="line"/>
    </contour>
  </outline>
</glyph>
<glyph name="o" format="2">
  <advance width="560"/>
  <unicode hex="006F"/>
  <anchor x="279" y="0" name="bottom"/>
  <anchor x="279" y="291" name="center"/>
  <anchor x="499" y="11" name="ogonek"/>
  <anchor x="279" y="582" name="top"/>
  <anchor x="532" y="582" name="topright"/>
  <outline>
    <contour>
      <point x="280" y="-7" type="curve" smooth="yes"/>
      <point x="408" y="-7"/>
      <point x="495" y="101"/>
      <point x="495" y="259" type="curve" smooth="yes"/>
      <point x="495" y="417"/>
      <point x="408" y="525"/>
      <point x="280" y="525" type="curve" smooth="yes"/>
      <point x="152" y="525"/>
      <point x="65" y="417"/>
      <point x="65" y="259" type="curve" smooth="yes"/>
      <point x="65" y="101"/>
      <point x="152" y="-7"/>
    </contour>
    <contour>
      <point x="280" y="23" type="curve" smooth="yes"/>
      <point x="170" y="23"/>
      <point x="100" y="117"/>
      <point x="100" y="259" type="curve" smooth="yes"/>
      <point x="100" y="401"/>
      <point x="170" y="495"/>
      <point x="280" y="495" type="curve" smooth="yes"/>
      <point x="388" y="495"/>
      <point x="460" y="402"/>
      <point x="460" y="259" type="curve" smooth="yes"/>
      <point x="460" y="116"/>
      <point x="388" y="23"/>
    </contour>
  </outline>
</glyph>
<glyph name="p" format="2">
  <advance width="560"/>
  <unicode hex="0070"/>
  <anchor x="279" y="0" name="bottom"/>
  <anchor x="279" y="582" name="top"/>
  <outline>
    <contour>
      <point x="90" y="-185" type="line"/>
      <point x="123" y="-185" type="line"/>
      <point x="123" y="42" type="line"/>
      <point x="159" y="13"/>
      <point x="217" y="-10"/>
      <point x="281" y="-10" type="curve" smooth="yes"/>
      <point x="418" y="-10"/>
      <point x="507" y="88"/>
      <point x="507" y="253" type="curve" smooth="yes"/>
      <point x="507" y="421"/>
      <point x="413" y="522"/>
      <point x="246" y="522" type="curve" smooth="yes"/>
      <point x="200" y="522"/>
      <point x="130" y="510"/>
      <point x="90" y="496" type="curve"/>
    </contour>
    <contour>
      <point x="280" y="20" type="curve" smooth="yes"/>
      <point x="221" y="20"/>
      <point x="167" y="40"/>
      <point x="123" y="73" type="curve"/>
      <point x="123" y="474" type="line"/>
      <point x="158" y="486"/>
      <point x="207" y="492"/>
      <point x="248" y="492" type="curve" smooth="yes"/>
      <point x="398" y="492"/>
      <point x="472" y="402"/>
      <point x="472" y="253" type="curve" smooth="yes"/>
      <point x="472" y="107"/>
      <point x="401" y="20"/>
    </contour>
  </outline>
</glyph>
<glyph name="q" format="2">
  <advance width="560"/>
  <unicode hex="0071"/>
  <anchor x="279" y="0" name="bottom"/>
  <anchor x="279" y="582" name="top"/>
  <outline>
    <contour>
      <point x="437" y="-185" type="line"/>
      <point x="470" y="-185" type="line"/>
      <point x="470" y="496" type="line"/>
      <point x="430" y="510"/>
      <point x="360" y="522"/>
      <point x="314" y="522" type="curve" smooth="yes"/>
      <point x="147" y="522"/>
      <point x="53" y="421"/>
      <point x="53" y="253" type="curve" smooth="yes"/>
      <point x="53" y="88"/>
      <point x="142" y="-10"/>
      <point x="279" y="-10" type="curve" smooth="yes"/>
      <point x="343" y="-10"/>
      <point x="401" y="13"/>
      <point x="437" y="42" type="curve"/>
    </contour>
    <contour>
      <point x="280" y="20" type="curve" smooth="yes"/>
      <point x="159" y="20"/>
      <point x="88" y="107"/>
      <point x="88" y="253" type="curve" smooth="yes"/>
      <point x="88" y="402"/>
      <point x="162" y="492"/>
      <point x="312" y="492" type="curve" smooth="yes"/>
      <point x="353" y="492"/>
      <point x="402" y="486"/>
      <point x="437" y="474" type="curve"/>
      <point x="437" y="73" type="line"/>
      <point x="393" y="40"/>
      <point x="339" y="20"/>
    </contour>
  </outline>
</glyph>
<glyph name="s" format="2">
  <advance width="560"/>
  <unicode hex="0073"/>
  <anchor x="279" y="0" name="bottom"/>
  <anchor x="279" y="582" name="top"/>
  <outline>
    <contour>
      <point x="264" y="-7" type="curve" smooth="yes"/>
      <point x="397" y="-7"/>
      <point x="473" y="43"/>
      <point x="473" y="131" type="curve" smooth="yes"/>
      <point x="473" y="199"/>
      <point x="427" y="228"/>
      <point x="293" y="280" type="curve" smooth="yes"/>
      <point x="159" y="332"/>
      <point x="136" y="345"/>
      <point x="136" y="398" type="curve" smooth="yes"/>
      <point x="136" y="458"/>
      <point x="197" y="495"/>
      <point x="293" y="495" type="curve" smooth="yes"/>
      <point x="347" y="495"/>
      <point x="407" y="486"/>
      <point x="441" y="471" type="curve"/>
      <point x="449" y="499" type="line"/>
      <point x="419" y="515"/>
      <point x="351" y="525"/>
      <point x="293" y="525" type="curve" smooth="yes"/>
      <point x="176" y="525"/>
      <point x="101" y="474"/>
      <point x="101" y="394" type="curve" smooth="yes"/>
      <point x="101" y="327"/>
      <point x="139" y="302"/>
      <point x="270" y="252" type="curve" smooth="yes"/>
      <point x="401" y="202"/>
      <point x="438" y="185"/>
      <point x="438" y="127" type="curve" smooth="yes"/>
      <point x="438" y="62"/>
      <point x="378" y="23"/>
      <point x="274" y="23" type="curve" smooth="yes"/>
      <point x="206" y="23"/>
      <point x="153" y="32"/>
      <point x="100" y="52" type="curve"/>
      <point x="90" y="22" type="line"/>
      <point x="130" y="5"/>
      <point x="209" y="-7"/>
    </contour>
  </outline>
</glyph>
<glyph name="t" format="2">
  <advance width="560"/>
  <unicode hex="0074"/>
  <anchor x="279" y="0" name="bottom"/>
  <anchor x="279" y="291" name="center"/>
  <anchor x="279" y="582" name="top"/>
  <anchor x="532" y="869" name="topright"/>
  <outline>
    <contour>
      <point x="369" y="-10" type="curve" smooth="yes"/>
      <point x="410" y="-10"/>
      <point x="447" y="2"/>
      <point x="471" y="13" type="curve"/>
      <point x="463" y="41" type="line"/>
      <point x="434" y="27"/>
      <point x="399" y="20"/>
      <point x="369" y="20" type="curve" smooth="yes"/>
      <point x="280" y="20"/>
      <point x="237" y="59"/>
      <point x="237" y="181" type="curve" smooth="yes"/>
      <point x="237" y="485" type="line"/>
      <point x="452" y="485" type="line"/>
      <point x="452" y="513" type="line"/>
      <point x="237" y="513" type="line"/>
      <point x="237" y="681" type="line"/>
      <point x="204" y="674" type="line"/>
      <point x="204" y="513" type="line"/>
      <point x="85" y="513" type="line"/>
      <point x="85" y="485" type="line"/>
      <point x="204" y="485" type="line"/>
      <point x="204" y="181" type="line" smooth="yes"/>
      <point x="204" y="45"/>
      <point x="259" y="-10"/>
    </contour>
  </outline>
</glyph>
<glyph name="u" format="2">
  <advance width="560"/>
  <unicode hex="0075"/>
  <anchor x="280" y="0" name="bottom"/>
  <anchor x="499" y="11" name="ogonek"/>
  <anchor x="280" y="582" name="top"/>
  <anchor x="532" y="582" name="topright"/>
  <outline>
    <contour>
      <point x="296" y="-9" type="curve" smooth="yes"/>
      <point x="347" y="-9"/>
      <point x="400" y="-1"/>
      <point x="465" y="20" type="curve"/>
      <point x="465" y="513" type="line"/>
      <point x="432" y="513" type="line"/>
      <point x="432" y="41" type="line"/>
      <point x="387" y="28"/>
      <point x="334" y="21"/>
      <point x="295" y="21" type="curve" smooth="yes"/>
      <point x="187" y="21"/>
      <point x="126" y="67"/>
      <point x="126" y="213" type="curve" smooth="yes"/>
      <point x="126" y="513" type="line"/>
      <point x="93" y="513" type="line"/>
      <point x="93" y="198" type="line" smooth="yes"/>
      <point x="93" y="46"/>
      <point x="171" y="-9"/>
    </contour>
  </outline>
</glyph>
<glyph name="v" format="2">
  <advance width="560"/>
  <unicode hex="0076"/>
  <anchor x="280" y="0" name="bottom"/>
  <anchor x="280" y="582" name="top"/>
  <outline>
    <contour>
      <point x="265" y="0" type="curve"/>
      <point x="299" y="0" type="line"/>
      <point x="368" y="110"/>
      <point x="461" y="345"/>
      <point x="501" y="513" type="curve"/>
      <point x="467" y="513" type="line"/>
      <point x="430" y="372"/>
      <point x="353" y="148"/>
      <point x="283" y="33" type="curve"/>
      <point x="210" y="164"/>
      <point x="132" y="356"/>
      <point x="93" y="513" type="curve"/>
      <point x="59" y="513" type="line"/>
      <point x="103" y="338"/>
      <point x="183" y="140"/>
    </contour>
  </outline>
</glyph>
<glyph name="w" format="2">
  <advance width="560"/>
  <unicode hex="0077"/>
  <anchor x="279" y="0" name="bottom"/>
  <anchor x="279" y="582" name="top"/>
  <outline>
    <contour>
      <point x="119" y="0" type="curve"/>
      <point x="149" y="0" type="line"/>
      <point x="201" y="107"/>
      <point x="251" y="223"/>
      <point x="282" y="319" type="curve"/>
      <point x="314" y="222"/>
      <point x="361" y="106"/>
      <point x="411" y="0" type="curve"/>
      <point x="441" y="0" type="line"/>
      <point x="480" y="170"/>
      <point x="504" y="323"/>
      <point x="523" y="513" type="curve"/>
      <point x="489" y="513" type="line"/>
      <point x="474" y="358"/>
      <point x="444" y="163"/>
      <point x="420" y="52" type="curve"/>
      <point x="375" y="150"/>
      <point x="328" y="268"/>
      <point x="297" y="375" type="curve"/>
      <point x="269" y="375" type="line"/>
      <point x="237" y="269"/>
      <point x="191" y="153"/>
      <point x="143" y="49" type="curve"/>
      <point x="116" y="173"/>
      <point x="85" y="371"/>
      <point x="71" y="513" type="curve"/>
      <point x="37" y="513" type="line"/>
      <point x="57" y="328"/>
      <point x="81" y="179"/>
    </contour>
  </outline>
</glyph>
<glyph name="x" format="2">
  <advance width="560"/>
  <unicode hex="0078"/>
  <anchor x="287" y="0" name="bottom"/>
  <anchor x="287" y="582" name="top"/>
  <outline>
    <contour>
      <point x="52" y="0" type="curve"/>
      <point x="90" y="0" type="line"/>
      <point x="121" y="49"/>
      <point x="171" y="123"/>
      <point x="278" y="259" type="curve"/>
      <point x="386" y="123"/>
      <point x="435" y="56"/>
      <point x="471" y="0" type="curve"/>
      <point x="509" y="0" type="line"/>
      <point x="475" y="54"/>
      <point x="420" y="127"/>
      <point x="296" y="282" type="curve"/>
      <point x="483" y="513" type="line"/>
      <point x="443" y="513" type="line"/>
      <point x="277" y="306" type="line"/>
      <point x="110" y="513" type="line"/>
      <point x="71" y="513" type="line"/>
      <point x="258" y="283" type="line"/>
      <point x="143" y="136"/>
      <point x="96" y="71"/>
    </contour>
  </outline>
</glyph>
<glyph name="z" format="2">
  <advance width="560"/>
  <unicode hex="007A"/>
  <anchor x="280" y="0" name="bottom"/>
  <anchor x="280" y="291" name="center"/>
  <anchor x="280" y="582" name="top"/>
  <outline>
    <contour>
      <point x="96" y="0" type="line"/>
      <point x="466" y="0" type="line"/>
      <point x="466" y="28" type="line"/>
      <point x="133" y="28" type="line"/>
      <point x="218" y="183"/>
      <point x="385" y="403"/>
      <point x="462" y="487" type="curve"/>
      <point x="462" y="513" type="line"/>
      <point x="112" y="513" type="line"/>
      <point x="112" y="485" type="line"/>
      <point x="419" y="485" type="line"/>
      <point x="335" y="389"/>
      <point x="170" y="165"/>
      <point x="96" y="26" type="curve"/>
    </contour>
  </outline>
</glyph>
<glyph name="braceleft" format="2">
  <advance width="560"/>
  <unicode hex="007B"/>
  <outline>
    <contour>
      <point x="373" y="-185" type="curve" smooth="yes"/>
      <point x="455" y="-185" type="line"/>
      <point x="455" y="-155" type="line"/>
      <point x="374" y="-155" type="line"/>
      <point x="295" y="-152"/>
      <point x="270" y="-124"/>
      <point x="270" y="-42" type="curve" smooth="yes"/>
      <point x="270" y="151" type="line" smooth="yes"/>
      <point x="270" y="254"/>
      <point x="238" y="278"/>
      <point x="195" y="299" type="curve"/>
      <point x="240" y="318"/>
      <point x="270" y="351"/>
      <point x="270" y="449" type="curve" smooth="yes"/>
      <point x="270" y="639" type="line" smooth="yes"/>
      <point x="270" y="721"/>
      <point x="295" y="749"/>
      <point x="371" y="753" type="curve"/>
      <point x="455" y="753" type="line"/>
      <point x="455" y="783" type="line"/>
      <point x="373" y="783" type="line" smooth="yes"/>
      <point x="275" y="783"/>
      <point x="236" y="736"/>
      <point x="236" y="620" type="curve" smooth="yes"/>
      <point x="236" y="412" type="line" smooth="yes"/>
      <point x="236" y="363"/>
      <point x="203" y="313"/>
      <point x="136" y="313" type="curve"/>
      <point x="105" y="313" type="line"/>
      <point x="105" y="285" type="line"/>
      <point x="136" y="285" type="line"/>
      <point x="203" y="285"/>
      <point x="236" y="235"/>
      <point x="236" y="186" type="curve" smooth="yes"/>
      <point x="236" y="-23" type="line" smooth="yes"/>
      <point x="236" y="-139"/>
      <point x="275" y="-185"/>
    </contour>
  </outline>
</glyph>
<glyph name="asciitilde" format="2">
  <advance width="560"/>
  <unicode hex="007E"/>
  <outline>
    <contour>
      <point x="384" y="231" type="curve" smooth="yes"/>
      <point x="448" y="231"/>
      <point x="484" y="263"/>
      <point x="503" y="340" type="curve"/>
      <point x="472" y="348" type="line"/>
      <point x="457" y="287"/>
      <point x="433" y="261"/>
      <point x="392" y="261" type="curve" smooth="yes"/>
      <point x="357" y="261"/>
      <point x="325" y="283"/>
      <point x="291" y="306" type="curve" smooth="yes"/>
      <point x="255" y="330"/>
      <point x="217" y="355"/>
      <point x="173" y="355" type="curve" smooth="yes"/>
      <point x="112" y="355"/>
      <point x="78" y="323"/>
      <point x="57" y="246" type="curve"/>
      <point x="88" y="238" type="line"/>
      <point x="111" y="306"/>
      <point x="128" y="325"/>
      <point x="173" y="325" type="curve" smooth="yes"/>
      <point x="209" y="325"/>
      <point x="237" y="301"/>
      <point x="271" y="279" type="curve" smooth="yes"/>
      <point x="305" y="257"/>
      <point x="339" y="231"/>
    </contour>
  </outline>
</glyph>
<glyph name="cent" format="2">
  <advance width="560"/>
  <unicode hex="00A2"/>
  <outline>
    <contour>
      <point x="303" y="-109" type="line"/>
      <point x="336" y="-109" type="line"/>
      <point x="336" y="31" type="line"/>
      <point x="385" y="31"/>
      <point x="445" y="43"/>
      <point x="480" y="58" type="curve"/>
      <point x="472" y="89" type="line"/>
      <point x="433" y="73"/>
      <point x="380" y="63"/>
      <point x="336" y="63" type="curve" smooth="yes"/>
      <point x="186" y="63"/>
      <point x="106" y="139"/>
      <point x="106" y="286" type="curve" smooth="yes"/>
      <point x="106" y="435"/>
      <point x="186" y="519"/>
      <point x="331" y="519" type="curve" smooth="yes"/>
      <point x="382" y="519"/>
      <point x="429" y="511"/>
      <point x="461" y="496" type="curve"/>
      <point x="471" y="527" type="line"/>
      <point x="438" y="542"/>
      <point x="396" y="550"/>
      <point x="336" y="551" type="curve"/>
      <point x="336" y="693" type="line"/>
      <point x="303" y="693" type="line"/>
      <point x="303" y="549" type="line"/>
      <point x="156" y="537"/>
      <point x="70" y="439"/>
      <point x="70" y="286" type="curve" smooth="yes"/>
      <point x="70" y="135"/>
      <point x="153" y="45"/>
      <point x="303" y="32" type="curve"/>
    </contour>
  </outline>
</glyph>
<glyph name="currency" format="2">
  <advance width="560"/>
  <unicode hex="00A4"/>
  <outline>
    <contour>
      <point x="89" y="121" type="line"/>
      <point x="166" y="201" type="line"/>
      <point x="197" y="176"/>
      <point x="236" y="161"/>
      <point x="281" y="161" type="curve" smooth="yes"/>
      <point x="325" y="161"/>
      <point x="365" y="176"/>
      <point x="396" y="201" type="curve"/>
      <point x="473" y="121" type="line"/>
      <point x="495" y="144" type="line"/>
      <point x="418" y="223" type="line"/>
      <point x="447" y="256"/>
      <point x="462" y="297"/>
      <point x="462" y="346" type="curve" smooth="yes"/>
      <point x="462" y="394"/>
      <point x="445" y="437"/>
      <point x="418" y="469" type="curve"/>
      <point x="495" y="549" type="line"/>
      <point x="473" y="572" type="line"/>
      <point x="396" y="491" type="line"/>
      <point x="365" y="518"/>
      <point x="325" y="532"/>
      <point x="281" y="532" type="curve" smooth="yes"/>
      <point x="236" y="532"/>
      <point x="197" y="518"/>
      <point x="166" y="491" type="curve"/>
      <point x="89" y="572" type="line"/>
      <point x="67" y="549" type="line"/>
      <point x="144" y="469" type="line"/>
      <point x="117" y="436"/>
      <point x="101" y="394"/>
      <point x="101" y="346" type="curve" smooth="yes"/>
      <point x="101" y="298"/>
      <point x="117" y="255"/>
      <point x="144" y="223" type="curve"/>
      <point x="67" y="144" type="line"/>
    </contour>
    <contour>
      <point x="281" y="193" type="curve" smooth="yes"/>
      <point x="199" y="193"/>
      <point x="137" y="259"/>
      <point x="137" y="346" type="curve" smooth="yes"/>
      <point x="137" y="435"/>
      <point x="201" y="500"/>
      <point x="281" y="500" type="curve" smooth="yes"/>
      <point x="362" y="500"/>
      <point x="426" y="435"/>
      <point x="426" y="346" type="curve" smooth="yes"/>
      <point x="426" y="258"/>
      <point x="362" y="193"/>
    </contour>
  </outline>
</glyph>
<glyph name="yen" format="2">
  <advance width="560"/>
  <unicode hex="00A5"/>
  <outline>
    <contour>
      <point x="264" y="0" type="line"/>
      <point x="296" y="0" type="line"/>
      <point x="296" y="93" type="line"/>
      <point x="467" y="93" type="line"/>
      <point x="467" y="134" type="line"/>
      <point x="296" y="134" type="line"/>
      <point x="296" y="278" type="line"/>
      <point x="467" y="278" type="line"/>
      <point x="467" y="322" type="line"/>
      <point x="295" y="322" type="line"/>
      <point x="380" y="454"/>
      <point x="449" y="552"/>
      <point x="541" y="693" type="curve"/>
      <point x="491" y="693" type="line"/>
      <point x="416" y="573"/>
      <point x="348" y="461"/>
      <point x="283" y="379" type="curve"/>
      <point x="217" y="456"/>
      <point x="131" y="577"/>
      <point x="62" y="693" type="curve"/>
      <point x="20" y="693" type="line"/>
      <point x="107" y="560"/>
      <point x="165" y="458"/>
      <point x="256" y="322" type="curve"/>
      <point x="94" y="322" type="line"/>
      <point x="94" y="278" type="line"/>
      <point x="264" y="278" type="line"/>
      <point x="264" y="134" type="line"/>
      <point x="94" y="134" type="line"/>
      <point x="94" y="93" type="line"/>
      <point x="264" y="93" type="line"/>
    </contour>
  </outline>
</glyph>
<glyph name="brokenbar" format="2">
  <advance width="560"/>
  <unicode hex="00A6"/>
  <outline>
    <contour>
      <point x="263" y="418" type="line"/>
      <point x="297" y="418" type="line"/>
      <point x="297" y="783" type="line"/>
      <point x="263" y="783" type="line"/>
    </contour>
    <contour>
      <point x="263" y="-185" type="line"/>
      <point x="297" y="-185" type="line"/>
      <point x="297" y="181" type="line"/>
      <point x="263" y="181" type="line"/>
    </contour>
  </outline>
</glyph>
<glyph name="section" format="2">
  <advance width="560"/>
  <unicode hex="00A7"/>
  <outline>
    <contour>
      <point x="252" y="-109" type="curve" smooth="yes"/>
      <point x="365" y="-109"/>
      <point x="431" y="-58"/>
      <point x="431" y="30" type="curve" smooth="yes"/>
      <point x="431" y="81"/>
      <point x="407" y="117"/>
      <point x="350" y="148" type="curve"/>
      <point x="422" y="179"/>
      <point x="462" y="235"/>
      <point x="462" y="300" type="curve" smooth="yes"/>
      <point x="462" y="382"/>
      <point x="421" y="420"/>
      <point x="291" y="462" type="curve" smooth="yes"/>
      <point x="199" y="491"/>
      <point x="167" y="525"/>
      <point x="167" y="573" type="curve" smooth="yes"/>
      <point x="167" y="640"/>
      <point x="212" y="674"/>
      <point x="302" y="674" type="curve" smooth="yes"/>
      <point x="347" y="674"/>
      <point x="394" y="666"/>
      <point x="430" y="651" type="curve"/>
      <point x="440" y="681" type="line"/>
      <point x="396" y="697"/>
      <point x="346" y="706"/>
      <point x="301" y="706" type="curve" smooth="yes"/>
      <point x="193" y="706"/>
      <point x="132" y="658"/>
      <point x="132" y="571" type="curve" smooth="yes"/>
      <point x="132" y="523"/>
      <point x="150" y="488"/>
      <point x="205" y="460" type="curve"/>
      <point x="132" y="427"/>
      <point x="91" y="373"/>
      <point x="91" y="309" type="curve" smooth="yes"/>
      <point x="91" y="230"/>
      <point x="132" y="196"/>
      <point x="258" y="151" type="curve" smooth="yes"/>
      <point x="360" y="116"/>
      <point x="396" y="83"/>
      <point x="396" y="28" type="curve" smooth="yes"/>
      <point x="396" y="-41"/>
      <point x="346" y="-77"/>
      <point x="252" y="-77" type="curve" smooth="yes"/>
      <point x="205" y="-77"/>
      <point x="150" y="-65"/>
      <point x="113" y="-48" type="curve"/>
      <point x="102" y="-78" type="line"/>
      <point x="141" y="-97"/>
      <point x="201" y="-109"/>
    </contour>
    <contour>
      <point x="319" y="163" type="curve"/>
      <point x="304" y="170"/>
      <point x="286" y="177"/>
      <point x="271" y="182" type="curve" smooth="yes"/>
      <point x="169" y="217"/>
      <point x="126" y="247"/>
      <point x="126" y="308" type="curve" smooth="yes"/>
      <point x="126" y="367"/>
      <point x="169" y="421"/>
      <point x="237" y="445" type="curve"/>
      <point x="246" y="440"/>
      <point x="259" y="436"/>
      <point x="274" y="432" type="curve" smooth="yes"/>
      <point x="392" y="394"/>
      <point x="427" y="360"/>
      <point x="427" y="299" type="curve" smooth="yes"/>
      <point x="427" y="240"/>
      <point x="384" y="190"/>
    </contour>
  </outline>
</glyph>
<glyph name="dieresis" format="2">
  <advance width="560"/>
  <unicode hex="00A8"/>
  <outline>
    <contour>
      <point x="351" y="633" type="curve" smooth="yes"/>
      <point x="370" y="633"/>
      <point x="384" y="654"/>
      <point x="384" y="671" type="curve" smooth="yes"/>
      <point x="384" y="691"/>
      <point x="370" y="709"/>
      <point x="351" y="709" type="curve" smooth="yes"/>
      <point x="333" y="709"/>
      <point x="316" y="692"/>
      <point x="316" y="671" type="curve" smooth="yes"/>
      <point x="316" y="654"/>
      <point x="333" y="633"/>
    </contour>
    <contour>
      <point x="206" y="633" type="curve" smooth="yes"/>
      <point x="224" y="633"/>
      <point x="238" y="655"/>
      <point x="238" y="671" type="curve" smooth="yes"/>
      <point x="238" y="692"/>
      <point x="223" y="709"/>
      <point x="206" y="709" type="curve" smooth="yes"/>
      <point x="189" y="709"/>
      <point x="171" y="691"/>
      <point x="171" y="671" type="curve" smooth="yes"/>
      <point x="171" y="654"/>
      <point x="189" y="633"/>
    </contour>
  </outline>
</glyph>
<glyph name="copyright" format="2">
  <advance width="560"/>
  <unicode hex="00A9"/>
  <outline>
    <contour>
      <point x="280" y="-11" type="curve" smooth="yes"/>
      <point x="412" y="-11"/>
      <point x="517" y="97"/>
      <point x="517" y="261" type="curve" smooth="yes"/>
      <point x="517" y="424"/>
      <point x="413" y="532"/>
      <point x="280" y="532" type="curve" smooth="yes"/>
      <point x="148" y="532"/>
      <point x="43" y="424"/>
      <point x="43" y="260" type="curve" smooth="yes"/>
      <point x="43" y="97"/>
      <point x="147" y="-11"/>
    </contour>
    <contour>
      <point x="283" y="110" type="curve" smooth="yes"/>
      <point x="312" y="110"/>
      <point x="343" y="118"/>
      <point x="367" y="132" type="curve"/>
      <point x="356" y="162" type="line"/>
      <point x="337" y="151"/>
      <point x="316" y="144"/>
      <point x="290" y="144" type="curve" smooth="yes"/>
      <point x="229" y="144"/>
      <point x="192" y="189"/>
      <point x="192" y="262" type="curve" smooth="yes"/>
      <point x="192" y="326"/>
      <point x="228" y="377"/>
      <point x="289" y="377" type="curve" smooth="yes"/>
      <point x="311" y="377"/>
      <point x="334" y="371"/>
      <point x="353" y="359" type="curve"/>
      <point x="365" y="389" type="line"/>
      <point x="342" y="403"/>
      <point x="315" y="410"/>
      <point x="286" y="410" type="curve" smooth="yes"/>
      <point x="208" y="410"/>
      <point x="158" y="342"/>
      <point x="158" y="261" type="curve" smooth="yes"/>
      <point x="158" y="176"/>
      <point x="204" y="110"/>
    </contour>
    <contour>
      <point x="280" y="18" type="curve" smooth="yes"/>
      <point x="162" y="18"/>
      <point x="75" y="115"/>
      <point x="75" y="260" type="curve" smooth="yes"/>
      <point x="75" y="404"/>
      <point x="161" y="502"/>
      <point x="280" y="502" type="curve" smooth="yes"/>
      <point x="397" y="502"/>
      <point x="485" y="407"/>
      <point x="485" y="260" type="curve" smooth="yes"/>
      <point x="485" y="116"/>
      <point x="399" y="18"/>
    </contour>
  </outline>
</glyph>
<glyph name="ordfeminine" format="2">
  <advance width="560"/>
  <unicode hex="00AA"/>
  <outline>
    <contour>
      <point x="296" y="335" type="curve" smooth="yes"/>
      <point x="324" y="335"/>
      <point x="376" y="341"/>
      <point x="404" y="348" type="curve"/>
      <point x="404" y="568" type="line" smooth="yes"/>
      <point x="404" y="663"/>
      <point x="367" y="701"/>
      <point x="278" y="701" type="curve" smooth="yes"/>
      <point x="254" y="701"/>
      <point x="218" y="699"/>
      <point x="191" y="688" type="curve"/>
      <point x="194" y="662" type="line"/>
      <point x="222" y="670"/>
      <point x="247" y="673"/>
      <point x="274" y="673" type="curve" smooth="yes"/>
      <point x="342" y="673"/>
      <point x="372" y="647"/>
      <point x="372" y="580" type="curve" smooth="yes"/>
      <point x="372" y="539" type="line"/>
      <point x="348" y="546"/>
      <point x="316" y="549"/>
      <point x="291" y="549" type="curve" smooth="yes"/>
      <point x="199" y="549"/>
      <point x="151" y="512"/>
      <point x="151" y="443" type="curve" smooth="yes"/>
      <point x="151" y="367"/>
      <point x="193" y="335"/>
    </contour>
    <contour>
      <point x="286" y="363" type="curve" smooth="yes"/>
      <point x="217" y="363"/>
      <point x="183" y="390"/>
      <point x="183" y="443" type="curve" smooth="yes"/>
      <point x="183" y="495"/>
      <point x="217" y="521"/>
      <point x="296" y="521" type="curve" smooth="yes"/>
      <point x="313" y="521"/>
      <point x="328" y="520"/>
      <point x="372" y="513" type="curve"/>
      <point x="372" y="369" type="line"/>
      <point x="348" y="366"/>
      <point x="314" y="363"/>
    </contour>
  </outline>
</glyph>
<glyph name="guillemotleft" format="2">
  <advance width="560"/>
  <unicode hex="00AB"/>
  <outline>
    <contour>
      <point x="191" y="134" type="line"/>
      <point x="229" y="153" type="line"/>
      <point x="160" y="281" type="line"/>
      <point x="238" y="422" type="line"/>
      <point x="200" y="438" type="line"/>
      <point x="94" y="281" type="line"/>
    </contour>
    <contour>
      <point x="363" y="134" type="line"/>
      <point x="398" y="153" type="line"/>
      <point x="330" y="281" type="line"/>
      <point x="406" y="422" type="line"/>
      <point x="370" y="438" type="line"/>
      <point x="258" y="281" type="line"/>
    </contour>
  </outline>
</glyph>
<glyph name="logicalnot" format="2">
  <advance width="560"/>
  <unicode hex="00AC"/>
  <outline>
    <contour>
      <point x="469" y="49" type="line"/>
      <point x="502" y="49" type="line"/>
      <point x="502" y="367" type="line"/>
      <point x="45" y="367" type="line"/>
      <point x="45" y="332" type="line"/>
      <point x="469" y="332" type="line"/>
    </contour>
  </outline>
</glyph>
<glyph name="registered" format="2">
  <advance width="560"/>
  <unicode hex="00AE"/>
  <outline>
    <contour>
      <point x="281" y="268" type="curve" smooth="yes"/>
      <point x="410" y="268"/>
      <point x="509" y="365"/>
      <point x="509" y="507" type="curve" smooth="yes"/>
      <point x="509" y="650"/>
      <point x="410" y="748"/>
      <point x="281" y="748" type="curve" smooth="yes"/>
      <point x="152" y="748"/>
      <point x="52" y="651"/>
      <point x="52" y="507" type="curve" smooth="yes"/>
      <point x="52" y="364"/>
      <point x="152" y="268"/>
    </contour>
    <contour>
      <point x="281" y="293" type="curve" smooth="yes"/>
      <point x="162" y="293"/>
      <point x="80" y="381"/>
      <point x="80" y="507" type="curve" smooth="yes"/>
      <point x="80" y="634"/>
      <point x="162" y="722"/>
      <point x="281" y="722" type="curve" smooth="yes"/>
      <point x="397" y="722"/>
      <point x="481" y="635"/>
      <point x="481" y="507" type="curve" smooth="yes"/>
      <point x="481" y="382"/>
      <point x="399" y="293"/>
    </contour>
    <contour>
      <point x="194" y="380" type="line"/>
      <point x="223" y="380" type="line"/>
      <point x="223" y="485" type="line"/>
      <point x="278" y="485" type="line"/>
      <point x="282" y="485"/>
      <point x="287" y="485"/>
      <point x="292" y="486" type="curve"/>
      <point x="310" y="462"/>
      <point x="332" y="430"/>
      <point x="360" y="380" type="curve"/>
      <point x="392" y="380" type="line"/>
      <point x="368" y="424"/>
      <point x="349" y="454"/>
      <point x="320" y="491" type="curve"/>
      <point x="356" y="503"/>
      <point x="374" y="530"/>
      <point x="374" y="561" type="curve" smooth="yes"/>
      <point x="374" y="615"/>
      <point x="335" y="641"/>
      <point x="261" y="641" type="curve" smooth="yes"/>
      <point x="238" y="641"/>
      <point x="212" y="639"/>
      <point x="194" y="636" type="curve"/>
    </contour>
    <contour>
      <point x="223" y="510" type="line"/>
      <point x="223" y="614" type="line"/>
      <point x="231" y="615"/>
      <point x="242" y="616"/>
      <point x="260" y="616" type="curve" smooth="yes"/>
      <point x="311" y="616"/>
      <point x="344" y="598"/>
      <point x="344" y="562" type="curve" smooth="yes"/>
      <point x="344" y="525"/>
      <point x="313" y="510"/>
      <point x="273" y="510" type="curve" smooth="yes"/>
    </contour>
  </outline>
</glyph>
<glyph name="macron" format="2">
  <advance width="560"/>
  <unicode hex="00AF"/>
  <outline>
    <contour>
      <point x="158" y="663" type="line"/>
      <point x="402" y="663" type="line"/>
      <point x="402" y="694" type="line"/>
      <point x="158" y="694" type="line"/>
    </contour>
  </outline>
</glyph>
<glyph name="degree" format="2">
  <advance width="560"/>
  <unicode hex="00B0"/>
  <outline>
    <contour>
      <point x="276" y="532" type="curve" smooth="yes"/>
      <point x="328" y="532"/>
      <point x="387" y="578"/>
      <point x="387" y="651" type="curve" smooth="yes"/>
      <point x="387" y="727"/>
      <point x="328" y="768"/>
      <point x="276" y="768" type="curve" smooth="yes"/>
      <point x="227" y="768"/>
      <point x="166" y="727"/>
      <point x="166" y="651" type="curve" smooth="yes"/>
      <point x="166" y="577"/>
      <point x="231" y="532"/>
    </contour>
    <contour>
      <point x="276" y="556" type="curve" smooth="yes"/>
      <point x="231" y="556"/>
      <point x="191" y="595"/>
      <point x="191" y="650" type="curve" smooth="yes"/>
      <point x="191" y="704"/>
      <point x="229" y="746"/>
      <point x="276" y="746" type="curve" smooth="yes"/>
      <point x="322" y="746"/>
      <point x="363" y="704"/>
      <point x="363" y="650" type="curve" smooth="yes"/>
      <point x="363" y="595"/>
      <point x="322" y="556"/>
    </contour>
  </outline>
</glyph>
<glyph name="plusminus" format="2">
  <advance width="560"/>
  <unicode hex="00B1"/>
  <outline>
    <contour>
      <point x="263" y="128" type="line"/>
      <point x="297" y="128" type="line"/>
      <point x="297" y="358" type="line"/>
      <point x="503" y="358" type="line"/>
      <point x="503" y="388" type="line"/>
      <point x="297" y="388" type="line"/>
      <point x="297" y="618" type="line"/>
      <point x="263" y="618" type="line"/>
      <point x="263" y="388" type="line"/>
      <point x="57" y="388" type="line"/>
      <point x="57" y="358" type="line"/>
      <point x="263" y="358" type="line"/>
    </contour>
    <contour>
      <point x="57" y="15" type="line"/>
      <point x="503" y="15" type="line"/>
      <point x="503" y="45" type="line"/>
      <point x="57" y="45" type="line"/>
    </contour>
  </outline>
</glyph>
<glyph name="twosuperior" format="2">
  <advance width="560"/>
  <unicode hex="00B2"/>
  <outline>
    <contour>
      <point x="170" y="332" type="curve"/>
      <point x="405" y="332" type="line"/>
      <point x="405" y="362" type="line"/>
      <point x="185" y="362" type="line"/>
      <point x="175" y="373"/>
      <point x="199" y="393"/>
      <point x="223" y="414" type="curve" smooth="yes"/>
      <point x="324" y="503"/>
      <point x="381" y="564"/>
      <point x="381" y="614" type="curve" smooth="yes"/>
      <point x="381" y="682"/>
      <point x="335" y="709"/>
      <point x="261" y="709" type="curve" smooth="yes"/>
      <point x="204" y="709"/>
      <point x="165" y="681"/>
      <point x="157" y="664" type="curve"/>
      <point x="173" y="653" type="line"/>
      <point x="177" y="652"/>
      <point x="214" y="693"/>
      <point x="266" y="693" type="curve" smooth="yes"/>
      <point x="323" y="693"/>
      <point x="360" y="677"/>
      <point x="360" y="622" type="curve" smooth="yes"/>
      <point x="360" y="582"/>
      <point x="327" y="541"/>
      <point x="263" y="485" type="curve" smooth="yes"/>
      <point x="230" y="456"/>
      <point x="154" y="401"/>
    </contour>
  </outline>
</glyph>
<glyph name="acute" format="2">
  <advance width="560"/>
  <unicode hex="00B4"/>
  <outline>
    <contour>
      <point x="231" y="587" type="line"/>
      <point x="359" y="757" type="line"/>
      <point x="330" y="778" type="line"/>
      <point x="207" y="602" type="line"/>
    </contour>
  </outline>
</glyph>
<glyph name="paragraph" format="2">
  <advance width="560"/>
  <unicode hex="00B6"/>
  <outline>
    <contour>
      <point x="317" y="-185" type="line"/>
      <point x="345" y="-185" type="line"/>
      <point x="345" y="668" type="line"/>
      <point x="375" y="671"/>
      <point x="394" y="671"/>
      <point x="451" y="662" type="curve"/>
      <point x="451" y="-185" type="line"/>
      <point x="485" y="-185" type="line"/>
      <point x="485" y="687" type="line"/>
      <point x="435" y="704"/>
      <point x="403" y="699"/>
      <point x="371" y="699" type="curve" smooth="yes"/>
      <point x="170" y="699"/>
      <point x="48" y="629"/>
      <point x="48" y="480" type="curve" smooth="yes"/>
      <point x="48" y="338"/>
      <point x="150" y="265"/>
      <point x="317" y="265" type="curve"/>
    </contour>
  </outline>
</glyph>
<glyph name="onesuperior" format="2">
  <advance width="560"/>
  <unicode hex="00B9"/>
  <outline>
    <contour>
      <point x="143" y="332" type="line"/>
      <point x="371" y="332" type="line"/>
      <point x="371" y="362" type="line"/>
      <point x="262" y="362" type="line"/>
      <point x="262" y="701" type="line"/>
      <point x="261" y="701" type="line"/>
      <point x="230" y="661"/>
      <point x="184" y="634"/>
      <point x="139" y="627" type="curve"/>
      <point x="144" y="613" type="line"/>
      <point x="155" y="610"/>
      <point x="218" y="633"/>
      <point x="249" y="656" type="curve"/>
      <point x="249" y="362" type="line"/>
      <point x="143" y="362" type="line"/>
    </contour>
  </outline>
</glyph>
<glyph name="ordmasculine" format="2">
  <advance width="560"/>
  <unicode hex="00BA"/>
  <outline>
    <contour>
      <point x="280" y="343" type="curve" smooth="yes"/>
      <point x="375" y="343"/>
      <point x="444" y="418"/>
      <point x="444" y="522" type="curve" smooth="yes"/>
      <point x="444" y="625"/>
      <point x="374" y="701"/>
      <point x="280" y="701" type="curve" smooth="yes"/>
      <point x="186" y="701"/>
      <point x="116" y="625"/>
      <point x="116" y="522" type="curve" smooth="yes"/>
      <point x="116" y="418"/>
      <point x="185" y="343"/>
    </contour>
    <contour>
      <point x="280" y="371" type="curve" smooth="yes"/>
      <point x="202" y="371"/>
      <point x="148" y="436"/>
      <point x="148" y="522" type="curve" smooth="yes"/>
      <point x="148" y="607"/>
      <point x="203" y="673"/>
      <point x="280" y="673" type="curve" smooth="yes"/>
      <point x="355" y="673"/>
      <point x="412" y="608"/>
      <point x="412" y="522" type="curve" smooth="yes"/>
      <point x="412" y="436"/>
      <point x="358" y="371"/>
    </contour>
  </outline>
</glyph>
<glyph name="guillemetright" format="2">
  <advance width="560"/>
  <unicode hex="00BB"/>
  <outline>
    <contour>
      <point x="154" y="123" type="line"/>
      <point x="270" y="284" type="line"/>
      <point x="154" y="445" type="line"/>
      <point x="130" y="429" type="line"/>
      <point x="231" y="284" type="line"/>
      <point x="130" y="139" type="line"/>
    </contour>
    <contour>
      <point x="349" y="123" type="line"/>
      <point x="465" y="284" type="line"/>
      <point x="349" y="445" type="line"/>
      <point x="325" y="429" type="line"/>
      <point x="426" y="284" type="line"/>
      <point x="325" y="139" type="line"/>
    </contour>
  </outline>
</glyph>
<glyph name="onequarter" format="2">
  <advance width="560"/>
  <unicode hex="00BC"/>
  <outline>
    <contour>
      <point x="35" y="0" type="line"/>
      <point x="69" y="0" type="line"/>
      <point x="525" y="693" type="line"/>
      <point x="489" y="693" type="line"/>
    </contour>
    <contour>
      <point x="442" y="0" type="line"/>
      <point x="471" y="0" type="line"/>
      <point x="471" y="67" type="line"/>
      <point x="515" y="67" type="line"/>
      <point x="515" y="91" type="line"/>
      <point x="471" y="91" type="line"/>
      <point x="471" y="280" type="line"/>
      <point x="448" y="280" type="line"/>
      <point x="390" y="234"/>
      <point x="318" y="140"/>
      <point x="291" y="86" type="curve"/>
      <point x="291" y="67" type="line"/>
      <point x="442" y="67" type="line"/>
    </contour>
    <contour>
      <point x="324" y="91" type="line"/>
      <point x="347" y="136"/>
      <point x="398" y="199"/>
      <point x="442" y="242" type="curve"/>
      <point x="442" y="91" type="line"/>
    </contour>
    <contour>
      <point x="135" y="421" type="line"/>
      <point x="163" y="421" type="line"/>
      <point x="163" y="701" type="line"/>
      <point x="143" y="701" type="line"/>
      <point x="112" y="666"/>
      <point x="84" y="655"/>
      <point x="42" y="641" type="curve"/>
      <point x="50" y="619" type="line"/>
      <point x="76" y="626"/>
      <point x="109" y="638"/>
      <point x="135" y="657" type="curve"/>
    </contour>
  </outline>
</glyph>
<glyph name="onehalf" format="2">
  <advance width="560"/>
  <unicode hex="00BD"/>
  <outline>
    <contour>
      <point x="22" y="0" type="line"/>
      <point x="56" y="0" type="line"/>
      <point x="512" y="693" type="line"/>
      <point x="476" y="693" type="line"/>
    </contour>
    <contour>
      <point x="322" y="0" type="curve"/>
      <point x="522" y="0" type="line"/>
      <point x="522" y="27" type="line"/>
      <point x="353" y="27" type="line"/>
      <point x="364" y="75"/>
      <point x="508" y="114"/>
      <point x="508" y="198" type="curve" smooth="yes"/>
      <point x="508" y="253"/>
      <point x="471" y="290"/>
      <point x="412" y="290" type="curve" smooth="yes"/>
      <point x="381" y="290"/>
      <point x="353" y="278"/>
      <point x="328" y="258" type="curve"/>
      <point x="344" y="237" type="line"/>
      <point x="367" y="257"/>
      <point x="386" y="263"/>
      <point x="412" y="263" type="curve" smooth="yes"/>
      <point x="443" y="263"/>
      <point x="476" y="243"/>
      <point x="476" y="198" type="curve" smooth="yes"/>
      <point x="476" y="176"/>
      <point x="465" y="153"/>
      <point x="422" y="123" type="curve" smooth="yes"/>
      <point x="376" y="91" type="line" smooth="yes"/>
      <point x="339" y="65"/>
      <point x="322" y="46"/>
      <point x="322" y="13" type="curve" smooth="yes"/>
      <point x="322" y="12"/>
      <point x="322" y="3"/>
    </contour>
    <contour>
      <point x="135" y="421" type="line"/>
      <point x="165" y="421" type="line"/>
      <point x="165" y="701" type="line"/>
      <point x="143" y="701" type="line"/>
      <point x="112" y="666"/>
      <point x="84" y="655"/>
      <point x="42" y="641" type="curve"/>
      <point x="50" y="617" type="line"/>
      <point x="76" y="624"/>
      <point x="109" y="636"/>
      <point x="135" y="655" type="curve"/>
    </contour>
  </outline>
</glyph>
<glyph name="questiondown" format="2">
  <advance width="560"/>
  <unicode hex="00BF"/>
  <outline>
    <contour>
      <point x="294" y="-190" type="curve" smooth="yes"/>
      <point x="350" y="-190"/>
      <point x="385" y="-178"/>
      <point x="421" y="-164" type="curve"/>
      <point x="411" y="-134" type="line"/>
      <point x="384" y="-154"/>
      <point x="345" y="-160"/>
      <point x="299" y="-160" type="curve" smooth="yes"/>
      <point x="206" y="-160"/>
      <point x="169" y="-103"/>
      <point x="169" y="-34" type="curve" smooth="yes"/>
      <point x="169" y="18"/>
      <point x="178" y="56"/>
      <point x="206" y="91" type="curve" smooth="yes"/>
      <point x="240" y="135"/>
      <point x="325" y="162"/>
      <point x="325" y="263" type="curve"/>
      <point x="325" y="281"/>
      <point x="323" y="281"/>
      <point x="325" y="293" type="curve"/>
      <point x="304" y="293" type="line"/>
      <point x="304" y="205"/>
      <point x="258" y="155"/>
      <point x="219" y="111" type="curve" smooth="yes"/>
      <point x="177" y="64"/>
      <point x="138" y="30"/>
      <point x="138" y="-39" type="curve" smooth="yes"/>
      <point x="138" y="-112"/>
      <point x="168" y="-190"/>
    </contour>
    <contour>
      <point x="306" y="412" type="curve" smooth="yes"/>
      <point x="338" y="412"/>
      <point x="357" y="434"/>
      <point x="357" y="466" type="curve" smooth="yes"/>
      <point x="357" y="495"/>
      <point x="338" y="520"/>
      <point x="306" y="520" type="curve" smooth="yes"/>
      <point x="276" y="520"/>
      <point x="256" y="496"/>
      <point x="256" y="466" type="curve" smooth="yes"/>
      <point x="256" y="433"/>
      <point x="276" y="412"/>
    </contour>
  </outline>
</glyph>
<glyph name="Aring" format="2">
  <advance width="560"/>
  <unicode hex="00C5"/>
  <outline>
    <contour>
      <point x="14" y="0" type="curve"/>
      <point x="52" y="0" type="line"/>
      <point x="120" y="207" type="line"/>
      <point x="440" y="207" type="line"/>
      <point x="507" y="0" type="line"/>
      <point x="546" y="0" type="line"/>
      <point x="452" y="287"/>
      <point x="395" y="449"/>
      <point x="310" y="654" type="curve"/>
      <point x="342" y="666"/>
      <point x="368" y="692"/>
      <point x="368" y="736" type="curve" smooth="yes"/>
      <point x="368" y="785"/>
      <point x="330" y="824"/>
      <point x="281" y="824" type="curve" smooth="yes"/>
      <point x="230" y="824"/>
      <point x="192" y="787"/>
      <point x="192" y="736" type="curve" smooth="yes"/>
      <point x="192" y="692"/>
      <point x="217" y="667"/>
      <point x="249" y="655" type="curve"/>
      <point x="161" y="434"/>
      <point x="89" y="228"/>
    </contour>
    <contour>
      <point x="131" y="238" type="line"/>
      <point x="184" y="392"/>
      <point x="234" y="527"/>
      <point x="278" y="645" type="curve"/>
      <point x="349" y="462"/>
      <point x="388" y="359"/>
      <point x="429" y="238" type="curve"/>
    </contour>
    <contour>
      <point x="280" y="676" type="curve" smooth="yes"/>
      <point x="245" y="676"/>
      <point x="222" y="701"/>
      <point x="222" y="736" type="curve" smooth="yes"/>
      <point x="222" y="771"/>
      <point x="247" y="796"/>
      <point x="280" y="796" type="curve" smooth="yes"/>
      <point x="313" y="796"/>
      <point x="338" y="771"/>
      <point x="338" y="736" type="curve" smooth="yes"/>
      <point x="338" y="701"/>
      <point x="313" y="676"/>
    </contour>
  </outline>
</glyph>
<glyph name="AE" format="2">
  <advance width="560"/>
  <unicode hex="00C6"/>
  <anchor x="279" y="0" name="bottom"/>
  <anchor x="279" y="776" name="top"/>
  <outline>
    <contour>
      <point x="40" y="0" type="curve"/>
      <point x="76" y="0" type="line"/>
      <point x="140" y="207" type="line"/>
      <point x="304" y="207" type="line"/>
      <point x="304" y="0" type="line"/>
      <point x="535" y="0" type="line"/>
      <point x="535" y="31" type="line"/>
      <point x="339" y="31" type="line"/>
      <point x="339" y="344" type="line"/>
      <point x="498" y="344" type="line"/>
      <point x="498" y="375" type="line"/>
      <point x="339" y="375" type="line"/>
      <point x="339" y="662" type="line"/>
      <point x="520" y="662" type="line"/>
      <point x="520" y="693" type="line"/>
      <point x="284" y="693" type="line"/>
      <point x="190" y="473"/>
      <point x="123" y="281"/>
    </contour>
    <contour>
      <point x="149" y="238" type="line"/>
      <point x="192" y="372"/>
      <point x="248" y="524"/>
      <point x="304" y="657" type="curve"/>
      <point x="304" y="238" type="line"/>
    </contour>
  </outline>
</glyph>
<glyph name="Ccedilla" format="2">
  <advance width="560"/>
  <unicode hex="00C7"/>
  <outline>
    <contour>
      <point x="312" y="-189" type="curve" smooth="yes"/>
      <point x="368" y="-189"/>
      <point x="402" y="-160"/>
      <point x="402" y="-121" type="curve" smooth="yes"/>
      <point x="402" y="-89"/>
      <point x="379" y="-66"/>
      <point x="333" y="-49" type="curve"/>
      <point x="350" y="-12" type="line"/>
      <point x="405" y="-11"/>
      <point x="459" y="3"/>
      <point x="495" y="25" type="curve"/>
      <point x="485" y="54" type="line"/>
      <point x="448" y="33"/>
      <point x="398" y="20"/>
      <point x="346" y="20" type="curve" smooth="yes"/>
      <point x="210" y="20"/>
      <point x="117" y="151"/>
      <point x="117" y="347" type="curve" smooth="yes"/>
      <point x="117" y="540"/>
      <point x="210" y="675"/>
      <point x="341" y="675" type="curve" smooth="yes"/>
      <point x="393" y="675"/>
      <point x="440" y="658"/>
      <point x="472" y="637" type="curve"/>
      <point x="486" y="666" type="line"/>
      <point x="450" y="691"/>
      <point x="401" y="707"/>
      <point x="341" y="707" type="curve" smooth="yes"/>
      <point x="186" y="707"/>
      <point x="81" y="558"/>
      <point x="81" y="347" type="curve" smooth="yes"/>
      <point x="81" y="143"/>
      <point x="173" y="3"/>
      <point x="321" y="-11" type="curve"/>
      <point x="312" y="-28"/>
      <point x="303" y="-49"/>
      <point x="296" y="-65" type="curve"/>
      <point x="311" y="-70" type="line" smooth="yes"/>
      <point x="355" y="-86"/>
      <point x="370" y="-97"/>
      <point x="370" y="-122" type="curve" smooth="yes"/>
      <point x="370" y="-146"/>
      <point x="349" y="-160"/>
      <point x="308" y="-160" type="curve" smooth="yes"/>
      <point x="292" y="-160"/>
      <point x="272" y="-157"/>
      <point x="257" y="-152" type="curve"/>
      <point x="252" y="-179" type="line"/>
      <point x="270" y="-186"/>
      <point x="290" y="-189"/>
    </contour>
  </outline>
</glyph>
<glyph name="Eth" format="2">
  <advance width="560"/>
  <unicode hex="00D0"/>
  <outline>
    <contour>
      <point x="209" y="-2" type="curve" smooth="yes"/>
      <point x="366" y="-2"/>
      <point x="492" y="92"/>
      <point x="492" y="347" type="curve" smooth="yes"/>
      <point x="492" y="611"/>
      <point x="346" y="699"/>
      <point x="187" y="699" type="curve" smooth="yes"/>
      <point x="143" y="699"/>
      <point x="108" y="689"/>
      <point x="84" y="682" type="curve"/>
      <point x="84" y="373" type="line"/>
      <point x="25" y="373" type="line"/>
      <point x="25" y="356" type="line"/>
      <point x="84" y="356" type="line"/>
      <point x="84" y="15" type="line"/>
      <point x="122" y="4"/>
      <point x="171" y="-2"/>
    </contour>
    <contour>
      <point x="207" y="27" type="curve" smooth="yes"/>
      <point x="176" y="27"/>
      <point x="148" y="29"/>
      <point x="117" y="33" type="curve"/>
      <point x="117" y="356" type="line"/>
      <point x="254" y="356" type="line"/>
      <point x="254" y="373" type="line"/>
      <point x="117" y="373" type="line"/>
      <point x="117" y="667" type="line"/>
      <point x="135" y="669"/>
      <point x="153" y="670"/>
      <point x="182" y="670" type="curve" smooth="yes"/>
      <point x="335" y="670"/>
      <point x="456" y="618"/>
      <point x="456" y="347" type="curve" smooth="yes"/>
      <point x="456" y="76"/>
      <point x="343" y="27"/>
    </contour>
  </outline>
</glyph>
<glyph name="multiply" format="2">
  <advance width="560"/>
  <unicode hex="00D7"/>
  <outline>
    <contour>
      <point x="124" y="109" type="line"/>
      <point x="280" y="267" type="line"/>
      <point x="435" y="109" type="line"/>
      <point x="458" y="130" type="line"/>
      <point x="302" y="289" type="line"/>
      <point x="459" y="449" type="line"/>
      <point x="436" y="470" type="line"/>
      <point x="280" y="312" type="line"/>
      <point x="125" y="470" type="line"/>
      <point x="102" y="449" type="line"/>
      <point x="258" y="289" type="line"/>
      <point x="101" y="130" type="line"/>
    </contour>
  </outline>
</glyph>
<glyph name="Thorn" format="2">
  <advance width="560"/>
  <unicode hex="00DE"/>
  <anchor x="279" y="0" name="bottom"/>
  <anchor x="279" y="685" name="top"/>
  <outline>
    <contour>
      <point x="112" y="0" type="line"/>
      <point x="147" y="0" type="line"/>
      <point x="147" y="154" type="line"/>
      <point x="233" y="154" type="line" smooth="yes"/>
      <point x="399" y="154"/>
      <point x="480" y="223"/>
      <point x="480" y="363" type="curve" smooth="yes"/>
      <point x="480" y="502"/>
      <point x="402" y="572"/>
      <point x="246" y="572" type="curve" smooth="yes"/>
      <point x="210" y="572"/>
      <point x="175" y="569"/>
      <point x="147" y="564" type="curve"/>
      <point x="147" y="693" type="line"/>
      <point x="112" y="693" type="line"/>
    </contour>
    <contour>
      <point x="147" y="188" type="line"/>
      <point x="147" y="531" type="line"/>
      <point x="170" y="537"/>
      <point x="217" y="540"/>
      <point x="246" y="540" type="curve" smooth="yes"/>
      <point x="378" y="540"/>
      <point x="444" y="481"/>
      <point x="444" y="364" type="curve" smooth="yes"/>
      <point x="444" y="214"/>
      <point x="351" y="188"/>
      <point x="230" y="188" type="curve" smooth="yes"/>
    </contour>
  </outline>
</glyph>
<glyph name="germandbls" format="2">
  <advance width="560"/>
  <unicode hex="00DF"/>
  <anchor x="280" y="0" name="bottom"/>
  <anchor x="280" y="869" name="top"/>
  <outline>
    <contour>
      <point x="336" y="-12" type="curve" smooth="yes"/>
      <point x="447" y="-12"/>
      <point x="513" y="52"/>
      <point x="513" y="145" type="curve" smooth="yes"/>
      <point x="513" y="216"/>
      <point x="487" y="256"/>
      <point x="386" y="306" type="curve" smooth="yes"/>
      <point x="309" y="346"/>
      <point x="291" y="365"/>
      <point x="291" y="394" type="curve" smooth="yes"/>
      <point x="291" y="422"/>
      <point x="316" y="450"/>
      <point x="346" y="480" type="curve" smooth="yes"/>
      <point x="406" y="540"/>
      <point x="424" y="575"/>
      <point x="424" y="625" type="curve" smooth="yes"/>
      <point x="424" y="718"/>
      <point x="366" y="776"/>
      <point x="273" y="776" type="curve" smooth="yes"/>
      <point x="162" y="776"/>
      <point x="97" y="697"/>
      <point x="97" y="569" type="curve" smooth="yes"/>
      <point x="97" y="0" type="line"/>
      <point x="130" y="0" type="line"/>
      <point x="130" y="563" type="line" smooth="yes"/>
      <point x="130" y="676"/>
      <point x="178" y="746"/>
      <point x="273" y="746" type="curve" smooth="yes"/>
      <point x="345" y="746"/>
      <point x="390" y="695"/>
      <point x="390" y="622" type="curve" smooth="yes"/>
      <point x="390" y="578"/>
      <point x="372" y="553"/>
      <point x="319" y="500" type="curve" smooth="yes"/>
      <point x="278" y="459"/>
      <point x="256" y="429"/>
      <point x="256" y="393" type="curve" smooth="yes"/>
      <point x="256" y="344"/>
      <point x="284" y="316"/>
      <point x="370" y="276" type="curve" smooth="yes"/>
      <point x="452" y="237"/>
      <point x="478" y="205"/>
      <point x="478" y="146" type="curve" smooth="yes"/>
      <point x="478" y="71"/>
      <point x="432" y="20"/>
      <point x="336" y="20" type="curve" smooth="yes"/>
      <point x="297" y="20"/>
      <point x="260" y="30"/>
      <point x="234" y="42" type="curve"/>
      <point x="225" y="9" type="line"/>
      <point x="255" y="-4"/>
      <point x="295" y="-12"/>
    </contour>
  </outline>
</glyph>
<glyph name="ccedilla" format="2">
  <advance width="560"/>
  <unicode hex="00E7"/>
  <outline>
    <contour>
      <point x="283" y="-189" type="curve" smooth="yes"/>
      <point x="339" y="-189"/>
      <point x="373" y="-160"/>
      <point x="373" y="-121" type="curve" smooth="yes"/>
      <point x="373" y="-89"/>
      <point x="350" y="-66"/>
      <point x="304" y="-49" type="curve"/>
      <point x="309" y="-36"/>
      <point x="316" y="-21"/>
      <point x="324" y="-6" type="curve"/>
      <point x="382" y="-6"/>
      <point x="450" y="9"/>
      <point x="481" y="26" type="curve"/>
      <point x="473" y="55" type="line"/>
      <point x="440" y="38"/>
      <point x="376" y="24"/>
      <point x="330" y="24" type="curve" smooth="yes"/>
      <point x="177" y="24"/>
      <point x="95" y="104"/>
      <point x="95" y="254" type="curve" smooth="yes"/>
      <point x="95" y="407"/>
      <point x="177" y="494"/>
      <point x="325" y="494" type="curve" smooth="yes"/>
      <point x="379" y="494"/>
      <point x="430" y="485"/>
      <point x="462" y="471" type="curve"/>
      <point x="472" y="500" type="line"/>
      <point x="437" y="515"/>
      <point x="391" y="524"/>
      <point x="325" y="524" type="curve" smooth="yes"/>
      <point x="162" y="524"/>
      <point x="60" y="423"/>
      <point x="60" y="254" type="curve" smooth="yes"/>
      <point x="60" y="99"/>
      <point x="145" y="7"/>
      <point x="295" y="-5" type="curve"/>
      <point x="286" y="-23"/>
      <point x="275" y="-47"/>
      <point x="267" y="-65" type="curve"/>
      <point x="326" y="-86"/>
      <point x="341" y="-97"/>
      <point x="341" y="-122" type="curve" smooth="yes"/>
      <point x="341" y="-146"/>
      <point x="320" y="-160"/>
      <point x="279" y="-160" type="curve" smooth="yes"/>
      <point x="263" y="-160"/>
      <point x="243" y="-157"/>
      <point x="228" y="-152" type="curve"/>
      <point x="223" y="-179" type="line"/>
      <point x="241" y="-186"/>
      <point x="261" y="-189"/>
    </contour>
  </outline>
</glyph>
<glyph name="eth" format="2">
  <advance width="560"/>
  <unicode hex="00F0"/>
  <anchor x="280" y="0" name="bottom"/>
  <anchor x="280" y="869" name="top"/>
  <outline>
    <contour>
      <point x="265" y="-7" type="curve" smooth="yes"/>
      <point x="397" y="-7"/>
      <point x="475" y="104"/>
      <point x="475" y="335" type="curve" smooth="yes"/>
      <point x="475" y="470"/>
      <point x="435" y="572"/>
      <point x="380" y="647" type="curve"/>
      <point x="485" y="685" type="line"/>
      <point x="476" y="712" type="line"/>
      <point x="362" y="671" type="line"/>
      <point x="323" y="717"/>
      <point x="280" y="752"/>
      <point x="239" y="776" type="curve"/>
      <point x="216" y="752" type="line"/>
      <point x="255" y="730"/>
      <point x="294" y="699"/>
      <point x="329" y="659" type="curve"/>
      <point x="199" y="612" type="line"/>
      <point x="208" y="585" type="line"/>
      <point x="348" y="636" type="line"/>
      <point x="391" y="580"/>
      <point x="425" y="508"/>
      <point x="437" y="417" type="curve"/>
      <point x="396" y="458"/>
      <point x="334" y="483"/>
      <point x="268" y="483" type="curve" smooth="yes"/>
      <point x="149" y="483"/>
      <point x="74" y="389"/>
      <point x="74" y="241" type="curve" smooth="yes"/>
      <point x="74" y="97"/>
      <point x="150" y="-7"/>
    </contour>
    <contour>
      <point x="263" y="23" type="curve" smooth="yes"/>
      <point x="170" y="23"/>
      <point x="109" y="113"/>
      <point x="109" y="241" type="curve" smooth="yes"/>
      <point x="109" y="374"/>
      <point x="170" y="453"/>
      <point x="268" y="453" type="curve" smooth="yes"/>
      <point x="335" y="453"/>
      <point x="391" y="428"/>
      <point x="439" y="375" type="curve"/>
      <point x="440" y="368"/>
      <point x="440" y="362"/>
      <point x="440" y="335" type="curve" smooth="yes"/>
      <point x="440" y="129"/>
      <point x="375" y="23"/>
    </contour>
  </outline>
</glyph>
<glyph name="divide" format="2">
  <advance width="560"/>
  <unicode hex="00F7"/>
  <outline>
    <contour>
      <point x="57" y="274" type="line"/>
      <point x="503" y="274" type="line"/>
      <point x="503" y="304" type="line"/>
      <point x="57" y="304" type="line"/>
    </contour>
    <contour>
      <point x="280" y="65" type="curve" smooth="yes"/>
      <point x="307" y="65"/>
      <point x="326" y="84"/>
      <point x="326" y="112" type="curve" smooth="yes"/>
      <point x="326" y="140"/>
      <point x="307" y="159"/>
      <point x="280" y="159" type="curve" smooth="yes"/>
      <point x="253" y="159"/>
      <point x="234" y="140"/>
      <point x="234" y="112" type="curve" smooth="yes"/>
      <point x="234" y="84"/>
      <point x="253" y="65"/>
    </contour>
    <contour>
      <point x="280" y="419" type="curve" smooth="yes"/>
      <point x="307" y="419"/>
      <point x="326" y="438"/>
      <point x="326" y="466" type="curve" smooth="yes"/>
      <point x="326" y="494"/>
      <point x="307" y="513"/>
      <point x="280" y="513" type="curve" smooth="yes"/>
      <point x="253" y="513"/>
      <point x="234" y="494"/>
      <point x="234" y="466" type="curve" smooth="yes"/>
      <point x="234" y="438"/>
      <point x="253" y="419"/>
    </contour>
  </outline>
</glyph>
<glyph name="oslash" format="2">
  <advance width="560"/>
  <unicode hex="00F8"/>
  <anchor x="279" y="582" name="top"/>
  <outline>
    <contour>
      <point x="92" y="-27" type="line"/>
      <point x="143" y="45" type="line"/>
      <point x="179" y="10"/>
      <point x="227" y="-5"/>
      <point x="275" y="-5" type="curve" smooth="yes"/>
      <point x="397" y="-5"/>
      <point x="492" y="96"/>
      <point x="492" y="257" type="curve" smooth="yes"/>
      <point x="492" y="336"/>
      <point x="472" y="399"/>
      <point x="436" y="444" type="curve"/>
      <point x="493" y="522" type="line"/>
      <point x="464" y="548" type="line"/>
      <point x="410" y="475" type="line"/>
      <point x="376" y="510"/>
      <point x="328" y="524"/>
      <point x="275" y="524" type="curve" smooth="yes"/>
      <point x="152" y="524"/>
      <point x="65" y="418"/>
      <point x="65" y="257" type="curve" smooth="yes"/>
      <point x="65" y="178"/>
      <point x="87" y="118"/>
      <point x="120" y="74" type="curve"/>
      <point x="62" y="-4" type="line"/>
    </contour>
    <contour>
      <point x="278" y="30" type="curve" smooth="yes"/>
      <point x="235" y="30"/>
      <point x="193" y="38"/>
      <point x="163" y="69" type="curve"/>
      <point x="423" y="429" type="line"/>
      <point x="451" y="383"/>
      <point x="456" y="314"/>
      <point x="456" y="259" type="curve" smooth="yes"/>
      <point x="456" y="113"/>
      <point x="379" y="30"/>
    </contour>
    <contour>
      <point x="135" y="95" type="line"/>
      <point x="110" y="135"/>
      <point x="102" y="178"/>
      <point x="102" y="259" type="curve" smooth="yes"/>
      <point x="102" y="406"/>
      <point x="176" y="492"/>
      <point x="275" y="492" type="curve" smooth="yes"/>
      <point x="319" y="492"/>
      <point x="360" y="480"/>
      <point x="391" y="449" type="curve"/>
    </contour>
  </outline>
</glyph>
<glyph name="Aogonek" format="2">
  <advance width="560"/>
  <unicode hex="0104"/>
  <outline>
    <contour>
      <point x="507" y="-190" type="curve" smooth="yes"/>
      <point x="522" y="-190"/>
      <point x="537" y="-188"/>
      <point x="551" y="-183" type="curve"/>
      <point x="548" y="-154" type="line"/>
      <point x="535" y="-157"/>
      <point x="524" y="-159"/>
      <point x="515" y="-159" type="curve" smooth="yes"/>
      <point x="482" y="-159"/>
      <point x="464" y="-144"/>
      <point x="464" y="-114" type="curve" smooth="yes"/>
      <point x="464" y="-80"/>
      <point x="493" y="-42"/>
      <point x="546" y="0" type="curve"/>
      <point x="446" y="305"/>
      <point x="387" y="469"/>
      <point x="294" y="693" type="curve"/>
      <point x="264" y="693" type="line"/>
      <point x="169" y="458"/>
      <point x="94" y="242"/>
      <point x="14" y="0" type="curve"/>
      <point x="52" y="0" type="line"/>
      <point x="120" y="207" type="line"/>
      <point x="440" y="207" type="line"/>
      <point x="507" y="0" type="line"/>
      <point x="507" y="0" type="line"/>
      <point x="455" y="-41"/>
      <point x="430" y="-80"/>
      <point x="430" y="-120" type="curve" smooth="yes"/>
      <point x="430" y="-163"/>
      <point x="460" y="-190"/>
    </contour>
    <contour>
      <point x="131" y="238" type="line"/>
      <point x="184" y="392"/>
      <point x="234" y="527"/>
      <point x="278" y="645" type="curve"/>
      <point x="349" y="462"/>
      <point x="388" y="359"/>
      <point x="429" y="238" type="curve"/>
    </contour>
  </outline>
</glyph>
<glyph name="aogonek" format="2">
  <advance width="560"/>
  <unicode hex="0105"/>
  <outline>
    <contour>
      <point x="454" y="-183" type="curve" smooth="yes"/>
      <point x="462" y="-183"/>
      <point x="463" y="-183"/>
      <point x="472" y="-177" type="curve"/>
      <point x="466" y="-121" type="line"/>
      <point x="462" y="-125"/>
      <point x="440" y="-127"/>
      <point x="438" y="-127" type="curve" smooth="yes"/>
      <point x="408" y="-127"/>
      <point x="390" y="-121"/>
      <point x="390" y="-96" type="curve" smooth="yes"/>
      <point x="390" y="-58"/>
      <point x="434" y="-22"/>
      <point x="467" y="1" type="curve"/>
      <point x="467" y="344" type="line" smooth="yes"/>
      <point x="467" y="443"/>
      <point x="420" y="523"/>
      <point x="286" y="523" type="curve" smooth="yes"/>
      <point x="217" y="523"/>
      <point x="162" y="512"/>
      <point x="147" y="502" type="curve"/>
      <point x="148" y="468" type="line"/>
      <point x="169" y="477"/>
      <point x="217" y="492"/>
      <point x="290" y="492" type="curve" smooth="yes"/>
      <point x="414" y="492"/>
      <point x="428" y="399"/>
      <point x="428" y="324" type="curve" smooth="yes"/>
      <point x="428" y="288" type="line"/>
      <point x="387" y="298"/>
      <point x="350" y="304"/>
      <point x="309" y="304" type="curve" smooth="yes"/>
      <point x="208" y="304"/>
      <point x="89" y="259"/>
      <point x="89" y="147" type="curve" smooth="yes"/>
      <point x="89" y="4"/>
      <point x="227" y="-12"/>
      <point x="310" y="-12" type="curve" smooth="yes"/>
      <point x="340" y="-12"/>
      <point x="371" y="-10"/>
      <point x="397" y="-8" type="curve"/>
      <point x="352" y="-68"/>
      <point x="336" y="-75"/>
      <point x="336" y="-101" type="curve" smooth="yes"/>
      <point x="336" y="-157"/>
      <point x="376" y="-183"/>
    </contour>
    <contour>
      <point x="293" y="24" type="curve" smooth="yes"/>
      <point x="189" y="24"/>
      <point x="129" y="50"/>
      <point x="129" y="144" type="curve" smooth="yes"/>
      <point x="129" y="229"/>
      <point x="222" y="258"/>
      <point x="299" y="258" type="curve" smooth="yes"/>
      <point x="354" y="258"/>
      <point x="400" y="247"/>
      <point x="428" y="235" type="curve"/>
      <point x="428" y="39" type="line"/>
      <point x="405" y="30"/>
      <point x="358" y="24"/>
    </contour>
  </outline>
</glyph>
<glyph name="dcroat" format="2">
  <advance width="560"/>
  <unicode hex="0111"/>
  <outline>
    <contour>
      <point x="304" y="-6" type="curve" smooth="yes"/>
      <point x="347" y="-6"/>
      <point x="413" y="6"/>
      <point x="450" y="20" type="curve"/>
      <point x="450" y="647" type="line"/>
      <point x="529" y="647" type="line"/>
      <point x="529" y="675" type="line"/>
      <point x="450" y="675" type="line"/>
      <point x="450" y="776" type="line"/>
      <point x="417" y="769" type="line"/>
      <point x="417" y="675" type="line"/>
      <point x="172" y="675" type="line"/>
      <point x="172" y="647" type="line"/>
      <point x="417" y="647" type="line"/>
      <point x="417" y="474" type="line"/>
      <point x="383" y="503"/>
      <point x="329" y="526"/>
      <point x="269" y="526" type="curve" smooth="yes"/>
      <point x="138" y="526"/>
      <point x="53" y="428"/>
      <point x="53" y="263" type="curve" smooth="yes"/>
      <point x="53" y="95"/>
      <point x="143" y="-6"/>
    </contour>
    <contour>
      <point x="302" y="24" type="curve" smooth="yes"/>
      <point x="159" y="24"/>
      <point x="88" y="114"/>
      <point x="88" y="263" type="curve" smooth="yes"/>
      <point x="88" y="409"/>
      <point x="155" y="496"/>
      <point x="270" y="496" type="curve" smooth="yes"/>
      <point x="325" y="496"/>
      <point x="376" y="476"/>
      <point x="417" y="443" type="curve"/>
      <point x="417" y="42" type="line"/>
      <point x="385" y="30"/>
      <point x="340" y="24"/>
    </contour>
  </outline>
</glyph>
<glyph name="Eogonek" format="2">
  <advance width="560"/>
  <unicode hex="0118"/>
  <anchor x="280" y="685" name="top"/>
  <outline>
    <contour>
      <point x="455" y="-186" type="curve" smooth="yes"/>
      <point x="470" y="-186"/>
      <point x="485" y="-184"/>
      <point x="499" y="-179" type="curve"/>
      <point x="496" y="-150" type="line"/>
      <point x="483" y="-153"/>
      <point x="472" y="-155"/>
      <point x="463" y="-155" type="curve" smooth="yes"/>
      <point x="430" y="-155"/>
      <point x="413" y="-140"/>
      <point x="413" y="-110" type="curve" smooth="yes"/>
      <point x="413" y="-77"/>
      <point x="444" y="-40"/>
      <point x="499" y="0" type="curve"/>
      <point x="499" y="31" type="line"/>
      <point x="167" y="31" type="line"/>
      <point x="167" y="344" type="line"/>
      <point x="439" y="344" type="line"/>
      <point x="439" y="375" type="line"/>
      <point x="167" y="375" type="line"/>
      <point x="167" y="662" type="line"/>
      <point x="476" y="662" type="line"/>
      <point x="476" y="693" type="line"/>
      <point x="132" y="693" type="line"/>
      <point x="132" y="0" type="line"/>
      <point x="460" y="0" type="line"/>
      <point x="406" y="-39"/>
      <point x="379" y="-78"/>
      <point x="379" y="-116" type="curve" smooth="yes"/>
      <point x="379" y="-159"/>
      <point x="409" y="-186"/>
    </contour>
  </outline>
</glyph>
<glyph name="eogonek" format="2">
  <advance width="560"/>
  <unicode hex="0119"/>
  <anchor x="279" y="582" name="top"/>
  <outline>
    <contour>
      <point x="422" y="-183" type="curve" smooth="yes"/>
      <point x="428" y="-183"/>
      <point x="428" y="-183"/>
      <point x="437" y="-177" type="curve"/>
      <point x="431" y="-121" type="line"/>
      <point x="427" y="-124"/>
      <point x="409" y="-127"/>
      <point x="404" y="-127" type="curve" smooth="yes"/>
      <point x="373" y="-127"/>
      <point x="351" y="-121"/>
      <point x="351" y="-96" type="curve" smooth="yes"/>
      <point x="351" y="-52"/>
      <point x="415" y="-17"/>
      <point x="448" y="14" type="curve"/>
      <point x="443" y="45" type="line"/>
      <point x="434" y="36"/>
      <point x="393" y="24"/>
      <point x="318" y="24" type="curve" smooth="yes"/>
      <point x="175" y="24"/>
      <point x="110" y="99"/>
      <point x="91" y="257" type="curve"/>
      <point x="493" y="257" type="line"/>
      <point x="492" y="263"/>
      <point x="491" y="270"/>
      <point x="491" y="265" type="curve" smooth="yes"/>
      <point x="491" y="444"/>
      <point x="413" y="523"/>
      <point x="297" y="523" type="curve" smooth="yes"/>
      <point x="186" y="523"/>
      <point x="61" y="443"/>
      <point x="61" y="259" type="curve" smooth="yes"/>
      <point x="61" y="133"/>
      <point x="120" y="-12"/>
      <point x="302" y="-12" type="curve" smooth="yes"/>
      <point x="330" y="-12"/>
      <point x="348" y="-10"/>
      <point x="374" y="-7" type="curve"/>
      <point x="367" y="0"/>
      <point x="299" y="-56"/>
      <point x="299" y="-101" type="curve" smooth="yes"/>
      <point x="299" y="-157"/>
      <point x="343" y="-183"/>
    </contour>
    <contour>
      <point x="96" y="305" type="line"/>
      <point x="107" y="395"/>
      <point x="191" y="492"/>
      <point x="292" y="492" type="curve" smooth="yes"/>
      <point x="368" y="492"/>
      <point x="450" y="425"/>
      <point x="446" y="305" type="curve"/>
    </contour>
  </outline>
</glyph>
<glyph name="hcircumflex" format="2">
  <advance width="560"/>
  <unicode hex="0125"/>
  <outline>
    <contour>
      <point x="95" y="0" type="line"/>
      <point x="128" y="0" type="line"/>
      <point x="128" y="462" type="line"/>
      <point x="176" y="484"/>
      <point x="226" y="492"/>
      <point x="265" y="492" type="curve" smooth="yes"/>
      <point x="373" y="492"/>
      <point x="434" y="446"/>
      <point x="434" y="300" type="curve" smooth="yes"/>
      <point x="434" y="0" type="line"/>
      <point x="467" y="0" type="line"/>
      <point x="467" y="315" type="line" smooth="yes"/>
      <point x="467" y="467"/>
      <point x="389" y="522"/>
      <point x="264" y="522" type="curve" smooth="yes"/>
      <point x="222" y="522"/>
      <point x="175" y="511"/>
      <point x="128" y="491" type="curve"/>
      <point x="128" y="776" type="line"/>
      <point x="95" y="769" type="line"/>
    </contour>
    <contour>
      <point x="64" y="832" type="line"/>
      <point x="144" y="893" type="line"/>
      <point x="224" y="832" type="line"/>
      <point x="236" y="850" type="line"/>
      <point x="144" y="933" type="line"/>
      <point x="53" y="850" type="line"/>
    </contour>
  </outline>
</glyph>
<glyph name="Hbar" format="2">
  <advance width="560"/>
  <unicode hex="0126"/>
  <outline>
    <contour>
      <point x="55" y="0" type="line"/>
      <point x="90" y="0" type="line"/>
      <point x="90" y="345" type="line"/>
      <point x="470" y="345" type="line"/>
      <point x="470" y="0" type="line"/>
      <point x="505" y="0" type="line"/>
      <point x="505" y="543" type="line"/>
      <point x="540" y="543" type="line"/>
      <point x="540" y="574" type="line"/>
      <point x="505" y="574" type="line"/>
      <point x="505" y="693" type="line"/>
      <point x="470" y="693" type="line"/>
      <point x="470" y="574" type="line"/>
      <point x="90" y="574" type="line"/>
      <point x="90" y="693" type="line"/>
      <point x="55" y="693" type="line"/>
      <point x="55" y="574" type="line"/>
      <point x="20" y="574" type="line"/>
      <point x="20" y="543" type="line"/>
      <point x="55" y="543" type="line"/>
    </contour>
    <contour>
      <point x="90" y="376" type="line"/>
      <point x="90" y="543" type="line"/>
      <point x="470" y="543" type="line"/>
      <point x="470" y="376" type="line"/>
    </contour>
  </outline>
</glyph>
<glyph name="hbar" format="2">
  <advance width="560"/>
  <unicode hex="0127"/>
  <outline>
    <contour>
      <point x="107" y="0" type="line"/>
      <point x="140" y="0" type="line"/>
      <point x="140" y="465" type="line"/>
      <point x="158" y="473"/>
      <point x="218" y="488"/>
      <point x="270" y="488" type="curve" smooth="yes"/>
      <point x="388" y="488"/>
      <point x="434" y="434"/>
      <point x="434" y="265" type="curve" smooth="yes"/>
      <point x="434" y="0" type="line"/>
      <point x="467" y="0" type="line"/>
      <point x="467" y="288" type="line" smooth="yes"/>
      <point x="467" y="429"/>
      <point x="416" y="522"/>
      <point x="271" y="522" type="curve" smooth="yes"/>
      <point x="226" y="522"/>
      <point x="176" y="516"/>
      <point x="140" y="499" type="curve"/>
      <point x="140" y="636" type="line"/>
      <point x="367" y="636" type="line"/>
      <point x="367" y="675" type="line"/>
      <point x="140" y="675" type="line"/>
      <point x="140" y="775" type="line"/>
      <point x="107" y="768" type="line"/>
      <point x="107" y="675" type="line"/>
      <point x="19" y="675" type="line"/>
      <point x="19" y="636" type="line"/>
      <point x="107" y="636" type="line"/>
    </contour>
  </outline>
</glyph>
<glyph name="Iogonek" format="2">
  <advance width="560"/>
  <unicode hex="012E"/>
  <outline>
    <contour>
      <point x="285" y="-186" type="curve" smooth="yes"/>
      <point x="300" y="-186"/>
      <point x="315" y="-184"/>
      <point x="329" y="-179" type="curve"/>
      <point x="326" y="-150" type="line"/>
      <point x="313" y="-153"/>
      <point x="302" y="-155"/>
      <point x="293" y="-155" type="curve" smooth="yes"/>
      <point x="260" y="-155"/>
      <point x="242" y="-140"/>
      <point x="242" y="-110" type="curve" smooth="yes"/>
      <point x="242" y="-77"/>
      <point x="269" y="-40"/>
      <point x="319" y="0" type="curve"/>
      <point x="407" y="0" type="line"/>
      <point x="407" y="31" type="line"/>
      <point x="297" y="31" type="line"/>
      <point x="298" y="662" type="line"/>
      <point x="408" y="662" type="line"/>
      <point x="407" y="693" type="line"/>
      <point x="153" y="693" type="line"/>
      <point x="153" y="662" type="line"/>
      <point x="263" y="662" type="line"/>
      <point x="262" y="31" type="line"/>
      <point x="152" y="31" type="line"/>
      <point x="152" y="0" type="line"/>
      <point x="280" y="0" type="line"/>
      <point x="232" y="-39"/>
      <point x="208" y="-78"/>
      <point x="208" y="-116" type="curve" smooth="yes"/>
      <point x="208" y="-159"/>
      <point x="238" y="-186"/>
    </contour>
  </outline>
</glyph>
<glyph name="iogonek" format="2">
  <advance width="560"/>
  <unicode hex="012F"/>
  <outline>
    <contour>
      <point x="432" y="-183" type="curve" smooth="yes"/>
      <point x="454" y="-183"/>
      <point x="465" y="-180"/>
      <point x="464" y="-177" type="curve"/>
      <point x="458" y="-121" type="line"/>
      <point x="455" y="-125"/>
      <point x="433" y="-127"/>
      <point x="429" y="-127" type="curve" smooth="yes"/>
      <point x="400" y="-127"/>
      <point x="378" y="-121"/>
      <point x="378" y="-96" type="curve" smooth="yes"/>
      <point x="378" y="-70"/>
      <point x="417" y="-22"/>
      <point x="475" y="13" type="curve"/>
      <point x="470" y="47" type="line"/>
      <point x="477" y="49"/>
      <point x="437" y="24"/>
      <point x="373" y="24" type="curve" smooth="yes"/>
      <point x="315" y="24"/>
      <point x="274" y="47"/>
      <point x="274" y="201" type="curve" smooth="yes"/>
      <point x="274" y="512" type="line"/>
      <point x="89" y="512" type="line"/>
      <point x="89" y="480" type="line"/>
      <point x="244" y="480" type="line"/>
      <point x="244" y="178" type="line"/>
      <point x="244" y="35"/>
      <point x="277" y="-17"/>
      <point x="399" y="-12" type="curve"/>
      <point x="400" y="2"/>
      <point x="328" y="-49"/>
      <point x="328" y="-101" type="curve" smooth="yes"/>
      <point x="328" y="-141"/>
      <point x="338" y="-183"/>
    </contour>
    <contour>
      <point x="239" y="613" type="curve" smooth="yes"/>
      <point x="269" y="613"/>
      <point x="290" y="636"/>
      <point x="290" y="671" type="curve" smooth="yes"/>
      <point x="290" y="708"/>
      <point x="269" y="729"/>
      <point x="239" y="729" type="curve" smooth="yes"/>
      <point x="210" y="729"/>
      <point x="186" y="707"/>
      <point x="186" y="671" type="curve" smooth="yes"/>
      <point x="186" y="636"/>
      <point x="210" y="613"/>
    </contour>
  </outline>
</glyph>
<glyph name="dotlessi" format="2">
  <advance width="560"/>
  <unicode hex="0131"/>
  <anchor x="280" y="0" name="bottom"/>
  <anchor x="499" y="11" name="ogonek"/>
  <anchor x="280" y="582" name="top"/>
  <outline>
    <contour>
      <point x="386" y="-12" type="curve" smooth="yes"/>
      <point x="457" y="-12"/>
      <point x="507" y="24"/>
      <point x="475" y="12" type="curve"/>
      <point x="470" y="47" type="line"/>
      <point x="477" y="49"/>
      <point x="437" y="24"/>
      <point x="373" y="24" type="curve" smooth="yes"/>
      <point x="315" y="24"/>
      <point x="274" y="45"/>
      <point x="274" y="200" type="curve" smooth="yes"/>
      <point x="274" y="512" type="line"/>
      <point x="89" y="512" type="line"/>
      <point x="89" y="480" type="line"/>
      <point x="244" y="480" type="line"/>
      <point x="244" y="178" type="line"/>
      <point x="244" y="44"/>
      <point x="271" y="-12"/>
    </contour>
  </outline>
</glyph>
<glyph name="IJ" format="2">
  <advance width="560"/>
  <unicode hex="0132"/>
  <outline>
    <contour>
      <point x="356" y="-15" type="curve" smooth="yes"/>
      <point x="459" y="-15"/>
      <point x="510" y="65"/>
      <point x="510" y="168" type="curve" smooth="yes"/>
      <point x="510" y="693" type="line"/>
      <point x="476" y="693" type="line"/>
      <point x="476" y="168" type="line" smooth="yes"/>
      <point x="476" y="73"/>
      <point x="440" y="17"/>
      <point x="356" y="17" type="curve" smooth="yes"/>
      <point x="298" y="17"/>
      <point x="256" y="32"/>
      <point x="214" y="73" type="curve"/>
      <point x="199" y="43" type="line"/>
      <point x="243" y="5"/>
      <point x="295" y="-15"/>
    </contour>
    <contour>
      <point x="80" y="0" type="line"/>
      <point x="115" y="0" type="line"/>
      <point x="115" y="693" type="line"/>
      <point x="80" y="693" type="line"/>
    </contour>
  </outline>
</glyph>
<glyph name="ij" format="2">
  <advance width="560"/>
  <unicode hex="0133"/>
  <outline>
    <contour>
      <point x="268" y="-187" type="curve" smooth="yes"/>
      <point x="386" y="-187"/>
      <point x="412" y="-103"/>
      <point x="412" y="-1" type="curve" smooth="yes"/>
      <point x="412" y="513" type="line"/>
      <point x="379" y="513" type="line"/>
      <point x="379" y="-1" type="line" smooth="yes"/>
      <point x="379" y="-88"/>
      <point x="366" y="-156"/>
      <point x="268" y="-156" type="curve" smooth="yes"/>
      <point x="257" y="-156"/>
      <point x="236" y="-153"/>
      <point x="227" y="-150" type="curve"/>
      <point x="222" y="-179" type="line"/>
      <point x="231" y="-183"/>
      <point x="256" y="-187"/>
    </contour>
    <contour>
      <point x="148" y="0" type="line"/>
      <point x="181" y="0" type="line"/>
      <point x="181" y="513" type="line"/>
      <point x="148" y="513" type="line"/>
    </contour>
    <contour>
      <point x="166" y="629" type="curve" smooth="yes"/>
      <point x="189" y="629"/>
      <point x="209" y="647"/>
      <point x="209" y="674" type="curve" smooth="yes"/>
      <point x="209" y="700"/>
      <point x="189" y="718"/>
      <point x="166" y="718" type="curve" smooth="yes"/>
      <point x="143" y="718"/>
      <point x="123" y="700"/>
      <point x="123" y="674" type="curve" smooth="yes"/>
      <point x="123" y="647"/>
      <point x="143" y="629"/>
    </contour>
    <contour>
      <point x="396" y="629" type="curve" smooth="yes"/>
      <point x="419" y="629"/>
      <point x="439" y="647"/>
      <point x="439" y="674" type="curve" smooth="yes"/>
      <point x="439" y="700"/>
      <point x="419" y="718"/>
      <point x="396" y="718" type="curve" smooth="yes"/>
      <point x="373" y="718"/>
      <point x="353" y="700"/>
      <point x="353" y="674" type="curve" smooth="yes"/>
      <point x="353" y="647"/>
      <point x="373" y="629"/>
    </contour>
  </outline>
</glyph>
<glyph name="lacute" format="2">
  <advance width="560"/>
  <unicode hex="013A"/>
  <outline>
    <contour>
      <point x="390" y="-12" type="curve" smooth="yes"/>
      <point x="398" y="-12"/>
      <point x="450" y="-4"/>
      <point x="475" y="12" type="curve"/>
      <point x="470" y="47" type="line"/>
      <point x="441" y="31"/>
      <point x="409" y="24"/>
      <point x="368" y="24" type="curve" smooth="yes"/>
      <point x="296" y="24"/>
      <point x="274" y="59"/>
      <point x="274" y="201" type="curve" smooth="yes"/>
      <point x="274" y="806" type="line"/>
      <point x="89" y="806" type="line"/>
      <point x="89" y="774" type="line"/>
      <point x="244" y="774" type="line"/>
      <point x="244" y="188" type="line" smooth="yes"/>
      <point x="244" y="53"/>
      <point x="256" y="-12"/>
    </contour>
    <contour>
      <point x="222" y="844" type="line"/>
      <point x="325" y="895" type="line"/>
      <point x="307" y="933" type="line"/>
      <point x="213" y="881" type="line"/>
    </contour>
  </outline>
</glyph>
<glyph name="lslash" format="2">
  <advance width="560"/>
  <unicode hex="0142"/>
  <outline>
    <contour>
      <point x="390" y="-12" type="curve" smooth="yes"/>
      <point x="398" y="-12"/>
      <point x="450" y="-4"/>
      <point x="475" y="12" type="curve"/>
      <point x="470" y="47" type="line"/>
      <point x="441" y="31"/>
      <point x="409" y="24"/>
      <point x="368" y="24" type="curve" smooth="yes"/>
      <point x="296" y="24"/>
      <point x="274" y="59"/>
      <point x="274" y="201" type="curve" smooth="yes"/>
      <point x="274" y="372" type="line"/>
      <point x="394" y="437" type="line"/>
      <point x="382" y="460" type="line"/>
      <point x="274" y="403" type="line"/>
      <point x="274" y="771" type="line"/>
      <point x="89" y="771" type="line"/>
      <point x="89" y="738" type="line"/>
      <point x="244" y="738" type="line"/>
      <point x="244" y="381" type="line"/>
      <point x="140" y="326" type="line"/>
      <point x="156" y="304" type="line"/>
      <point x="244" y="351" type="line"/>
      <point x="244" y="188" type="line" smooth="yes"/>
      <point x="244" y="53"/>
      <point x="256" y="-12"/>
    </contour>
  </outline>
</glyph>
<glyph name="Eng" format="2">
  <advance width="560"/>
  <unicode hex="014A"/>
  <anchor x="279" y="0" name="bottom"/>
  <anchor x="279" y="776" name="top"/>
  <outline>
    <contour>
      <point x="384" y="-187" type="curve" smooth="yes"/>
      <point x="511" y="-187"/>
      <point x="481" y="-98"/>
      <point x="481" y="-12" type="curve" smooth="yes"/>
      <point x="481" y="693" type="line"/>
      <point x="448" y="693" type="line"/>
      <point x="448" y="90" type="line"/>
      <point x="377" y="270"/>
      <point x="239" y="514"/>
      <point x="150" y="693" type="curve"/>
      <point x="78" y="693" type="line"/>
      <point x="78" y="0" type="line"/>
      <point x="111" y="0" type="line"/>
      <point x="111" y="672" type="line"/>
      <point x="214" y="480"/>
      <point x="385" y="143"/>
      <point x="448" y="11" type="curve"/>
      <point x="448" y="-43" type="line"/>
      <point x="448" y="-120"/>
      <point x="434" y="-165"/>
      <point x="378" y="-165" type="curve" smooth="yes"/>
      <point x="369" y="-165"/>
      <point x="338" y="-165"/>
      <point x="332" y="-165" type="curve"/>
      <point x="337" y="-185" type="line"/>
      <point x="338" y="-180"/>
      <point x="362" y="-187"/>
    </contour>
  </outline>
</glyph>
<glyph name="eng" format="2">
  <advance width="560"/>
  <unicode hex="014B"/>
  <anchor x="279" y="0" name="bottom"/>
  <anchor x="279" y="582" name="top"/>
  <outline>
    <contour>
      <point x="356" y="-190" type="curve" smooth="yes"/>
      <point x="467" y="-190"/>
      <point x="467" y="-119"/>
      <point x="467" y="-4" type="curve" smooth="yes"/>
      <point x="467" y="315" type="line" smooth="yes"/>
      <point x="467" y="493"/>
      <point x="361" y="522"/>
      <point x="264" y="522" type="curve" smooth="yes"/>
      <point x="213" y="522"/>
      <point x="160" y="516"/>
      <point x="95" y="500" type="curve"/>
      <point x="95" y="0" type="line"/>
      <point x="129" y="0" type="line"/>
      <point x="129" y="473" type="line"/>
      <point x="174" y="483"/>
      <point x="226" y="488"/>
      <point x="265" y="488" type="curve" smooth="yes"/>
      <point x="343" y="488"/>
      <point x="434" y="477"/>
      <point x="434" y="300" type="curve" smooth="yes"/>
      <point x="434" y="-35" type="line" smooth="yes"/>
      <point x="434" y="-112"/>
      <point x="418" y="-159"/>
      <point x="356" y="-159" type="curve" smooth="yes"/>
      <point x="333" y="-159"/>
      <point x="323" y="-160"/>
      <point x="315" y="-157" type="curve"/>
      <point x="318" y="-188" type="line"/>
      <point x="316" y="-182"/>
      <point x="336" y="-190"/>
    </contour>
  </outline>
</glyph>
<glyph name="OE" format="2">
  <advance width="560"/>
  <unicode hex="0152"/>
  <anchor x="280" y="0" name="bottom"/>
  <anchor x="280" y="685" name="top"/>
  <outline>
    <contour>
      <point x="240" y="-8" type="curve" smooth="yes"/>
      <point x="262" y="-8"/>
      <point x="283" y="-4"/>
      <point x="308" y="0" type="curve"/>
      <point x="530" y="0" type="line"/>
      <point x="530" y="31" type="line"/>
      <point x="340" y="31" type="line"/>
      <point x="340" y="342" type="line"/>
      <point x="491" y="342" type="line"/>
      <point x="491" y="373" type="line"/>
      <point x="340" y="373" type="line"/>
      <point x="340" y="662" type="line"/>
      <point x="515" y="662" type="line"/>
      <point x="515" y="693" type="line"/>
      <point x="302" y="693" type="line"/>
      <point x="283" y="697"/>
      <point x="263" y="700"/>
      <point x="244" y="700" type="curve" smooth="yes"/>
      <point x="119" y="700"/>
      <point x="45" y="568"/>
      <point x="45" y="344" type="curve" smooth="yes"/>
      <point x="45" y="123"/>
      <point x="117" y="-8"/>
    </contour>
    <contour>
      <point x="241" y="24" type="curve" smooth="yes"/>
      <point x="140" y="24"/>
      <point x="81" y="143"/>
      <point x="81" y="344" type="curve" smooth="yes"/>
      <point x="81" y="548"/>
      <point x="140" y="668"/>
      <point x="241" y="668" type="curve" smooth="yes"/>
      <point x="266" y="668"/>
      <point x="287" y="664"/>
      <point x="305" y="658" type="curve"/>
      <point x="305" y="33" type="line"/>
      <point x="290" y="29"/>
      <point x="264" y="24"/>
    </contour>
  </outline>
</glyph>
<glyph name="Scedilla" format="2">
  <advance width="560"/>
  <unicode hex="015E"/>
  <outline>
    <contour>
      <point x="251" y="-189" type="curve" smooth="yes"/>
      <point x="307" y="-189"/>
      <point x="341" y="-160"/>
      <point x="341" y="-121" type="curve" smooth="yes"/>
      <point x="341" y="-89"/>
      <point x="318" y="-66"/>
      <point x="272" y="-49" type="curve"/>
      <point x="277" y="-37"/>
      <point x="283" y="-23"/>
      <point x="291" y="-9" type="curve"/>
      <point x="416" y="2"/>
      <point x="481" y="65"/>
      <point x="481" y="176" type="curve" smooth="yes"/>
      <point x="481" y="263"/>
      <point x="432" y="316"/>
      <point x="304" y="366" type="curve" smooth="yes"/>
      <point x="175" y="418"/>
      <point x="132" y="456"/>
      <point x="132" y="533" type="curve" smooth="yes"/>
      <point x="132" y="624"/>
      <point x="187" y="671"/>
      <point x="294" y="671" type="curve" smooth="yes"/>
      <point x="348" y="671"/>
      <point x="404" y="657"/>
      <point x="446" y="633" type="curve"/>
      <point x="460" y="662" type="line"/>
      <point x="422" y="686"/>
      <point x="355" y="703"/>
      <point x="298" y="703" type="curve" smooth="yes"/>
      <point x="169" y="703"/>
      <point x="96" y="646"/>
      <point x="96" y="534" type="curve" smooth="yes"/>
      <point x="96" y="442"/>
      <point x="145" y="390"/>
      <point x="279" y="338" type="curve" smooth="yes"/>
      <point x="406" y="290"/>
      <point x="445" y="245"/>
      <point x="445" y="174" type="curve" smooth="yes"/>
      <point x="445" y="72"/>
      <point x="380" y="22"/>
      <point x="251" y="22" type="curve" smooth="yes"/>
      <point x="195" y="22"/>
      <point x="133" y="39"/>
      <point x="85" y="68" type="curve"/>
      <point x="72" y="38" type="line"/>
      <point x="120" y="7"/>
      <point x="183" y="-10"/>
      <point x="261" y="-10" type="curve"/>
      <point x="252" y="-28"/>
      <point x="242" y="-48"/>
      <point x="235" y="-65" type="curve"/>
      <point x="250" y="-70" type="line" smooth="yes"/>
      <point x="294" y="-86"/>
      <point x="309" y="-97"/>
      <point x="309" y="-122" type="curve" smooth="yes"/>
      <point x="309" y="-146"/>
      <point x="288" y="-160"/>
      <point x="247" y="-160" type="curve" smooth="yes"/>
      <point x="231" y="-160"/>
      <point x="211" y="-157"/>
      <point x="196" y="-152" type="curve"/>
      <point x="191" y="-179" type="line"/>
      <point x="209" y="-186"/>
      <point x="229" y="-189"/>
    </contour>
  </outline>
</glyph>
<glyph name="scedilla" format="2">
  <advance width="560"/>
  <unicode hex="015F"/>
  <outline>
    <contour>
      <point x="266" y="-188" type="curve" smooth="yes"/>
      <point x="353" y="-188"/>
      <point x="324" y="-117"/>
      <point x="324" y="-133" type="curve" smooth="yes"/>
      <point x="324" y="-72"/>
      <point x="307" y="-72"/>
      <point x="286" y="-50" type="curve"/>
      <point x="291" y="-37"/>
      <point x="300" y="-24"/>
      <point x="307" y="-11" type="curve"/>
      <point x="407" y="-4"/>
      <point x="470" y="34"/>
      <point x="470" y="123" type="curve" smooth="yes"/>
      <point x="470" y="198"/>
      <point x="386" y="243"/>
      <point x="296" y="279" type="curve" smooth="yes"/>
      <point x="212" y="313"/>
      <point x="132" y="337"/>
      <point x="132" y="393" type="curve" smooth="yes"/>
      <point x="132" y="470"/>
      <point x="195" y="492"/>
      <point x="291" y="492" type="curve" smooth="yes"/>
      <point x="330" y="492"/>
      <point x="409" y="491"/>
      <point x="433" y="470" type="curve"/>
      <point x="441" y="510" type="line"/>
      <point x="401" y="515"/>
      <point x="333" y="523"/>
      <point x="290" y="523" type="curve" smooth="yes"/>
      <point x="165" y="523"/>
      <point x="100" y="474"/>
      <point x="100" y="398" type="curve" smooth="yes"/>
      <point x="100" y="313"/>
      <point x="191" y="277"/>
      <point x="288" y="239" type="curve" smooth="yes"/>
      <point x="362" y="210"/>
      <point x="432" y="178"/>
      <point x="432" y="117" type="curve" smooth="yes"/>
      <point x="432" y="53"/>
      <point x="384" y="18"/>
      <point x="283" y="18" type="curve" smooth="yes"/>
      <point x="211" y="18"/>
      <point x="160" y="29"/>
      <point x="108" y="58" type="curve"/>
      <point x="95" y="15" type="line"/>
      <point x="166" y="-20"/>
      <point x="221" y="-15"/>
      <point x="272" y="-13" type="curve"/>
      <point x="260" y="-42"/>
      <point x="245" y="-76"/>
      <point x="235" y="-95" type="curve"/>
      <point x="250" y="-102"/>
      <point x="268" y="-112"/>
      <point x="268" y="-127" type="curve" smooth="yes"/>
      <point x="268" y="-134"/>
      <point x="263" y="-143"/>
      <point x="245" y="-143" type="curve" smooth="yes"/>
      <point x="222" y="-143"/>
      <point x="222" y="-141"/>
      <point x="199" y="-133" type="curve"/>
      <point x="193" y="-173" type="line"/>
      <point x="198" y="-179"/>
      <point x="227" y="-188"/>
    </contour>
  </outline>
</glyph>
<glyph name="Tcedilla" format="2">
  <advance width="560"/>
  <unicode hex="0162"/>
  <outline>
    <contour>
      <point x="250" y="-189" type="curve" smooth="yes"/>
      <point x="306" y="-189"/>
      <point x="340" y="-160"/>
      <point x="340" y="-121" type="curve" smooth="yes"/>
      <point x="340" y="-89"/>
      <point x="317" y="-66"/>
      <point x="271" y="-49" type="curve"/>
      <point x="277" y="-35"/>
      <point x="287" y="-16"/>
      <point x="297" y="0" type="curve"/>
      <point x="297" y="0" type="line"/>
      <point x="297" y="662" type="line"/>
      <point x="491" y="662" type="line"/>
      <point x="491" y="693" type="line"/>
      <point x="69" y="693" type="line"/>
      <point x="69" y="662" type="line"/>
      <point x="262" y="662" type="line"/>
      <point x="262" y="0" type="line"/>
      <point x="265" y="0" type="line"/>
      <point x="257" y="-14"/>
      <point x="243" y="-44"/>
      <point x="234" y="-65" type="curve"/>
      <point x="249" y="-70" type="line" smooth="yes"/>
      <point x="293" y="-85"/>
      <point x="308" y="-97"/>
      <point x="308" y="-122" type="curve" smooth="yes"/>
      <point x="308" y="-146"/>
      <point x="287" y="-160"/>
      <point x="246" y="-160" type="curve" smooth="yes"/>
      <point x="230" y="-160"/>
      <point x="210" y="-157"/>
      <point x="195" y="-152" type="curve"/>
      <point x="190" y="-179" type="line"/>
      <point x="208" y="-186"/>
      <point x="228" y="-189"/>
    </contour>
  </outline>
</glyph>
<glyph name="tcedilla" format="2">
  <advance width="560"/>
  <unicode hex="0163"/>
  <outline>
    <contour>
      <point x="316" y="-189" type="curve" smooth="yes"/>
      <point x="372" y="-189"/>
      <point x="406" y="-160"/>
      <point x="406" y="-121" type="curve" smooth="yes"/>
      <point x="406" y="-89"/>
      <point x="383" y="-66"/>
      <point x="337" y="-49" type="curve"/>
      <point x="355" y="-10" type="line"/>
      <point x="410" y="-10"/>
      <point x="447" y="2"/>
      <point x="471" y="13" type="curve"/>
      <point x="463" y="41" type="line"/>
      <point x="434" y="27"/>
      <point x="399" y="20"/>
      <point x="369" y="20" type="curve" smooth="yes"/>
      <point x="280" y="20"/>
      <point x="237" y="59"/>
      <point x="237" y="181" type="curve" smooth="yes"/>
      <point x="237" y="485" type="line"/>
      <point x="452" y="485" type="line"/>
      <point x="452" y="513" type="line"/>
      <point x="237" y="513" type="line"/>
      <point x="237" y="681" type="line"/>
      <point x="204" y="674" type="line"/>
      <point x="204" y="513" type="line"/>
      <point x="85" y="513" type="line"/>
      <point x="85" y="485" type="line"/>
      <point x="204" y="485" type="line"/>
      <point x="204" y="181" type="line" smooth="yes"/>
      <point x="204" y="64"/>
      <point x="245" y="7"/>
      <point x="327" y="-7" type="curve"/>
      <point x="318" y="-25"/>
      <point x="308" y="-47"/>
      <point x="300" y="-65" type="curve"/>
      <point x="306" y="-67" type="line"/>
      <point x="360" y="-87"/>
      <point x="374" y="-98"/>
      <point x="374" y="-122" type="curve" smooth="yes"/>
      <point x="374" y="-146"/>
      <point x="353" y="-160"/>
      <point x="312" y="-160" type="curve" smooth="yes"/>
      <point x="296" y="-160"/>
      <point x="276" y="-157"/>
      <point x="261" y="-152" type="curve"/>
      <point x="256" y="-179" type="line"/>
      <point x="274" y="-186"/>
      <point x="294" y="-189"/>
    </contour>
  </outline>
</glyph>
<glyph name="Tbar" format="2">
  <advance width="560"/>
  <unicode hex="0166"/>
  <outline>
    <contour>
      <point x="264" y="0" type="line"/>
      <point x="297" y="0" type="line"/>
      <point x="297" y="386" type="line"/>
      <point x="414" y="386" type="line"/>
      <point x="414" y="409" type="line"/>
      <point x="297" y="409" type="line"/>
      <point x="297" y="661" type="line"/>
      <point x="491" y="661" type="line"/>
      <point x="491" y="693" type="line"/>
      <point x="69" y="693" type="line"/>
      <point x="69" y="661" type="line"/>
      <point x="264" y="661" type="line"/>
      <point x="264" y="409" type="line"/>
      <point x="142" y="409" type="line"/>
      <point x="142" y="386" type="line"/>
      <point x="264" y="386" type="line"/>
    </contour>
  </outline>
</glyph>
<glyph name="tbar" format="2">
  <advance width="560"/>
  <unicode hex="0167"/>
  <outline>
    <contour>
      <point x="369" y="-10" type="curve" smooth="yes"/>
      <point x="410" y="-10"/>
      <point x="447" y="2"/>
      <point x="471" y="13" type="curve"/>
      <point x="463" y="41" type="line"/>
      <point x="434" y="27"/>
      <point x="399" y="20"/>
      <point x="369" y="20" type="curve" smooth="yes"/>
      <point x="280" y="20"/>
      <point x="237" y="59"/>
      <point x="237" y="181" type="curve" smooth="yes"/>
      <point x="237" y="252" type="line"/>
      <point x="447" y="252" type="line"/>
      <point x="447" y="280" type="line"/>
      <point x="237" y="280" type="line"/>
      <point x="237" y="485" type="line"/>
      <point x="452" y="485" type="line"/>
      <point x="452" y="513" type="line"/>
      <point x="237" y="513" type="line"/>
      <point x="237" y="681" type="line"/>
      <point x="204" y="674" type="line"/>
      <point x="204" y="513" type="line"/>
      <point x="85" y="513" type="line"/>
      <point x="85" y="485" type="line"/>
      <point x="204" y="485" type="line"/>
      <point x="204" y="280" type="line"/>
      <point x="99" y="280" type="line"/>
      <point x="99" y="252" type="line"/>
      <point x="204" y="252" type="line"/>
      <point x="204" y="181" type="line" smooth="yes"/>
      <point x="204" y="45"/>
      <point x="259" y="-10"/>
    </contour>
  </outline>
</glyph>
<glyph name="Uring" format="2">
  <advance width="560"/>
  <unicode hex="016E"/>
  <outline>
    <contour>
      <point x="282" y="-10" type="curve" smooth="yes"/>
      <point x="430" y="-10"/>
      <point x="501" y="74"/>
      <point x="501" y="234" type="curve" smooth="yes"/>
      <point x="501" y="693" type="line"/>
      <point x="466" y="693" type="line"/>
      <point x="466" y="237" type="line" smooth="yes"/>
      <point x="466" y="98"/>
      <point x="410" y="22"/>
      <point x="282" y="22" type="curve" smooth="yes"/>
      <point x="151" y="22"/>
      <point x="94" y="98"/>
      <point x="94" y="237" type="curve" smooth="yes"/>
      <point x="94" y="693" type="line"/>
      <point x="59" y="693" type="line"/>
      <point x="59" y="234" type="line" smooth="yes"/>
      <point x="59" y="72"/>
      <point x="131" y="-10"/>
    </contour>
    <contour>
      <point x="280" y="752" type="curve" smooth="yes"/>
      <point x="325" y="752"/>
      <point x="371" y="782"/>
      <point x="371" y="843" type="curve" smooth="yes"/>
      <point x="371" y="894"/>
      <point x="331" y="934"/>
      <point x="280" y="934" type="curve" smooth="yes"/>
      <point x="228" y="934"/>
      <point x="189" y="896"/>
      <point x="189" y="843" type="curve" smooth="yes"/>
      <point x="189" y="783"/>
      <point x="233" y="752"/>
    </contour>
    <contour>
      <point x="280" y="778" type="curve" smooth="yes"/>
      <point x="242" y="778"/>
      <point x="217" y="805"/>
      <point x="217" y="843" type="curve" smooth="yes"/>
      <point x="217" y="881"/>
      <point x="244" y="908"/>
      <point x="280" y="908" type="curve" smooth="yes"/>
      <point x="315" y="908"/>
      <point x="343" y="881"/>
      <point x="343" y="843" type="curve" smooth="yes"/>
      <point x="343" y="805"/>
      <point x="315" y="778"/>
    </contour>
  </outline>
</glyph>
<glyph name="uogonek" format="2">
  <advance width="560"/>
  <unicode hex="0173"/>
  <outline>
    <contour>
      <point x="421" y="-186" type="curve" smooth="yes"/>
      <point x="436" y="-186"/>
      <point x="451" y="-184"/>
      <point x="465" y="-179" type="curve"/>
      <point x="462" y="-150" type="line"/>
      <point x="449" y="-153"/>
      <point x="438" y="-155"/>
      <point x="429" y="-155" type="curve" smooth="yes"/>
      <point x="396" y="-155"/>
      <point x="378" y="-140"/>
      <point x="378" y="-110" type="curve" smooth="yes"/>
      <point x="378" y="-71"/>
      <point x="409" y="-27"/>
      <point x="465" y="20" type="curve"/>
      <point x="465" y="513" type="line"/>
      <point x="432" y="513" type="line"/>
      <point x="432" y="41" type="line"/>
      <point x="387" y="28"/>
      <point x="334" y="21"/>
      <point x="295" y="21" type="curve" smooth="yes"/>
      <point x="187" y="21"/>
      <point x="126" y="67"/>
      <point x="126" y="213" type="curve" smooth="yes"/>
      <point x="126" y="513" type="line"/>
      <point x="93" y="513" type="line"/>
      <point x="93" y="198" type="line" smooth="yes"/>
      <point x="93" y="46"/>
      <point x="171" y="-9"/>
      <point x="296" y="-9" type="curve" smooth="yes"/>
      <point x="331" y="-9"/>
      <point x="367" y="-5"/>
      <point x="408" y="4" type="curve"/>
      <point x="365" y="-36"/>
      <point x="344" y="-76"/>
      <point x="344" y="-116" type="curve" smooth="yes"/>
      <point x="344" y="-159"/>
      <point x="374" y="-186"/>
    </contour>
  </outline>
</glyph>
<glyph name="longs" format="2">
  <advance width="560"/>
  <unicode hex="017F"/>
  <anchor x="280" y="0" name="bottom"/>
  <anchor x="280" y="582" name="top"/>
  <outline>
    <contour>
      <point x="211" y="0" type="line"/>
      <point x="243" y="0" type="line"/>
      <point x="243" y="582" type="line" smooth="yes"/>
      <point x="243" y="698"/>
      <point x="306" y="745"/>
      <point x="379" y="745" type="curve" smooth="yes"/>
      <point x="436" y="745"/>
      <point x="483" y="733"/>
      <point x="513" y="709" type="curve"/>
      <point x="521" y="747" type="line"/>
      <point x="475" y="758"/>
      <point x="432" y="776"/>
      <point x="384" y="776" type="curve" smooth="yes"/>
      <point x="292" y="776"/>
      <point x="211" y="728"/>
      <point x="211" y="580" type="curve" smooth="yes"/>
    </contour>
  </outline>
</glyph>
<glyph name="bstroke" format="2">
  <advance width="560"/>
  <unicode hex="0180"/>
  <outline>
    <contour>
      <point x="261" y="-7" type="curve" smooth="yes"/>
      <point x="418" y="-7"/>
      <point x="507" y="94"/>
      <point x="507" y="262" type="curve" smooth="yes"/>
      <point x="507" y="427"/>
      <point x="428" y="525"/>
      <point x="296" y="525" type="curve" smooth="yes"/>
      <point x="238" y="525"/>
      <point x="186" y="502"/>
      <point x="153" y="473" type="curve"/>
      <point x="153" y="637" type="line"/>
      <point x="356" y="637" type="line"/>
      <point x="356" y="665" type="line"/>
      <point x="153" y="665" type="line"/>
      <point x="153" y="776" type="line"/>
      <point x="120" y="769" type="line"/>
      <point x="120" y="665" type="line"/>
      <point x="30" y="665" type="line"/>
      <point x="30" y="637" type="line"/>
      <point x="120" y="637" type="line"/>
      <point x="120" y="15" type="line"/>
      <point x="158" y="3"/>
      <point x="219" y="-7"/>
    </contour>
    <contour>
      <point x="263" y="23" type="curve" smooth="yes"/>
      <point x="227" y="23"/>
      <point x="184" y="28"/>
      <point x="153" y="37" type="curve"/>
      <point x="153" y="442" type="line"/>
      <point x="193" y="475"/>
      <point x="242" y="495"/>
      <point x="295" y="495" type="curve" smooth="yes"/>
      <point x="407" y="495"/>
      <point x="472" y="408"/>
      <point x="472" y="262" type="curve" smooth="yes"/>
      <point x="472" y="113"/>
      <point x="403" y="23"/>
    </contour>
  </outline>
</glyph>
<glyph name="uni0180" format="2">
  <advance width="560"/>
  <unicode hex="0180"/>
  <outline>
    <contour>
      <point x="274" y="-12" type="curve" smooth="yes"/>
      <point x="397" y="-12"/>
      <point x="497" y="88"/>
      <point x="497" y="256" type="curve" smooth="yes"/>
      <point x="497" y="410"/>
      <point x="409" y="524"/>
      <point x="278" y="524" type="curve" smooth="yes"/>
      <point x="209" y="524"/>
      <point x="154" y="492"/>
      <point x="149" y="484" type="curve"/>
      <point x="149" y="636" type="line"/>
      <point x="356" y="636" type="line"/>
      <point x="356" y="675" type="line"/>
      <point x="149" y="675" type="line"/>
      <point x="149" y="775" type="line"/>
      <point x="116" y="768" type="line"/>
      <point x="116" y="675" type="line"/>
      <point x="30" y="675" type="line"/>
      <point x="30" y="636" type="line"/>
      <point x="116" y="636" type="line"/>
      <point x="116" y="14" type="line"/>
      <point x="140" y="7"/>
      <point x="182" y="-12"/>
    </contour>
    <contour>
      <point x="254" y="22" type="curve" smooth="yes"/>
      <point x="220" y="22"/>
      <point x="184" y="29"/>
      <point x="149" y="42" type="curve"/>
      <point x="149" y="426" type="line"/>
      <point x="170" y="452"/>
      <point x="229" y="489"/>
      <point x="286" y="489" type="curve" smooth="yes"/>
      <point x="413" y="489"/>
      <point x="459" y="372"/>
      <point x="459" y="251" type="curve" smooth="yes"/>
      <point x="459" y="113"/>
      <point x="381" y="22"/>
    </contour>
  </outline>
</glyph>
<glyph name="uni0181" format="2">
  <advance width="560"/>
  <unicode hex="0181"/>
  <outline>
    <contour>
      <point x="311" y="-4" type="curve" smooth="yes"/>
      <point x="453" y="-4"/>
      <point x="518" y="58"/>
      <point x="518" y="195" type="curve" smooth="yes"/>
      <point x="518" y="288"/>
      <point x="471" y="346"/>
      <point x="394" y="363" type="curve"/>
      <point x="448" y="379"/>
      <point x="493" y="441"/>
      <point x="493" y="519" type="curve" smooth="yes"/>
      <point x="493" y="639"/>
      <point x="422" y="697"/>
      <point x="296" y="697" type="curve" smooth="yes"/>
      <point x="95" y="697"/>
      <point x="40" y="642"/>
      <point x="40" y="542" type="curve" smooth="yes"/>
      <point x="40" y="524"/>
      <point x="43" y="506"/>
      <point x="45" y="500" type="curve"/>
      <point x="73" y="505" type="line"/>
      <point x="71" y="512"/>
      <point x="70" y="527"/>
      <point x="70" y="544" type="curve" smooth="yes"/>
      <point x="70" y="606"/>
      <point x="98" y="646"/>
      <point x="187" y="658" type="curve"/>
      <point x="187" y="14" type="line"/>
      <point x="216" y="5"/>
      <point x="273" y="-4"/>
    </contour>
    <contour>
      <point x="309" y="28" type="curve" smooth="yes"/>
      <point x="286" y="28"/>
      <point x="244" y="32"/>
      <point x="222" y="39" type="curve"/>
      <point x="222" y="342" type="line"/>
      <point x="333" y="342" type="line" smooth="yes"/>
      <point x="428" y="342"/>
      <point x="483" y="292"/>
      <point x="483" y="195" type="curve" smooth="yes"/>
      <point x="483" y="77"/>
      <point x="427" y="28"/>
    </contour>
    <contour>
      <point x="222" y="378" type="line"/>
      <point x="222" y="662" type="line"/>
      <point x="241" y="664"/>
      <point x="266" y="665"/>
      <point x="292" y="665" type="curve" smooth="yes"/>
      <point x="403" y="665"/>
      <point x="458" y="620"/>
      <point x="458" y="523" type="curve" smooth="yes"/>
      <point x="458" y="426"/>
      <point x="401" y="378"/>
      <point x="328" y="378" type="curve" smooth="yes"/>
    </contour>
  </outline>
</glyph>
<glyph name="Btopbar" format="2">
  <advance width="560"/>
  <unicode hex="0182"/>
  <outline>
    <contour>
      <point x="232" y="-6" type="curve" smooth="yes"/>
      <point x="417" y="-6"/>
      <point x="512" y="64"/>
      <point x="512" y="204" type="curve" smooth="yes"/>
      <point x="512" y="374"/>
      <point x="397" y="413"/>
      <point x="234" y="413" type="curve" smooth="yes"/>
      <point x="119" y="413" type="line"/>
      <point x="119" y="662" type="line"/>
      <point x="450" y="662" type="line"/>
      <point x="450" y="693" type="line"/>
      <point x="84" y="693" type="line"/>
      <point x="84" y="16" type="line"/>
      <point x="118" y="3"/>
      <point x="181" y="-6"/>
    </contour>
    <contour>
      <point x="230" y="28" type="curve" smooth="yes"/>
      <point x="190" y="28"/>
      <point x="153" y="32"/>
      <point x="119" y="41" type="curve"/>
      <point x="119" y="379" type="line"/>
      <point x="245" y="379" type="line" smooth="yes"/>
      <point x="406" y="379"/>
      <point x="475" y="324"/>
      <point x="475" y="207" type="curve" smooth="yes"/>
      <point x="475" y="88"/>
      <point x="392" y="28"/>
    </contour>
  </outline>
</glyph>
<glyph name="uni0182" format="2">
  <advance width="560"/>
  <unicode hex="0182"/>
  <outline>
    <contour>
      <point x="232" y="-6" type="curve" smooth="yes"/>
      <point x="417" y="-6"/>
      <point x="512" y="64"/>
      <point x="512" y="204" type="curve" smooth="yes"/>
      <point x="512" y="374"/>
      <point x="397" y="413"/>
      <point x="234" y="413" type="curve" smooth="yes"/>
      <point x="119" y="413" type="line"/>
      <point x="119" y="662" type="line"/>
      <point x="450" y="662" type="line"/>
      <point x="450" y="693" type="line"/>
      <point x="84" y="693" type="line"/>
      <point x="84" y="16" type="line"/>
      <point x="118" y="3"/>
      <point x="181" y="-6"/>
    </contour>
    <contour>
      <point x="230" y="28" type="curve" smooth="yes"/>
      <point x="190" y="28"/>
      <point x="153" y="32"/>
      <point x="119" y="41" type="curve"/>
      <point x="119" y="379" type="line"/>
      <point x="245" y="379" type="line" smooth="yes"/>
      <point x="406" y="379"/>
      <point x="475" y="324"/>
      <point x="475" y="207" type="curve" smooth="yes"/>
      <point x="475" y="88"/>
      <point x="392" y="28"/>
    </contour>
  </outline>
</glyph>
<glyph name="uni0185" format="2">
  <advance width="560"/>
  <unicode hex="0185"/>
  <outline>
    <contour>
      <point x="248" y="-6" type="curve" smooth="yes"/>
      <point x="415" y="-6"/>
      <point x="494" y="64"/>
      <point x="494" y="212" type="curve" smooth="yes"/>
      <point x="494" y="354"/>
      <point x="413" y="425"/>
      <point x="250" y="425" type="curve" smooth="yes"/>
      <point x="205" y="425"/>
      <point x="142" y="422"/>
      <point x="119" y="416" type="curve"/>
      <point x="119" y="695" type="line"/>
      <point x="95" y="690"/>
      <point x="43" y="666"/>
      <point x="25" y="652" type="curve"/>
      <point x="86" y="590" type="line"/>
      <point x="86" y="10" type="line"/>
      <point x="117" y="-1"/>
      <point x="180" y="-6"/>
    </contour>
    <contour>
      <point x="244" y="24" type="curve" smooth="yes"/>
      <point x="205" y="24"/>
      <point x="152" y="28"/>
      <point x="119" y="33" type="curve"/>
      <point x="119" y="386" type="line"/>
      <point x="149" y="391"/>
      <point x="207" y="395"/>
      <point x="245" y="395" type="curve" smooth="yes"/>
      <point x="392" y="392"/>
      <point x="459" y="335"/>
      <point x="459" y="212" type="curve" smooth="yes"/>
      <point x="459" y="84"/>
      <point x="391" y="24"/>
    </contour>
  </outline>
</glyph>
<glyph name="Oopen" format="2">
  <advance width="560"/>
  <unicode hex="0186"/>
  <unicode hex="0254"/>
  <anchor x="280" y="0" name="bottom"/>
  <anchor x="280" y="776" name="top"/>
  <outline>
    <contour>
      <point x="217" y="-12" type="curve" smooth="yes"/>
      <point x="380" y="-12"/>
      <point x="482" y="132"/>
      <point x="482" y="347" type="curve" smooth="yes"/>
      <point x="482" y="558"/>
      <point x="377" y="707"/>
      <point x="222" y="707" type="curve" smooth="yes"/>
      <point x="162" y="707"/>
      <point x="113" y="691"/>
      <point x="77" y="666" type="curve"/>
      <point x="91" y="637" type="line"/>
      <point x="123" y="658"/>
      <point x="170" y="675"/>
      <point x="222" y="675" type="curve" smooth="yes"/>
      <point x="353" y="675"/>
      <point x="446" y="540"/>
      <point x="446" y="347" type="curve" smooth="yes"/>
      <point x="446" y="151"/>
      <point x="353" y="20"/>
      <point x="217" y="20" type="curve" smooth="yes"/>
      <point x="165" y="20"/>
      <point x="115" y="33"/>
      <point x="78" y="54" type="curve"/>
      <point x="68" y="25" type="line"/>
      <point x="105" y="2"/>
      <point x="161" y="-12"/>
    </contour>
  </outline>
</glyph>
<glyph name="Chook" format="2">
  <advance width="560"/>
  <unicode hex="0187"/>
  <anchor x="280" y="0" name="bottom"/>
  <anchor x="280" y="776" name="top"/>
  <outline>
    <contour>
      <point x="324" y="-10" type="curve" smooth="yes"/>
      <point x="376" y="-10"/>
      <point x="429" y="4"/>
      <point x="464" y="27" type="curve"/>
      <point x="455" y="56" type="line"/>
      <point x="420" y="35"/>
      <point x="372" y="22"/>
      <point x="325" y="22" type="curve" smooth="yes"/>
      <point x="199" y="22"/>
      <point x="113" y="155"/>
      <point x="113" y="347" type="curve" smooth="yes"/>
      <point x="113" y="539"/>
      <point x="202" y="671"/>
      <point x="328" y="671" type="curve" smooth="yes"/>
      <point x="372" y="671"/>
      <point x="415" y="658"/>
      <point x="446" y="638" type="curve"/>
      <point x="454" y="675" type="line" smooth="yes"/>
      <point x="465" y="731"/>
      <point x="478" y="749"/>
      <point x="505" y="749" type="curve" smooth="yes"/>
      <point x="514" y="749"/>
      <point x="525" y="747"/>
      <point x="535" y="744" type="curve"/>
      <point x="542" y="775" type="line"/>
      <point x="531" y="779"/>
      <point x="519" y="781"/>
      <point x="507" y="781" type="curve" smooth="yes"/>
      <point x="462" y="781"/>
      <point x="439" y="749"/>
      <point x="426" y="682" type="curve"/>
      <point x="398" y="696"/>
      <point x="365" y="703"/>
      <point x="327" y="703" type="curve" smooth="yes"/>
      <point x="180" y="703"/>
      <point x="77" y="556"/>
      <point x="77" y="347" type="curve" smooth="yes"/>
      <point x="77" y="134"/>
      <point x="173" y="-10"/>
    </contour>
  </outline>
</glyph>
<glyph name="uni0188" format="2">
  <advance width="560"/>
  <unicode hex="0188"/>
  <anchor x="279" y="0" name="bottom"/>
  <anchor x="279" y="582" name="top"/>
  <outline>
    <contour>
      <point x="304" y="-6" type="curve" smooth="yes"/>
      <point x="354" y="-6"/>
      <point x="415" y="7"/>
      <point x="449" y="24" type="curve"/>
      <point x="441" y="53" type="line"/>
      <point x="408" y="37"/>
      <point x="350" y="24"/>
      <point x="304" y="24" type="curve" smooth="yes"/>
      <point x="174" y="24"/>
      <point x="105" y="104"/>
      <point x="105" y="254" type="curve" smooth="yes"/>
      <point x="105" y="407"/>
      <point x="174" y="494"/>
      <point x="299" y="494" type="curve" smooth="yes"/>
      <point x="338" y="494"/>
      <point x="382" y="488"/>
      <point x="414" y="471" type="curve"/>
      <point x="421" y="507" type="line" smooth="yes"/>
      <point x="431" y="559"/>
      <point x="450" y="586"/>
      <point x="477" y="586" type="curve" smooth="yes"/>
      <point x="493" y="586"/>
      <point x="508" y="584"/>
      <point x="523" y="580" type="curve"/>
      <point x="529" y="609" type="line"/>
      <point x="517" y="613"/>
      <point x="499" y="616"/>
      <point x="480" y="616" type="curve" smooth="yes"/>
      <point x="434" y="616"/>
      <point x="405" y="585"/>
      <point x="391" y="513" type="curve"/>
      <point x="366" y="521"/>
      <point x="338" y="524"/>
      <point x="299" y="524" type="curve" smooth="yes"/>
      <point x="158" y="524"/>
      <point x="70" y="423"/>
      <point x="70" y="254" type="curve" smooth="yes"/>
      <point x="70" y="87"/>
      <point x="155" y="-6"/>
    </contour>
  </outline>
</glyph>
<glyph name="Dhook" format="2">
  <advance width="560"/>
  <unicode hex="018A"/>
  <unicode hex="0257"/>
  <anchor x="280" y="0" name="bottom"/>
  <anchor x="280" y="776" name="top"/>
  <outline>
    <contour>
      <point x="306" y="-4" type="curve" smooth="yes"/>
      <point x="450" y="-4"/>
      <point x="542" y="123"/>
      <point x="542" y="347" type="curve" smooth="yes"/>
      <point x="542" y="570"/>
      <point x="460" y="700"/>
      <point x="284" y="700" type="curve" smooth="yes"/>
      <point x="110" y="700"/>
      <point x="55" y="644"/>
      <point x="55" y="542" type="curve" smooth="yes"/>
      <point x="55" y="524"/>
      <point x="58" y="506"/>
      <point x="60" y="500" type="curve"/>
      <point x="88" y="505" type="line"/>
      <point x="86" y="512"/>
      <point x="85" y="527"/>
      <point x="85" y="544" type="curve" smooth="yes"/>
      <point x="85" y="609"/>
      <point x="113" y="651"/>
      <point x="202" y="663" type="curve"/>
      <point x="202" y="12" type="line"/>
      <point x="228" y="3"/>
      <point x="272" y="-4"/>
    </contour>
    <contour>
      <point x="307" y="33" type="curve" smooth="yes"/>
      <point x="276" y="33"/>
      <point x="255" y="36"/>
      <point x="237" y="40" type="curve"/>
      <point x="237" y="667" type="line"/>
      <point x="256" y="668"/>
      <point x="276" y="668"/>
      <point x="286" y="668" type="curve"/>
      <point x="429" y="668"/>
      <point x="506" y="553"/>
      <point x="506" y="347" type="curve" smooth="yes"/>
      <point x="506" y="147"/>
      <point x="432" y="33"/>
    </contour>
  </outline>
</glyph>
<glyph name="uni018A" format="2">
  <advance width="560"/>
  <unicode hex="018A"/>
  <anchor x="280" y="0" name="bottom"/>
  <anchor x="280" y="776" name="top"/>
  <outline>
    <contour>
      <point x="312" y="-3" type="curve" smooth="yes"/>
      <point x="436" y="-3"/>
      <point x="540" y="99"/>
      <point x="540" y="347" type="curve" smooth="yes"/>
      <point x="540" y="611"/>
      <point x="408" y="699"/>
      <point x="316" y="699" type="curve" smooth="yes"/>
      <point x="281" y="699"/>
      <point x="50" y="733"/>
      <point x="50" y="536" type="curve" smooth="yes"/>
      <point x="50" y="524"/>
      <point x="55" y="512"/>
      <point x="49" y="530" type="curve"/>
      <point x="91" y="534" type="line"/>
      <point x="94" y="541"/>
      <point x="97" y="548"/>
      <point x="97" y="542" type="curve" smooth="yes"/>
      <point x="97" y="597"/>
      <point x="120" y="622"/>
      <point x="189" y="638" type="curve"/>
      <point x="189" y="15" type="line"/>
      <point x="215" y="9"/>
      <point x="273" y="-3"/>
    </contour>
    <contour>
      <point x="291" y="27" type="curve" smooth="yes"/>
      <point x="280" y="27"/>
      <point x="263" y="29"/>
      <point x="248" y="33" type="curve"/>
      <point x="248" y="652" type="line"/>
      <point x="251" y="653"/>
      <point x="262" y="658"/>
      <point x="279" y="658" type="curve" smooth="yes"/>
      <point x="374" y="658"/>
      <point x="478" y="627"/>
      <point x="478" y="342" type="curve" smooth="yes"/>
      <point x="478" y="71"/>
      <point x="375" y="27"/>
    </contour>
  </outline>
</glyph>
<glyph name="Dtopbar" format="2">
  <advance width="560"/>
  <unicode hex="018B"/>
  <anchor x="280" y="0" name="bottom"/>
  <anchor x="280" y="776" name="top"/>
  <outline>
    <contour>
      <point x="328" y="-6" type="curve" smooth="yes"/>
      <point x="379" y="-6"/>
      <point x="442" y="3"/>
      <point x="476" y="16" type="curve"/>
      <point x="476" y="693" type="line"/>
      <point x="110" y="693" type="line"/>
      <point x="110" y="662" type="line"/>
      <point x="441" y="662" type="line"/>
      <point x="441" y="413" type="line"/>
      <point x="326" y="413" type="line" smooth="yes"/>
      <point x="163" y="413"/>
      <point x="48" y="374"/>
      <point x="48" y="204" type="curve" smooth="yes"/>
      <point x="48" y="64"/>
      <point x="143" y="-6"/>
    </contour>
    <contour>
      <point x="330" y="28" type="curve" smooth="yes"/>
      <point x="168" y="28"/>
      <point x="85" y="88"/>
      <point x="85" y="207" type="curve" smooth="yes"/>
      <point x="85" y="324"/>
      <point x="154" y="379"/>
      <point x="315" y="379" type="curve" smooth="yes"/>
      <point x="441" y="379" type="line"/>
      <point x="441" y="41" type="line"/>
      <point x="407" y="32"/>
      <point x="370" y="28"/>
    </contour>
  </outline>
</glyph>
<glyph name="uni018B" format="2">
  <advance width="560"/>
  <unicode hex="018B"/>
  <anchor x="280" y="0" name="bottom"/>
  <anchor x="280" y="776" name="top"/>
  <outline>
    <contour>
      <point x="328" y="-6" type="curve" smooth="yes"/>
      <point x="379" y="-6"/>
      <point x="442" y="3"/>
      <point x="476" y="16" type="curve"/>
      <point x="476" y="693" type="line"/>
      <point x="110" y="693" type="line"/>
      <point x="110" y="662" type="line"/>
      <point x="441" y="662" type="line"/>
      <point x="441" y="413" type="line"/>
      <point x="326" y="413" type="line" smooth="yes"/>
      <point x="163" y="413"/>
      <point x="48" y="374"/>
      <point x="48" y="204" type="curve" smooth="yes"/>
      <point x="48" y="64"/>
      <point x="143" y="-6"/>
    </contour>
    <contour>
      <point x="330" y="28" type="curve" smooth="yes"/>
      <point x="168" y="28"/>
      <point x="85" y="88"/>
      <point x="85" y="207" type="curve" smooth="yes"/>
      <point x="85" y="324"/>
      <point x="154" y="379"/>
      <point x="315" y="379" type="curve" smooth="yes"/>
      <point x="441" y="379" type="line"/>
      <point x="441" y="41" type="line"/>
      <point x="407" y="32"/>
      <point x="370" y="28"/>
    </contour>
  </outline>
</glyph>
<glyph name="dtopbar" format="2">
  <advance width="560"/>
  <unicode hex="018C"/>
  <anchor x="279" y="0" name="bottom"/>
  <anchor x="279" y="582" name="top"/>
  <outline>
    <contour>
      <point x="314" y="-7" type="curve" smooth="yes"/>
      <point x="360" y="-7"/>
      <point x="432" y="3"/>
      <point x="470" y="15" type="curve"/>
      <point x="470" y="776" type="line"/>
      <point x="117" y="776" type="line"/>
      <point x="117" y="748" type="line"/>
      <point x="437" y="748" type="line"/>
      <point x="437" y="473" type="line"/>
      <point x="401" y="502"/>
      <point x="343" y="525"/>
      <point x="279" y="525" type="curve" smooth="yes"/>
      <point x="138" y="525"/>
      <point x="53" y="427"/>
      <point x="53" y="262" type="curve" smooth="yes"/>
      <point x="53" y="94"/>
      <point x="147" y="-7"/>
    </contour>
    <contour>
      <point x="312" y="23" type="curve" smooth="yes"/>
      <point x="162" y="23"/>
      <point x="88" y="113"/>
      <point x="88" y="262" type="curve" smooth="yes"/>
      <point x="88" y="408"/>
      <point x="159" y="495"/>
      <point x="280" y="495" type="curve" smooth="yes"/>
      <point x="339" y="495"/>
      <point x="393" y="475"/>
      <point x="437" y="442" type="curve"/>
      <point x="437" y="37" type="line"/>
      <point x="402" y="28"/>
      <point x="353" y="23"/>
    </contour>
  </outline>
</glyph>
<glyph name="uni018E" format="2">
  <advance width="560"/>
  <unicode hex="018E"/>
  <anchor x="280" y="0" name="bottom"/>
  <anchor x="280" y="776" name="top"/>
  <outline>
    <contour>
      <point x="428" y="0" type="line"/>
      <point x="428" y="693" type="line"/>
      <point x="84" y="693" type="line"/>
      <point x="84" y="662" type="line"/>
      <point x="393" y="662" type="line"/>
      <point x="393" y="375" type="line"/>
      <point x="121" y="375" type="line"/>
      <point x="121" y="344" type="line"/>
      <point x="393" y="344" type="line"/>
      <point x="393" y="31" type="line"/>
      <point x="61" y="31" type="line"/>
      <point x="61" y="0" type="line"/>
    </contour>
  </outline>
</glyph>
<glyph name="Schwa" format="2">
  <advance width="560"/>
  <unicode hex="018F"/>
  <anchor x="279" y="0" name="bottom"/>
  <anchor x="279" y="776" name="top"/>
  <outline>
    <contour>
      <point x="273" y="-10" type="curve" smooth="yes"/>
      <point x="443" y="-10"/>
      <point x="527" y="161"/>
      <point x="527" y="334" type="curve" smooth="yes"/>
      <point x="527" y="585"/>
      <point x="439" y="703"/>
      <point x="247" y="703" type="curve" smooth="yes"/>
      <point x="192" y="703"/>
      <point x="137" y="688"/>
      <point x="95" y="661" type="curve"/>
      <point x="105" y="633" type="line"/>
      <point x="148" y="656"/>
      <point x="192" y="671"/>
      <point x="246" y="671" type="curve" smooth="yes"/>
      <point x="411" y="671"/>
      <point x="488" y="568"/>
      <point x="491" y="346" type="curve"/>
      <point x="44" y="346" type="line"/>
      <point x="42" y="330"/>
      <point x="41" y="316"/>
      <point x="41" y="299" type="curve" smooth="yes"/>
      <point x="41" y="124"/>
      <point x="119" y="-10"/>
    </contour>
    <contour>
      <point x="273" y="22" type="curve" smooth="yes"/>
      <point x="149" y="22"/>
      <point x="77" y="120"/>
      <point x="77" y="312" type="curve"/>
      <point x="490" y="312" type="line"/>
      <point x="484" y="164"/>
      <point x="416" y="22"/>
    </contour>
  </outline>
</glyph>
<glyph name="Eopen" format="2">
  <advance width="560"/>
  <unicode hex="0190"/>
  <unicode hex="025B"/>
  <anchor x="278" y="0" name="bottom"/>
  <anchor x="278" y="776" name="top"/>
  <outline>
    <contour>
      <point x="310" y="-10" type="curve" smooth="yes"/>
      <point x="391" y="-10"/>
      <point x="462" y="8"/>
      <point x="506" y="33" type="curve"/>
      <point x="494" y="61" type="line"/>
      <point x="447" y="37"/>
      <point x="385" y="22"/>
      <point x="310" y="22" type="curve" smooth="yes"/>
      <point x="194" y="22"/>
      <point x="100" y="76"/>
      <point x="100" y="191" type="curve" smooth="yes"/>
      <point x="100" y="303"/>
      <point x="176" y="354"/>
      <point x="342" y="354" type="curve" smooth="yes"/>
      <point x="396" y="354" type="line"/>
      <point x="396" y="386" type="line"/>
      <point x="342" y="386" type="line" smooth="yes"/>
      <point x="204" y="386"/>
      <point x="133" y="439"/>
      <point x="133" y="540" type="curve" smooth="yes"/>
      <point x="133" y="624"/>
      <point x="199" y="671"/>
      <point x="309" y="671" type="curve" smooth="yes"/>
      <point x="368" y="671"/>
      <point x="423" y="657"/>
      <point x="465" y="633" type="curve"/>
      <point x="479" y="660" type="line"/>
      <point x="437" y="687"/>
      <point x="374" y="703"/>
      <point x="309" y="703" type="curve" smooth="yes"/>
      <point x="198" y="703"/>
      <point x="97" y="651"/>
      <point x="97" y="542" type="curve" smooth="yes"/>
      <point x="97" y="447"/>
      <point x="152" y="387"/>
      <point x="245" y="372" type="curve"/>
      <point x="128" y="360"/>
      <point x="64" y="298"/>
      <point x="64" y="191" type="curve" smooth="yes"/>
      <point x="64" y="41"/>
      <point x="185" y="-10"/>
    </contour>
  </outline>
</glyph>
<glyph name="florin" format="2">
  <advance width="560"/>
  <unicode hex="0192"/>
  <outline>
    <contour>
      <point x="91" y="-190" type="curve" smooth="yes"/>
      <point x="161" y="-190"/>
      <point x="243" y="-143"/>
      <point x="243" y="-38" type="curve" smooth="yes"/>
      <point x="243" y="484" type="line"/>
      <point x="441" y="484" type="line"/>
      <point x="441" y="512" type="line"/>
      <point x="243" y="512" type="line"/>
      <point x="243" y="580" type="line" smooth="yes"/>
      <point x="243" y="702"/>
      <point x="294" y="746"/>
      <point x="400" y="746" type="curve" smooth="yes"/>
      <point x="435" y="746"/>
      <point x="475" y="737"/>
      <point x="509" y="720" type="curve"/>
      <point x="517" y="749" type="line"/>
      <point x="489" y="763"/>
      <point x="447" y="776"/>
      <point x="400" y="776" type="curve" smooth="yes"/>
      <point x="273" y="776"/>
      <point x="210" y="715"/>
      <point x="210" y="580" type="curve" smooth="yes"/>
      <point x="210" y="512" type="line"/>
      <point x="112" y="512" type="line"/>
      <point x="112" y="484" type="line"/>
      <point x="210" y="484" type="line"/>
      <point x="210" y="-26" type="line" smooth="yes"/>
      <point x="210" y="-130"/>
      <point x="150" y="-160"/>
      <point x="94" y="-160" type="curve" smooth="yes"/>
      <point x="76" y="-160"/>
      <point x="49" y="-158"/>
      <point x="31" y="-153" type="curve"/>
      <point x="24" y="-184" type="line"/>
      <point x="36" y="-187"/>
      <point x="64" y="-190"/>
    </contour>
  </outline>
</glyph>
<glyph name="uni0193" format="2">
  <advance width="560"/>
  <unicode hex="0193"/>
  <anchor x="280" y="0" name="bottom"/>
  <anchor x="280" y="776" name="top"/>
  <outline>
    <contour>
      <point x="349" y="-15" type="curve" smooth="yes"/>
      <point x="415" y="-15"/>
      <point x="474" y="11"/>
      <point x="497" y="17" type="curve"/>
      <point x="497" y="316" type="line"/>
      <point x="463" y="316" type="line"/>
      <point x="463" y="42" type="line"/>
      <point x="461" y="32"/>
      <point x="438" y="16"/>
      <point x="358" y="16" type="curve" smooth="yes"/>
      <point x="179" y="16"/>
      <point x="119" y="178"/>
      <point x="119" y="347" type="curve" smooth="yes"/>
      <point x="119" y="526"/>
      <point x="207" y="675"/>
      <point x="330" y="675" type="curve" smooth="yes"/>
      <point x="362" y="675"/>
      <point x="392" y="667"/>
      <point x="428" y="641" type="curve"/>
      <point x="424" y="647" type="line"/>
      <point x="431" y="686"/>
      <point x="426" y="761"/>
      <point x="474" y="761" type="curve" smooth="yes"/>
      <point x="466" y="761"/>
      <point x="495" y="757"/>
      <point x="497" y="752" type="curve"/>
      <point x="494" y="773" type="line"/>
      <point x="499" y="780"/>
      <point x="476" y="786"/>
      <point x="471" y="786" type="curve" smooth="yes"/>
      <point x="401" y="786"/>
      <point x="392" y="777"/>
      <point x="379" y="697" type="curve"/>
      <point x="364" y="709"/>
      <point x="346" y="709"/>
      <point x="325" y="709" type="curve" smooth="yes"/>
      <point x="232" y="709"/>
      <point x="84" y="592"/>
      <point x="84" y="347" type="curve" smooth="yes"/>
      <point x="84" y="126"/>
      <point x="167" y="-15"/>
    </contour>
  </outline>
</glyph>
<glyph name="Gamma-latin" format="2">
  <advance width="560"/>
  <unicode hex="0194"/>
  <unicode hex="0263"/>
  <anchor x="280" y="0" name="bottom"/>
  <anchor x="280" y="776" name="top"/>
  <outline>
    <contour>
      <point x="279" y="-185" type="curve" smooth="yes"/>
      <point x="345" y="-185"/>
      <point x="386" y="-137"/>
      <point x="386" y="-66" type="curve" smooth="yes"/>
      <point x="386" y="-22"/>
      <point x="374" y="22"/>
      <point x="317" y="120" type="curve"/>
      <point x="301" y="145" type="line"/>
      <point x="381" y="293"/>
      <point x="473" y="519"/>
      <point x="533" y="693" type="curve"/>
      <point x="495" y="693" type="line"/>
      <point x="421" y="477"/>
      <point x="347" y="304"/>
      <point x="280" y="176" type="curve"/>
      <point x="218" y="295"/>
      <point x="143" y="472"/>
      <point x="65" y="693" type="curve"/>
      <point x="27" y="693" type="line"/>
      <point x="90" y="514"/>
      <point x="182" y="292"/>
      <point x="258" y="146" type="curve"/>
      <point x="242" y="120" type="line"/>
      <point x="193" y="34"/>
      <point x="174" y="-16"/>
      <point x="174" y="-66" type="curve" smooth="yes"/>
      <point x="174" y="-138"/>
      <point x="214" y="-185"/>
    </contour>
    <contour>
      <point x="279" y="-153" type="curve" smooth="yes"/>
      <point x="239" y="-153"/>
      <point x="210" y="-119"/>
      <point x="210" y="-66" type="curve" smooth="yes"/>
      <point x="210" y="-19"/>
      <point x="229" y="33"/>
      <point x="279" y="122" type="curve"/>
      <point x="331" y="35"/>
      <point x="350" y="-20"/>
      <point x="350" y="-66" type="curve" smooth="yes"/>
      <point x="350" y="-118"/>
      <point x="321" y="-153"/>
    </contour>
  </outline>
</glyph>
<glyph name="uni0194" format="2">
  <advance width="560"/>
  <unicode hex="0194"/>
  <anchor x="280" y="0" name="bottom"/>
  <anchor x="280" y="776" name="top"/>
  <outline>
    <contour>
      <point x="279" y="-183" type="curve" smooth="yes"/>
      <point x="370" y="-183"/>
      <point x="376" y="-87"/>
      <point x="376" y="-67" type="curve" smooth="yes"/>
      <point x="376" y="-103"/>
      <point x="388" y="-101"/>
      <point x="417" y="-134" type="curve" smooth="yes"/>
      <point x="298" y="96" type="line"/>
      <point x="418" y="351"/>
      <point x="537" y="678"/>
      <point x="537" y="693" type="curve"/>
      <point x="493" y="693" type="line"/>
      <point x="487" y="689"/>
      <point x="370" y="366"/>
      <point x="282" y="155" type="curve"/>
      <point x="163" y="447"/>
      <point x="121" y="547"/>
      <point x="68" y="693" type="curve"/>
      <point x="27" y="693" type="line"/>
      <point x="92" y="472"/>
      <point x="173" y="266"/>
      <point x="261" y="102" type="curve"/>
      <point x="145" y="-131" type="line" smooth="yes"/>
      <point x="166" y="-113"/>
      <point x="179" y="-93"/>
      <point x="179" y="-64" type="curve" smooth="yes"/>
      <point x="179" y="-87"/>
      <point x="188" y="-183"/>
    </contour>
    <contour>
      <point x="279" y="-150" type="curve" smooth="yes"/>
      <point x="241" y="-150"/>
      <point x="213" y="-108"/>
      <point x="213" y="-66" type="curve" smooth="yes"/>
      <point x="213" y="-81"/>
      <point x="187" y="-120"/>
      <point x="276" y="66" type="curve"/>
      <point x="356" y="-92"/>
      <point x="345" y="-76"/>
      <point x="345" y="-66" type="curve" smooth="yes"/>
      <point x="345" y="-108"/>
      <point x="317" y="-150"/>
    </contour>
  </outline>
</glyph>
<glyph name="hv" format="2">
  <advance width="560"/>
  <unicode hex="0195"/>
  <outline>
    <contour>
      <point x="382" y="-7" type="curve" smooth="yes"/>
      <point x="469" y="-7"/>
      <point x="500" y="55"/>
      <point x="500" y="143" type="curve" smooth="yes"/>
      <point x="500" y="513" type="line"/>
      <point x="467" y="513" type="line"/>
      <point x="467" y="145" type="line" smooth="yes"/>
      <point x="467" y="69"/>
      <point x="444" y="23"/>
      <point x="382" y="23" type="curve" smooth="yes"/>
      <point x="321" y="23"/>
      <point x="297" y="69"/>
      <point x="297" y="145" type="curve" smooth="yes"/>
      <point x="297" y="399" type="line" smooth="yes"/>
      <point x="297" y="483"/>
      <point x="260" y="524"/>
      <point x="182" y="524" type="curve" smooth="yes"/>
      <point x="154" y="524"/>
      <point x="125" y="515"/>
      <point x="98" y="503" type="curve"/>
      <point x="98" y="776" type="line"/>
      <point x="65" y="769" type="line"/>
      <point x="65" y="0" type="line"/>
      <point x="98" y="0" type="line"/>
      <point x="98" y="474" type="line"/>
      <point x="117" y="484"/>
      <point x="150" y="494"/>
      <point x="176" y="494" type="curve" smooth="yes"/>
      <point x="240" y="494"/>
      <point x="264" y="463"/>
      <point x="264" y="399" type="curve" smooth="yes"/>
      <point x="264" y="143" type="line" smooth="yes"/>
      <point x="264" y="55"/>
      <point x="295" y="-7"/>
    </contour>
  </outline>
</glyph>
<glyph name="Iota-latin" format="2">
  <advance width="560"/>
  <unicode hex="0196"/>
  <unicode hex="0269"/>
  <anchor x="280" y="0" name="bottom"/>
  <anchor x="280" y="776" name="top"/>
  <outline>
    <contour>
      <point x="403" y="-10" type="curve" smooth="yes"/>
      <point x="430" y="-10"/>
      <point x="460" y="-3"/>
      <point x="482" y="9" type="curve"/>
      <point x="477" y="38" type="line"/>
      <point x="450" y="26"/>
      <point x="425" y="22"/>
      <point x="403" y="22" type="curve" smooth="yes"/>
      <point x="328" y="22"/>
      <point x="296" y="57"/>
      <point x="296" y="139" type="curve" smooth="yes"/>
      <point x="296" y="662" type="line"/>
      <point x="452" y="662" type="line"/>
      <point x="452" y="693" type="line"/>
      <point x="129" y="693" type="line"/>
      <point x="129" y="662" type="line"/>
      <point x="261" y="662" type="line"/>
      <point x="261" y="139" type="line" smooth="yes"/>
      <point x="261" y="29"/>
      <point x="306" y="-10"/>
    </contour>
  </outline>
</glyph>
<glyph name="uni0197" format="2">
  <advance width="560"/>
  <unicode hex="0197"/>
  <outline>
    <contour>
      <point x="152" y="0" type="line"/>
      <point x="407" y="0" type="line"/>
      <point x="407" y="31" type="line"/>
      <point x="297" y="31" type="line"/>
      <point x="298" y="350" type="line"/>
      <point x="399" y="350" type="line"/>
      <point x="399" y="380" type="line"/>
      <point x="298" y="380" type="line"/>
      <point x="298" y="662" type="line"/>
      <point x="408" y="662" type="line"/>
      <point x="407" y="693" type="line"/>
      <point x="153" y="693" type="line"/>
      <point x="153" y="662" type="line"/>
      <point x="263" y="662" type="line"/>
      <point x="263" y="380" type="line"/>
      <point x="160" y="380" type="line"/>
      <point x="160" y="350" type="line"/>
      <point x="263" y="350" type="line"/>
      <point x="262" y="31" type="line"/>
      <point x="152" y="31" type="line"/>
    </contour>
  </outline>
</glyph>
<glyph name="Khook" format="2">
  <advance width="560"/>
  <unicode hex="0198"/>
  <anchor x="279" y="0" name="bottom"/>
  <anchor x="279" y="685" name="top"/>
  <outline>
    <contour>
      <point x="84" y="0" type="line"/>
      <point x="119" y="0" type="line"/>
      <point x="119" y="345" type="line"/>
      <point x="233" y="290"/>
      <point x="402" y="130"/>
      <point x="492" y="0" type="curve"/>
      <point x="532" y="0" type="line"/>
      <point x="440" y="148"/>
      <point x="278" y="290"/>
      <point x="160" y="362" type="curve"/>
      <point x="369" y="615" type="line" smooth="yes"/>
      <point x="407" y="661"/>
      <point x="432" y="675"/>
      <point x="461" y="675" type="curve" smooth="yes"/>
      <point x="484" y="675"/>
      <point x="505" y="669"/>
      <point x="529" y="649" type="curve"/>
      <point x="548" y="674" type="line"/>
      <point x="519" y="699"/>
      <point x="493" y="707"/>
      <point x="461" y="707" type="curve" smooth="yes"/>
      <point x="422" y="707"/>
      <point x="391" y="688"/>
      <point x="349" y="640" type="curve"/>
      <point x="119" y="365" type="line"/>
      <point x="119" y="693" type="line"/>
      <point x="84" y="693" type="line"/>
    </contour>
  </outline>
</glyph>
<glyph name="uni0198" format="2">
  <advance width="560"/>
  <unicode hex="0198"/>
  <anchor x="279" y="0" name="bottom"/>
  <anchor x="279" y="776" name="top"/>
  <outline>
    <contour>
      <point x="103" y="0" type="line"/>
      <point x="136" y="0" type="line"/>
      <point x="136" y="352" type="line"/>
      <point x="259" y="290"/>
      <point x="384" y="200"/>
      <point x="510" y="0" type="curve"/>
      <point x="547" y="0" type="line"/>
      <point x="465" y="171"/>
      <point x="279" y="318"/>
      <point x="199" y="372" type="curve"/>
      <point x="328" y="537" type="line" smooth="yes"/>
      <point x="407" y="642"/>
      <point x="432" y="693"/>
      <point x="462" y="693" type="curve" smooth="yes"/>
      <point x="472" y="693"/>
      <point x="500" y="679"/>
      <point x="527" y="649" type="curve"/>
      <point x="540" y="671" type="line"/>
      <point x="543" y="674"/>
      <point x="503" y="706"/>
      <point x="468" y="706" type="curve" smooth="yes"/>
      <point x="443" y="706"/>
      <point x="409" y="723"/>
      <point x="379" y="683" type="curve" smooth="yes"/>
      <point x="136" y="358" type="line"/>
      <point x="136" y="693" type="line"/>
      <point x="103" y="693" type="line"/>
    </contour>
  </outline>
</glyph>
<glyph name="khook" format="2">
  <advance width="560"/>
  <unicode hex="0199"/>
  <anchor x="279" y="0" name="bottom"/>
  <anchor x="279" y="582" name="top"/>
  <outline>
    <contour>
      <point x="95" y="0" type="line"/>
      <point x="128" y="0" type="line"/>
      <point x="128" y="262" type="line"/>
      <point x="245" y="212"/>
      <point x="377" y="110"/>
      <point x="472" y="0" type="curve"/>
      <point x="516" y="0" type="line"/>
      <point x="425" y="114"/>
      <point x="284" y="220"/>
      <point x="169" y="276" type="curve"/>
      <point x="291" y="349"/>
      <point x="394" y="421"/>
      <point x="498" y="513" type="curve"/>
      <point x="450" y="513" type="line"/>
      <point x="348" y="428"/>
      <point x="269" y="372"/>
      <point x="128" y="279" type="curve"/>
      <point x="128" y="627" type="line" smooth="yes"/>
      <point x="128" y="714"/>
      <point x="154" y="746"/>
      <point x="224" y="746" type="curve" smooth="yes"/>
      <point x="236" y="746"/>
      <point x="250" y="744"/>
      <point x="262" y="741" type="curve"/>
      <point x="266" y="770" type="line"/>
      <point x="255" y="774"/>
      <point x="237" y="776"/>
      <point x="224" y="776" type="curve" smooth="yes"/>
      <point x="136" y="776"/>
      <point x="95" y="730"/>
      <point x="95" y="625" type="curve" smooth="yes"/>
    </contour>
  </outline>
</glyph>
<glyph name="uni019A" format="2">
  <advance width="560"/>
  <unicode hex="019A"/>
  <outline>
    <contour>
      <point x="358" y="-12" type="curve" smooth="yes"/>
      <point x="367" y="-12"/>
      <point x="416" y="-4"/>
      <point x="444" y="12" type="curve"/>
      <point x="436" y="47" type="line"/>
      <point x="401" y="27"/>
      <point x="363" y="24"/>
      <point x="334" y="24" type="curve" smooth="yes"/>
      <point x="263" y="24"/>
      <point x="240" y="59"/>
      <point x="240" y="201" type="curve" smooth="yes"/>
      <point x="240" y="385" type="line"/>
      <point x="387" y="385" type="line"/>
      <point x="387" y="424" type="line"/>
      <point x="240" y="424" type="line"/>
      <point x="240" y="766" type="line"/>
      <point x="56" y="766" type="line"/>
      <point x="56" y="730" type="line"/>
      <point x="211" y="730" type="line"/>
      <point x="211" y="424" type="line"/>
      <point x="55" y="424" type="line"/>
      <point x="55" y="385" type="line"/>
      <point x="211" y="385" type="line"/>
      <point x="211" y="188" type="line" smooth="yes"/>
      <point x="211" y="52"/>
      <point x="223" y="-12"/>
    </contour>
  </outline>
</glyph>
